<svg width="85" height="70" viewBox="0 0 85 70" fill="none" xmlns="http://www.w3.org/2000/svg">
<path d="M4.42892 47.6105C6.43458 54.1356 16.963 60.6172 27.1949 63.2194C37.4268 65.8215 47.4233 64.5639 54.9401 62.4141C62.531 60.2438 67.7165 57.1608 71.7099 53.38C75.7032 49.5993 78.4433 45.101 77.9099 40.0765C77.3635 35.0923 73.4824 29.5621 67.9648 24.0805C62.3862 18.579 55.1842 13.0858 45.7585 9.45404C36.2848 5.76216 24.5263 3.91186 19.1142 7.27756C13.641 10.6235 14.5012 19.2257 11.7033 26.821C8.83118 34.4368 2.36215 41.0655 4.42892 47.6105Z" fill="#FCF5EF"/>
<path d="M63.3223 19.2002L61.8389 17.7168C61.5233 17.4012 61.0341 17.4012 60.7185 17.7168C60.4029 18.0324 60.4029 18.5216 60.7185 18.8372L62.2019 20.3206C62.4228 20.5416 62.4228 20.8572 62.407 21.015C62.3755 21.3464 62.2019 21.7093 61.9178 21.9776L57.4677 26.4278C57.1678 26.3173 56.8522 26.27 56.5208 26.3015C55.9527 26.3647 55.3846 26.6329 54.9585 27.059C53.7276 28.2899 51.9602 28.5108 51.0133 27.5482L49.451 25.9859C49.0092 25.5441 48.804 24.9128 48.8829 24.1869C48.9618 23.4137 49.3406 22.6404 49.956 22.0407C50.6662 21.3306 50.8871 20.3206 50.5873 19.5158L55.0374 15.0656C55.5582 14.5449 56.3157 14.4186 56.6944 14.7974L58.162 16.265C58.4776 16.5806 58.9668 16.5806 59.2824 16.265C59.5981 15.9494 59.5981 15.4602 59.2824 15.1446L57.8148 13.6769C56.8206 12.6828 55.069 12.7932 53.917 13.9452L49.4826 18.4112C48.6778 18.1113 47.6836 18.3323 46.9577 19.0424C45.4743 20.5258 44.559 22.4037 44.3696 24.3289C44.1803 26.1911 44.701 27.8954 45.8372 29.1579C43.3439 31.6197 41.7816 32.5665 40.1404 33.5607C38.4361 34.6022 36.6686 35.6753 33.8597 38.4685C31.0665 41.2617 29.9934 43.0291 28.9518 44.7492C27.9261 46.4378 26.9635 48.0159 24.3912 50.6197C23.76 50.2567 23.0341 50.0358 22.245 50.0358C19.9095 50.0358 18 51.9453 18 54.2808C18 56.6164 19.9095 58.5258 22.245 58.5258C24.5806 58.5258 26.49 56.6164 26.49 54.2808C26.49 53.2866 26.1429 52.3713 25.5748 51.6612C28.2259 48.9785 29.2832 47.2426 30.2932 45.5698C31.319 43.8655 32.2974 42.2559 34.9643 39.5889C37.6313 36.922 39.2409 35.9594 40.9452 34.9178C42.6022 33.9236 44.3065 32.8821 46.9419 30.2941L47.6205 30.9726C48.7409 32.0931 50.2716 32.6927 51.9602 32.6927C52.1969 32.6927 52.4336 32.677 52.6861 32.6612C54.6113 32.4718 56.4893 31.5565 57.9726 30.0731C58.4145 29.6313 58.6828 29.079 58.7301 28.5108C58.7617 28.1795 58.7143 27.8481 58.6039 27.564L63.054 23.1138C63.5906 22.5773 63.922 21.8987 63.9851 21.1886C64.064 20.4153 63.8273 19.7052 63.3223 19.2002ZM22.2608 56.9478C20.7932 56.9478 19.5939 55.7484 19.5939 54.2808C19.5939 52.8132 20.7932 51.6139 22.2608 51.6139C23.7284 51.6139 24.9278 52.8132 24.9278 54.2808C24.9278 55.7484 23.7284 56.9478 22.2608 56.9478ZM57.1678 28.3373C57.152 28.5424 57.0416 28.7633 56.868 28.9369C55.6529 30.152 54.1064 30.9095 52.5441 31.0673C51.0291 31.2094 49.6877 30.7833 48.7409 29.8364L47.1786 28.2741C46.2318 27.3273 45.8057 25.9859 45.9477 24.471C46.1055 22.9087 46.863 21.3779 48.0781 20.147C48.299 19.9261 48.5358 19.8314 48.7409 19.8314C48.8671 19.8314 48.9776 19.863 49.0407 19.9419C49.2143 20.1155 49.1828 20.5731 48.8356 20.9045C47.9676 21.7725 47.4311 22.8771 47.3206 24.0133C47.2102 25.2127 47.5731 26.3015 48.3464 27.0748L49.9087 28.6371C50.6819 29.4104 51.7708 29.7733 52.9701 29.6628C54.1064 29.5524 55.211 29.0158 56.079 28.1479C56.2525 27.9743 56.4735 27.8638 56.6786 27.8481C56.7733 27.8323 56.9311 27.8481 57.0416 27.9427C57.1678 28.0848 57.1678 28.2426 57.1678 28.3373Z" fill="#267A85"/>
</svg>
