<svg width="85" height="70" viewBox="0 0 85 77" fill="none" xmlns="http://www.w3.org/2000/svg">
<path d="M4.42892 47.6105C6.43458 54.1356 16.963 60.6172 27.1949 63.2194C37.4268 65.8215 47.4233 64.5639 54.9401 62.4141C62.531 60.2438 67.7165 57.1608 71.7099 53.38C75.7032 49.5993 78.4433 45.101 77.9099 40.0765C77.3635 35.0923 73.4824 29.5621 67.9648 24.0805C62.3862 18.579 55.1842 13.0858 45.7585 9.45404C36.2848 5.76216 24.5263 3.91186 19.1142 7.27756C13.641 10.6235 14.5012 19.2257 11.7033 26.821C8.83118 34.4368 2.36215 41.0655 4.42892 47.6105Z" fill="#FCF5EF"/>
<path d="M36.8756 32.4901V32.4895V19.0735C36.8756 18.7128 36.7323 18.3668 36.4772 18.1118C36.2222 17.8567 35.8762 17.7135 35.5155 17.7135H22.0996C21.7389 17.7135 21.3929 17.8567 21.1379 18.1118C20.8828 18.3668 20.7396 18.7128 20.7396 19.0735L20.7395 32.4895L20.7396 32.4901C20.7414 32.8496 20.8856 33.1937 21.1404 33.4472C21.3953 33.7007 21.7401 33.843 22.0996 33.843H35.5155C35.875 33.843 36.2198 33.7007 36.4747 33.4472C36.7295 33.1937 36.8737 32.8496 36.8756 32.4901ZM22.0996 16.02H35.5155C36.326 16.02 37.1034 16.3415 37.6771 16.914C38.2508 17.4865 38.5739 18.2632 38.5756 19.0737V32.4892C38.5739 33.2997 38.2508 34.0764 37.6771 34.6489C37.1034 35.2214 36.326 35.543 35.5155 35.543H22.0996C21.2891 35.543 20.5117 35.2214 19.938 34.6489C19.3644 34.0764 19.0412 33.2998 19.0396 32.4893V19.08C19.0396 18.2684 19.3619 17.4901 19.9358 16.9162C20.5097 16.3424 21.288 16.02 22.0996 16.02Z" fill="#267A85" stroke="#FCF5EF" stroke-width="0.25"/>
<path d="M58.2606 32.4901V32.4895V19.0735C58.2606 18.8949 58.2254 18.718 58.157 18.553C58.0887 18.388 57.9885 18.2381 57.8622 18.1118C57.7359 17.9855 57.586 17.8853 57.421 17.817C57.256 17.7486 57.0792 17.7135 56.9006 17.7135H43.4846C43.1239 17.7135 42.7779 17.8567 42.5229 18.1118C42.2678 18.3668 42.1246 18.7128 42.1246 19.0735L42.1246 32.4895L42.1246 32.4901C42.1265 32.8496 42.2706 33.1937 42.5254 33.4472C42.7803 33.7007 43.1251 33.843 43.4846 33.843H56.9006C57.26 33.843 57.6049 33.7007 57.8597 33.4472C58.1145 33.1937 58.2587 32.8496 58.2606 32.4901ZM43.4846 16.02H56.9006C57.711 16.02 58.4884 16.3415 59.0621 16.914C59.6358 17.4865 59.9589 18.2632 59.9606 19.0737V32.4892C59.9589 33.2997 59.6358 34.0764 59.0621 34.6489C58.4884 35.2214 57.711 35.543 56.9006 35.543H43.4846C42.6741 35.543 41.8967 35.2214 41.323 34.6489C40.7494 34.0764 40.4262 33.2998 40.4246 32.4893V19.08C40.4246 18.2684 40.747 17.4901 41.3208 16.9162C41.8947 16.3424 42.673 16.02 43.4846 16.02Z" fill="#267A85" stroke="#FCF5EF" stroke-width="0.25"/>
<path d="M22.0996 37.457H35.5155C36.326 37.457 37.1034 37.7785 37.6771 38.351C38.2508 38.9235 38.5739 39.7002 38.5756 40.5107V53.9265C38.5756 54.3283 38.4964 54.7262 38.3426 55.0975C38.1888 55.4687 37.9634 55.8061 37.6793 56.0902C37.3952 56.3744 37.0578 56.5998 36.6866 56.7535C36.3153 56.9073 35.9174 56.9865 35.5155 56.9865H22.0996C21.6977 56.9865 21.2998 56.9073 20.9285 56.7535C20.5573 56.5998 20.22 56.3744 19.9358 56.0902C19.6517 55.8061 19.4263 55.4687 19.2725 55.0975C19.1187 54.7262 19.0396 54.3283 19.0396 53.9265V40.517C19.0396 39.7054 19.3619 38.9271 19.9358 38.3532C20.5097 37.7794 21.288 37.457 22.0996 37.457ZM36.4772 54.8881C36.7323 54.6331 36.8756 54.2872 36.8756 53.9265V40.5105C36.8756 40.1498 36.7323 39.8039 36.4772 39.5488C36.2222 39.2938 35.8762 39.1505 35.5155 39.1505H22.0996C21.7389 39.1505 21.3929 39.2938 21.1379 39.5488C20.8828 39.8039 20.7396 40.1498 20.7396 40.5105V53.9265C20.7396 54.2872 20.8828 54.6331 21.1379 54.8881C21.3929 55.1432 21.7389 55.2865 22.0996 55.2865H35.5155C35.8762 55.2865 36.2222 55.1432 36.4772 54.8881Z" fill="#267A85" stroke="#FCF5EF" stroke-width="0.25"/>
<path d="M51.0425 46.25V46.375H51.1675H59.104C59.3295 46.375 59.5457 46.4645 59.7051 46.6239C59.8645 46.7833 59.954 46.9995 59.954 47.225C59.954 47.4504 59.8645 47.6666 59.7051 47.826C59.5457 47.9854 59.3295 48.075 59.104 48.075H51.1675H51.0425V48.2V56.13C51.0425 56.3554 50.953 56.5716 50.7936 56.731C50.6342 56.8904 50.418 56.98 50.1925 56.98C49.9671 56.98 49.7509 56.8904 49.5915 56.731C49.4321 56.5716 49.3425 56.3554 49.3425 56.13V48.2V48.075H49.2175H41.281C41.0556 48.075 40.8394 47.9854 40.68 47.826C40.5206 47.6666 40.431 47.4504 40.431 47.225C40.431 46.9995 40.5206 46.7833 40.68 46.6239C40.8394 46.4645 41.0556 46.375 41.281 46.375H49.2175H49.3425V46.25V38.307C49.3425 38.0815 49.4321 37.8653 49.5915 37.7059C49.7509 37.5465 49.9671 37.457 50.1925 37.457C50.418 37.457 50.6342 37.5465 50.7936 37.7059C50.953 37.8653 51.0425 38.0815 51.0425 38.307V46.25Z" fill="#267A85" stroke="#FCF5EF" stroke-width="0.25"/>
</svg>
