<svg width="48" height="48" viewBox="0 0 48 48" fill="none" xmlns="http://www.w3.org/2000/svg">
<path d="M12.0556 16.2221C12.0556 15.3887 12.6111 14.5554 13.7222 14.5554C14.8334 14.5554 15.3889 15.111 15.3889 16.2221V19.8332C15.3889 20.6665 14.8334 21.4998 13.7222 21.4998C12.6111 21.4998 12.0556 20.6665 12.0556 19.8332V16.2221ZM32.8889 16.2221C32.8889 15.3887 33.4445 14.5554 34.5556 14.5554C35.6667 14.5554 36.2223 15.111 36.2223 16.2221V19.8332C36.2223 20.6665 35.6667 21.4998 34.5556 21.4998C33.4445 21.4998 32.8889 20.9443 32.8889 19.8332V16.2221ZM15.3889 35.6665C14.5556 35.111 14.5556 34.2776 14.8334 33.4443C15.1111 32.611 16.2222 32.611 17.0556 32.8887C19.2778 34.5554 21.7778 35.111 24.2778 35.111C27.0556 35.111 29 34.5554 30.6667 33.1665C31.2222 32.611 32.3334 32.611 32.8889 33.4443C33.4445 33.9998 33.4445 35.111 32.6111 35.6665C30.3889 37.611 27.6111 38.4443 24.2778 38.4443C21.2223 38.1665 18.1667 37.3332 15.3889 35.6665ZM22.3334 16.2221C22.3334 15.3887 22.8889 14.5554 24 14.5554C25.1111 14.5554 25.6667 15.111 25.6667 16.2221V23.9998C25.6667 26.2221 23.7222 28.1665 21.5 28.1665H20.6667C19.8334 28.1665 19 27.611 19 26.4998C19 25.3887 19.5556 24.8332 20.6667 24.8332H21.5C22.0556 24.8332 22.6111 24.2776 22.6111 23.7221V16.2221H22.3334ZM33.1667 3.72207C32.3334 3.72207 31.5 2.88873 31.5 2.0554C31.5 1.22207 32.3334 0.388733 33.1667 0.388733H38.7223C43.7223 0.388733 47.6111 4.27762 47.6111 9.27762V15.111C47.6111 15.9443 46.7778 16.7776 45.9445 16.7776C45.1111 16.7776 44.2778 15.9443 44.2778 15.111V9.27762C44.2778 6.22207 41.7778 3.72207 38.7223 3.72207H33.1667ZM44.2778 33.1665C44.2778 32.3332 45.1111 31.4998 45.9445 31.4998C46.7778 31.4998 47.6111 32.3332 47.6111 33.1665V38.9998C47.6111 43.9998 43.7223 47.8887 38.7223 47.8887H32.8889C32.0556 47.8887 31.2223 47.0554 31.2223 46.2221C31.2223 45.3887 32.0556 44.5554 32.8889 44.5554H38.7223C41.7778 44.5554 44.2778 42.0554 44.2778 38.9998V33.1665ZM14.8334 44.2776C15.6667 44.2776 16.5 45.111 16.5 45.9443C16.5 46.7776 15.6667 47.611 14.8334 47.611H9.27781C4.27781 47.611 0.388916 43.7221 0.388916 38.7221V33.1665C0.388916 32.3332 1.22225 31.4998 2.05558 31.4998C2.88892 31.4998 3.72225 32.3332 3.72225 33.1665V38.7221C3.72225 41.7776 6.22225 44.2776 9.27781 44.2776H14.8334ZM3.72225 14.8332C3.72225 15.6665 2.88892 16.4998 2.05558 16.4998C1.22225 16.4998 0.388916 15.9443 0.388916 14.8332V9.27762C0.388916 4.27762 4.27781 0.388733 9.27781 0.388733H15.1111C15.9445 0.388733 16.7778 1.22207 16.7778 2.0554C16.7778 2.88873 15.9445 3.72207 14.8334 3.72207H9.27781C6.22225 3.72207 3.72225 6.22207 3.72225 9.27762V14.8332Z" fill="#4A7DF9"/>
</svg>
