<svg width="85" height="70" viewBox="0 0 85 70" fill="none" xmlns="http://www.w3.org/2000/svg">
<path d="M71.0639 49.1654C67.4389 54.9498 55.5924 58.4881 45.0356 58.3555C34.4789 58.2229 25.1477 54.4228 18.4426 50.4021C11.6712 46.3425 7.45951 42.0233 4.5798 37.3384C1.70009 32.6535 0.216541 27.5996 2.03124 22.884C3.84812 18.2107 9.02742 13.8724 15.7749 10.0041C22.5866 6.13261 30.9642 2.68893 41.0085 1.61838C51.1147 0.502211 62.9516 1.75585 67.3092 6.40673C71.7308 11.0543 68.6752 19.1414 69.4136 27.2019C70.2184 35.3014 74.753 43.3776 71.0639 49.1654Z" fill="#FCF5EF"/>
<path d="M36.8889 30.1454V31.3221C36.8889 32.3924 37.3138 33.4188 38.0703 34.1756C38.8267 34.9324 39.8527 35.3575 40.9225 35.3575C41.9923 35.3575 43.0183 34.9324 43.7748 34.1756C44.5312 33.4188 44.9562 32.3924 44.9562 31.3221V30.1454C44.9562 29.0752 44.5312 28.0488 43.7748 27.292C43.0183 26.5352 41.9923 26.11 40.9225 26.11C39.8527 26.11 38.8267 26.5352 38.0703 27.292C37.3138 28.0488 36.8889 29.0752 36.8889 30.1454ZM38.4385 30.1454C38.4385 29.4863 38.7002 28.8542 39.166 28.3882C39.6319 27.9221 40.2637 27.6603 40.9225 27.6603C41.5813 27.6603 42.2132 27.9221 42.679 28.3882C43.1449 28.8542 43.4066 29.4863 43.4066 30.1454V31.3221C43.4066 31.9812 43.1449 32.6133 42.679 33.0794C42.2132 33.5454 41.5813 33.8072 40.9225 33.8072C40.2637 33.8072 39.6319 33.5454 39.166 33.0794C38.7002 32.6133 38.4385 31.9812 38.4385 31.3221V30.1454ZM49.5679 24.2931C50.954 24.2914 52.283 23.7398 53.2631 22.7592C54.2433 21.7786 54.7947 20.4491 54.7963 19.0624V17.4532C54.7963 16.7663 54.6611 16.0861 54.3983 15.4515C54.1356 14.8169 53.7504 14.2402 53.2649 13.7545C52.7794 13.2688 52.203 12.8835 51.5687 12.6206C50.9344 12.3578 50.2545 12.2225 49.5679 12.2225C48.8813 12.2225 48.2014 12.3578 47.567 12.6206C46.9327 12.8835 46.3563 13.2688 45.8708 13.7545C45.3853 14.2402 45.0002 14.8169 44.7374 15.4515C44.4747 16.0861 44.3394 16.7663 44.3394 17.4532V19.0624C44.3411 20.4491 44.8925 21.7786 45.8726 22.7592C46.8528 23.7398 48.1817 24.2914 49.5679 24.2931ZM45.8968 17.4532C45.8968 16.4771 46.2844 15.541 46.9743 14.8507C47.6642 14.1605 48.5999 13.7728 49.5756 13.7728C50.5513 13.7728 51.487 14.1605 52.1769 14.8507C52.8668 15.541 53.2544 16.4771 53.2544 17.4532V19.0624C53.2544 20.0385 52.8668 20.9746 52.1769 21.6648C51.487 22.355 50.5513 22.7428 49.5756 22.7428C48.5999 22.7428 47.6642 22.355 46.9743 21.6648C46.2844 20.9746 45.8968 20.0385 45.8968 19.0624V17.4532ZM33.21 20.1367C34.6896 20.1367 36.1085 19.5487 37.1547 18.5021C38.2009 17.4554 38.7887 16.0359 38.7887 14.5557V12.8271C38.8219 12.0742 38.7023 11.3224 38.4372 10.617C38.1721 9.91154 37.767 9.26714 37.2462 8.72262C36.7254 8.17811 36.0998 7.74475 35.407 7.44869C34.7143 7.15263 33.9688 7 33.2155 7C32.4622 7 31.7167 7.15263 31.0239 7.44869C30.3312 7.74475 29.7056 8.17811 29.1848 8.72262C28.664 9.26714 28.2588 9.91154 27.9937 10.617C27.7286 11.3224 27.609 12.0742 27.6422 12.8271V14.5557C27.6422 16.034 28.2285 17.4519 29.2724 18.4983C30.3162 19.5446 31.7324 20.1339 33.21 20.1367ZM29.181 12.8271C29.1527 12.2809 29.2357 11.7346 29.4251 11.2216C29.6145 10.7085 29.9063 10.2394 30.2827 9.84275C30.6591 9.4461 31.1123 9.13025 31.6146 8.91441C32.1169 8.69857 32.6579 8.58726 33.2046 8.58726C33.7513 8.58726 34.2923 8.69857 34.7946 8.91441C35.2969 9.13025 35.7501 9.4461 36.1265 9.84275C36.5029 10.2394 36.7947 10.7085 36.9841 11.2216C37.1735 11.7346 37.2566 12.2809 37.2282 12.8271V14.5557C37.2566 15.1019 37.1735 15.6481 36.9841 16.1612C36.7947 16.6743 36.5029 17.1434 36.1265 17.54C35.7501 17.9367 35.2969 18.2525 34.7946 18.4684C34.2923 18.6842 33.7513 18.7955 33.2046 18.7955C32.6579 18.7955 32.1169 18.6842 31.6146 18.4684C31.1123 18.2525 30.6591 17.9367 30.2827 17.54C29.9063 17.1434 29.6145 16.6743 29.4251 16.1612C29.2357 15.6481 29.1527 15.1019 29.181 14.5557V12.8271ZM62.2252 49.4559H56.6775V45.8716C57.609 45.5776 58.4224 44.9938 58.9994 44.2053C59.5763 43.4167 59.8867 42.4646 59.8853 41.4874V33.2848C59.8832 31.3828 59.1272 29.5593 57.783 28.2143C56.4388 26.8692 54.6163 26.1125 52.7152 26.11H48.8287C48.6232 26.11 48.4261 26.1917 48.2808 26.3371C48.1355 26.4824 48.0539 26.6796 48.0539 26.8852C48.0539 27.0908 48.1355 27.2879 48.2808 27.4333C48.4261 27.5786 48.6232 27.6603 48.8287 27.6603H52.7152C54.2054 27.6624 55.6341 28.2557 56.6877 29.31C57.7414 30.3644 58.334 31.7939 58.3356 33.2848V41.4905C58.3375 42.2165 58.0809 42.9194 57.6118 43.4734C57.1427 44.0273 56.4918 44.3961 55.7757 44.5136L45.9278 46.1522C45.6213 46.2047 45.3064 46.1378 45.0477 45.9653C44.789 45.7927 44.6062 45.5276 44.5368 45.2244C44.4674 44.9212 44.5166 44.6029 44.6745 44.3349C44.8323 44.0669 45.0867 43.8696 45.3854 43.7834L53.3133 41.4579C53.7386 41.3317 54.1119 41.0717 54.3779 40.7165C54.6439 40.3613 54.7885 39.9298 54.7901 39.486V34.6382C54.7901 34.4326 54.7085 34.2354 54.5632 34.0901C54.4179 33.9447 54.2208 33.863 54.0153 33.863C53.8098 33.863 53.6127 33.9447 53.4674 34.0901C53.3221 34.2354 53.2405 34.4326 53.2405 34.6382V39.4922C53.2408 39.6029 53.2047 39.7107 53.1377 39.7989C53.0708 39.8872 52.9768 39.951 52.8701 39.9805L48.0446 41.3928C47.9441 39.991 47.3176 38.6789 46.2908 37.7198C45.2639 36.7606 43.9126 36.2253 42.5078 36.221H39.3311C38.0384 36.2221 36.7862 36.6722 35.7884 37.4945C34.7907 38.3168 34.1094 39.4602 33.8609 40.7293L28.541 38.7527C28.4458 38.7175 28.3636 38.6541 28.3052 38.5711C28.2468 38.488 28.215 38.3891 28.2141 38.2876V32.0864C28.2141 31.8808 28.1324 31.6837 27.9871 31.5383C27.8418 31.3929 27.6447 31.3113 27.4392 31.3113C27.2338 31.3113 27.0367 31.3929 26.8914 31.5383C26.7461 31.6837 26.6644 31.8808 26.6644 32.0864V38.2876C26.6652 38.7067 26.7937 39.1156 27.033 39.4597C27.2722 39.8038 27.6108 40.0666 28.0033 40.2131L37.4436 43.7152C37.6421 43.7886 37.8175 43.9135 37.9518 44.0771C38.0861 44.2407 38.1745 44.4371 38.208 44.6462C38.2414 44.8552 38.2186 45.0694 38.1421 45.2668C38.0655 45.4641 37.9378 45.6376 37.7721 45.7693C37.6323 45.882 37.4686 45.9612 37.2935 46.001C37.1184 46.0407 36.9365 46.04 36.7618 45.9987L25.4976 43.3912C24.8208 43.2391 24.2161 42.8607 23.7833 42.3184C23.3506 41.7761 23.1157 41.1023 23.1173 40.4084V29.4385C23.1194 27.9476 23.7124 26.5183 24.7664 25.4642C25.8203 24.4101 27.2491 23.8172 28.7394 23.8156H37.659C37.8645 23.8156 38.0616 23.7339 38.2069 23.5886C38.3522 23.4432 38.4338 23.246 38.4338 23.0404C38.4338 22.8349 38.3522 22.6377 38.2069 22.4923C38.0616 22.347 37.8645 22.2653 37.659 22.2653H28.744C26.8421 22.2661 25.0182 23.0219 23.6727 24.3668C22.3273 25.7117 21.5702 27.5357 21.5677 29.4385V40.4022C21.5653 41.3378 21.8492 42.2518 22.3814 43.0211C22.9136 43.7905 23.6685 44.3784 24.5446 44.7058V49.4497H19.7748C19.5693 49.4497 19.3722 49.5314 19.2269 49.6767C19.0816 49.8221 19 50.0193 19 50.2249C19 50.4304 19.0816 50.6276 19.2269 50.773C19.3722 50.9183 19.5693 51 19.7748 51H62.2252C62.4307 51 62.6278 50.9183 62.7731 50.773C62.9184 50.6276 63 50.4304 63 50.2249C63 50.0193 62.9184 49.8221 62.7731 49.6767C62.6278 49.5314 62.4307 49.4497 62.2252 49.4497V49.4559ZM55.1279 49.4559H48.0926V47.363L55.1264 46.1925L55.1279 49.4559ZM37.0392 47.577C37.6821 47.5751 38.3039 47.3475 38.7963 46.9338C39.2886 46.5202 39.6201 45.9467 39.733 45.3135C39.8459 44.6803 39.733 44.0276 39.414 43.4691C39.095 42.9107 38.5902 42.482 37.9875 42.2579L35.3532 41.2812C35.4788 40.3135 35.9511 39.4243 36.6823 38.7786C37.4136 38.1329 38.3542 37.7744 39.3295 37.7698H42.5124C43.581 37.7698 44.6058 38.1945 45.3614 38.9504C46.117 39.7063 46.5415 40.7315 46.5415 41.8005V41.8316L44.9484 42.2966C44.3074 42.4817 43.7549 42.8924 43.3926 43.4529C43.0303 44.0134 42.8828 44.686 42.9771 45.3468C43.0715 46.0075 43.4014 46.6119 43.906 47.0485C44.4107 47.4851 45.0561 47.7246 45.7232 47.7227C45.879 47.7231 46.0345 47.7107 46.1881 47.6855L46.5508 47.625V49.459H35.302V47.2452L36.4178 47.5025C36.6214 47.551 36.8299 47.576 37.0392 47.577ZM26.0988 45.1275L33.7524 46.8917V49.459H26.0988V45.1275Z" fill="#267A85"/>
</svg>
