<svg width="94" height="94" viewBox="0 0 94 94" fill="none" xmlns="http://www.w3.org/2000/svg">
<path d="M26.6812 9.71054C33.1423 4.99333 45.6914 6.6561 55.0426 11.7898C64.3938 16.9235 70.6062 25.5547 74.3511 33.1907C78.1334 40.9014 79.4857 47.6915 79.445 54.2589C79.4042 60.8263 77.9112 67.1445 73.6622 71.5287C69.4348 75.8649 62.3921 78.2406 54.2114 79.3531C45.9716 80.4389 36.5722 80.3095 27.0079 76.7552C17.3627 73.2223 7.49355 66.2379 6.19596 59.0102C4.83924 51.756 12.0757 44.2104 15.9101 34.9024C19.707 25.5197 20.1609 14.4011 26.6812 9.71054Z" fill="#FCF5EF"/>
<path fill-rule="evenodd" clip-rule="evenodd" d="M42.2894 63.8238C38.6074 66.0452 34.9897 67.1185 33.2915 66.6804C29.0332 65.5817 28.6417 49.9887 31.9365 43.8415C35.2314 37.6942 52.1698 35.0149 53.0236 47.1945C53.3179 51.3931 51.5705 55.1431 48.9796 58.2099L53.7792 79.2348C53.7792 79.2348 49.758 80.4666 47.0965 80.6668C44.3183 80.8758 39.9783 80.1895 39.9783 80.1895L42.2894 63.8238Z" fill="#B28B67"/>
<path fill-rule="evenodd" clip-rule="evenodd" d="M58.973 43.1401C59.4137 42.7029 59.6541 42.0789 59.8621 41.4863C60.0781 40.8708 60.288 40.2489 60.4314 39.6083C60.7179 38.3282 60.7206 36.856 59.8083 35.862C59.0766 35.0649 57.9787 34.7074 56.9655 34.6297C56.2904 34.5779 55.5971 34.6725 54.95 34.8855C54.3079 35.0967 53.7545 35.5177 53.1321 35.779C53.1083 34.3995 52.8723 32.9561 52.1731 31.7782C51.5003 30.6449 50.4276 30.0089 49.2059 29.8407C47.9521 29.668 46.7139 29.9617 45.5914 30.5693C45.3103 30.7215 45.0319 30.8809 44.7655 31.0613C44.5424 31.2124 44.3104 31.3944 44.0487 31.4558C43.7569 31.5244 43.6122 31.3557 43.4225 31.1426C43.2002 30.8927 42.9496 30.6726 42.6845 30.4775C41.5122 29.615 39.9741 29.2604 38.616 29.7774C37.9903 30.0156 37.3818 30.4201 36.9572 30.9775C36.5788 31.4744 36.3089 32.2626 35.7866 32.6088C35.5649 32.7558 35.4084 32.5611 35.2066 32.4172C34.9035 32.201 34.6144 31.9624 34.3076 31.752C33.8767 31.4565 33.4101 31.2355 32.9105 31.1198C32.1791 30.9504 31.1683 30.9901 30.9592 31.949C30.8807 32.3092 30.9408 32.6944 30.9662 33.0573C31.001 33.5556 31.0374 34.0537 31.0806 34.5513C31.1134 34.9291 31.1549 35.2939 31.2261 35.6649C31.2641 35.8627 31.383 36.2314 31.2983 36.4294C31.1924 36.6769 30.7038 36.5362 30.495 36.5448C30.0827 36.5619 29.6686 36.6342 29.2874 36.8106C28.9919 36.9473 28.6812 37.1484 28.5565 37.4873C28.4798 37.6956 28.5 37.9095 28.5363 38.1237C28.5797 38.3808 28.53 38.5172 28.4976 38.7766C27.9438 38.5037 26.0247 37.8972 25.7832 38.8906C25.7028 39.2214 25.8859 39.5952 26.0256 39.8741C26.2705 40.3634 26.5917 40.8107 26.9201 41.2372C27.605 42.1269 28.4226 42.8943 29.3024 43.5506C28.2716 44.0093 28.0026 45.3621 28.895 46.1682C29.289 46.5241 29.8188 46.6033 30.3158 46.5805C30.4977 46.5722 30.76 46.5022 30.9031 46.5339C30.9802 46.551 31.0626 46.6163 31.1693 46.6236C31.8708 46.6717 32.6626 46.5025 33.3483 46.3467C34.5701 46.0691 35.7268 45.4897 36.6713 44.6073C36.9136 44.3809 37.1138 44.2506 37.44 44.254C37.7258 44.2569 38.0062 44.3353 38.2917 44.3425C39.0472 44.3619 39.7284 43.9922 40.4299 43.7461C40.4729 44.6947 40.7428 45.7395 41.1305 46.593C41.4466 47.2889 42.1068 47.3901 42.7555 47.4511C44.8301 47.6465 46.9119 47.4285 48.9891 47.4313C46.9783 47.8863 44.9006 48.0738 42.9077 48.6091C42.0069 48.851 42.6947 49.4588 43.0799 49.88C43.7141 50.5738 44.1857 51.4333 44.5128 52.3389C45.4964 51.0555 47.235 50.2099 48.7753 50.6041C50.4772 51.0397 51.6756 53.3434 50.5873 54.9996C49.9555 55.961 48.8145 56.3322 47.8651 56.7453C48.6058 57.516 48.7849 58.6544 49.2307 59.6133C49.4505 60.0861 49.7592 60.6208 50.2508 60.7856C50.4328 60.8466 50.6461 60.8518 50.7896 61.0002C50.9673 61.184 51.0097 61.3895 51.2367 61.5474C52.1426 62.1778 53.5577 62.1292 54.3606 61.3065C55.0868 60.5625 54.8979 59.3851 54.2914 58.6308C55.2568 58.2281 57.0155 57.71 56.6318 56.2047C58.7236 56.0656 63.8025 52.6699 60.9949 50.1885C62.5357 49.3169 63.9512 47.1868 62.9615 45.309C62.1995 43.8631 60.4271 43.2168 58.973 43.1401Z" fill="#191847"/>
</svg>
