<svg width="85" height="70" viewBox="0 0 85 70" fill="none" xmlns="http://www.w3.org/2000/svg">
<path d="M4.42892 47.6105C6.43458 54.1356 16.963 60.6172 27.1949 63.2194C37.4268 65.8215 47.4233 64.5639 54.9401 62.4141C62.531 60.2438 67.7165 57.1608 71.7099 53.38C75.7032 49.5993 78.4433 45.101 77.9099 40.0765C77.3635 35.0923 73.4824 29.5621 67.9648 24.0805C62.3862 18.579 55.1842 13.0858 45.7585 9.45404C36.2848 5.76216 24.5263 3.91186 19.1142 7.27756C13.641 10.6235 14.5012 19.2257 11.7033 26.821C8.83118 34.4368 2.36215 41.0655 4.42892 47.6105Z" fill="#FCF5EF"/>
<path d="M54.9714 60.0077H25.5879C23.0663 60.0077 21 57.9589 21 55.4198V18.1563C21 15.6347 23.0488 13.5684 25.5879 13.5684H32.137C32.6273 13.5684 33.0126 13.9537 33.0126 14.444C33.0126 14.9343 32.6273 15.3195 32.137 15.3195H25.5879C24.0294 15.3195 22.7511 16.5803 22.7511 18.1563V55.4373C22.7511 56.9958 24.0119 58.2741 25.5879 58.2741H54.9539C56.5124 58.2741 57.7907 57.0133 57.7907 55.4373V18.1563C57.7907 16.5978 56.5299 15.3195 54.9539 15.3195H48.6149C48.1246 15.3195 47.7394 14.9343 47.7394 14.444C47.7394 13.9537 48.1246 13.5684 48.6149 13.5684H54.9539C57.4755 13.5684 59.5418 15.6172 59.5418 18.1563V55.4373C59.5418 57.9589 57.493 60.0077 54.9714 60.0077Z" fill="#267A85"/>
<path d="M47.5292 17.3509H33.2577C32.172 17.3509 31.2789 16.4578 31.2789 15.3722V13.4284C31.2789 12.3427 32.172 11.4497 33.2577 11.4497H35.2539L35.8143 9.80364C35.9018 8.788 36.7424 8 37.7755 8H43.0113C44.0445 8 44.885 8.80551 44.9726 9.80364L45.5329 11.4497H47.5292C48.6149 11.4497 49.5079 12.3427 49.5079 13.4284V15.3722C49.4904 16.4753 48.6149 17.3509 47.5292 17.3509ZM33.2577 13.2183C33.1351 13.2183 33.03 13.3234 33.03 13.4459V15.3897C33.03 15.5122 33.1351 15.6173 33.2577 15.6173H47.5292C47.6518 15.6173 47.7568 15.5122 47.7568 15.3897V13.4459C47.7568 13.3234 47.6518 13.2183 47.5292 13.2183H44.6924C44.3947 13.2183 44.132 13.0782 43.9744 12.833C43.8168 12.5879 43.7818 12.2902 43.8869 12.0275L43.2915 10.2764C43.2565 10.1889 43.239 10.0838 43.239 9.99626C43.239 9.87368 43.1339 9.76862 43.0113 9.76862H37.7755C37.653 9.76862 37.5479 9.87368 37.5479 9.99626C37.5479 10.1013 37.5304 10.1889 37.4954 10.2764L36.9 12.0275C37.005 12.2902 36.97 12.6054 36.8124 12.833C36.6548 13.0782 36.3746 13.2183 36.0945 13.2183H33.2577Z" fill="#267A85"/>
<path d="M41.0852 32.8307H39.6843C38.8088 32.8307 38.0908 32.1127 38.0908 31.2372V29.9939H36.8475C35.972 29.9939 35.254 29.2759 35.254 28.4004V26.9995C35.254 26.124 35.972 25.406 36.8475 25.406H38.0908V24.1627C38.0908 23.2872 38.8088 22.5692 39.6843 22.5692H41.0852C41.9608 22.5692 42.6787 23.2872 42.6787 24.1627V25.406H43.922C44.7975 25.406 45.5155 26.124 45.5155 26.9995V28.4004C45.5155 29.2759 44.7975 29.9939 43.922 29.9939H42.6787V31.2372C42.6787 32.1127 41.9608 32.8307 41.0852 32.8307ZM39.8419 31.0796H40.9451V29.1008C40.9451 28.6105 41.3304 28.2253 41.8207 28.2253H43.7994V27.1221H41.8207C41.3304 27.1221 40.9451 26.7368 40.9451 26.2465V24.2678H39.8419V26.2465C39.8419 26.7368 39.4567 27.1221 38.9664 27.1221H36.9876V28.2253H38.9664C39.4567 28.2253 39.8419 28.6105 39.8419 29.1008V31.0796Z" fill="#267A85"/>
<path d="M46.6536 54.9471C46.3034 54.9471 45.9707 54.7369 45.8481 54.4042L39.7193 39.0821L32.925 52.0227C32.7674 52.3204 32.4697 52.4955 32.1195 52.4955C31.7867 52.478 31.4891 52.2854 31.349 51.9877L27.2514 42.987L26.4634 44.6506C26.3233 44.9482 26.0081 45.1584 25.6754 45.1584H21.893C21.4027 45.1584 21.0175 44.7731 21.0175 44.2828C21.0175 43.7925 21.4027 43.4073 21.893 43.4073H25.115L26.4634 40.5355C26.6035 40.2203 26.9187 40.0276 27.2689 40.0276C27.6016 40.0276 27.9168 40.2378 28.0569 40.5355L32.207 49.6237L39.0538 36.5955C39.2114 36.2978 39.5266 36.1052 39.8769 36.1227C40.2096 36.1402 40.5248 36.3503 40.6473 36.6655L46.6011 51.5324L50.6286 39.4673C50.7512 39.0996 51.1014 38.8544 51.4867 38.8719C51.8719 38.8894 52.2046 39.1521 52.3097 39.5373L53.4304 44.0027L53.9557 43.5824C54.1133 43.4598 54.306 43.3898 54.4986 43.3898H58.7012C59.1915 43.3898 59.5768 43.775 59.5768 44.2653C59.5768 44.7556 59.1915 45.1409 58.7012 45.1409H54.8138L53.4654 46.209C53.2378 46.4017 52.9226 46.4542 52.6424 46.3491C52.3622 46.2616 52.1521 46.0164 52.0821 45.7362L51.3641 42.8644L47.5467 54.3342C47.4241 54.6844 47.1089 54.9296 46.7412 54.9296C46.6711 54.9471 46.6711 54.9471 46.6536 54.9471Z" fill="#267A85"/>
</svg>
