<svg width="85" height="70" viewBox="0 0 85 70" fill="none" xmlns="http://www.w3.org/2000/svg">
<path d="M4.42892 47.6105C6.43458 54.1356 16.963 60.6172 27.1949 63.2194C37.4268 65.8215 47.4233 64.5639 54.9401 62.4141C62.531 60.2438 67.7165 57.1608 71.7099 53.38C75.7032 49.5993 78.4433 45.101 77.9099 40.0765C77.3635 35.0923 73.4824 29.5621 67.9648 24.0805C62.3862 18.579 55.1842 13.0858 45.7585 9.45404C36.2848 5.76216 24.5263 3.91186 19.1142 7.27756C13.641 10.6235 14.5012 19.2257 11.7033 26.821C8.83118 34.4368 2.36215 41.0655 4.42892 47.6105Z" fill="#FCF5EF"/>
<path d="M54.4766 59.2765H25.5234C23.0373 59.2765 21 57.2565 21 54.7531V18.0134C21 15.5273 23.02 13.4901 25.5234 13.4901H31.9805C32.4639 13.4901 32.8437 13.8699 32.8437 14.3533C32.8437 14.8367 32.4639 15.2165 31.9805 15.2165H25.5234C23.9868 15.2165 22.7265 16.4596 22.7265 18.0134V54.7531C22.7265 56.2897 23.9696 57.55 25.5234 57.55H54.4766C56.0132 57.55 57.2735 56.307 57.2735 54.7531V18.0134C57.2735 16.4769 56.0304 15.2165 54.4766 15.2165H48.2267C47.7433 15.2165 47.3635 14.8367 47.3635 14.3533C47.3635 13.8699 47.7433 13.4901 48.2267 13.4901H54.4766C56.9627 13.4901 59 15.51 59 18.0134V54.7531C59 57.2393 56.98 59.2765 54.4766 59.2765Z" fill="#267A85"/>
<path d="M47.0356 17.2194H32.9647C31.8943 17.2194 31.0138 16.3389 31.0138 15.2685V13.3521C31.0138 12.2817 31.8943 11.4012 32.9647 11.4012H34.9329L35.4854 9.77828C35.5717 8.77692 36.4004 8 37.4191 8H42.5813C43.5999 8 44.4286 8.79418 44.5149 9.77828L45.0674 11.4012H47.0356C48.106 11.4012 48.9865 12.2817 48.9865 13.3521V15.2685C48.9865 16.3389 48.106 17.2194 47.0356 17.2194ZM32.9647 13.1277C32.8439 13.1277 32.7403 13.2313 32.7403 13.3521V15.2685C32.7403 15.3894 32.8439 15.493 32.9647 15.493H47.0356C47.1565 15.493 47.26 15.3894 47.26 15.2685V13.3521C47.26 13.2313 47.1565 13.1277 47.0356 13.1277H44.2387C43.9452 13.1277 43.6862 12.9896 43.5308 12.7478C43.3754 12.5061 43.3409 12.2126 43.4445 11.9537L42.8575 10.2272C42.823 10.1408 42.8057 10.0373 42.8057 9.95093C42.8057 9.83008 42.7021 9.72649 42.5813 9.72649H37.4191C37.2982 9.72649 37.1946 9.83008 37.1946 9.95093C37.1946 10.0373 37.1774 10.1408 37.1428 10.2272L36.5558 11.9537C36.6594 12.2126 36.6249 12.5234 36.4695 12.7478C36.3141 12.9896 36.0379 13.1277 35.7616 13.1277H32.9647Z" fill="#267A85"/>
<path d="M40.6993 32.4642H39.3181C38.4548 32.4642 37.747 31.7563 37.747 30.8931V29.6672H36.5212C35.6579 29.6672 34.9501 28.9594 34.9501 28.0961V26.715C34.9501 25.8517 35.6579 25.1438 36.5212 25.1438H37.747V23.918C37.747 23.0548 38.4548 22.3469 39.3181 22.3469H40.6993C41.5625 22.3469 42.2704 23.0548 42.2704 23.918V25.1438H43.4962C44.3594 25.1438 45.0673 25.8517 45.0673 26.715V28.0961C45.0673 28.9594 44.3594 29.6672 43.4962 29.6672H42.2704V30.8931C42.2704 31.7563 41.5625 32.4642 40.6993 32.4642ZM39.4562 30.7377H40.5439V28.7867C40.5439 28.3033 40.9237 27.9235 41.4071 27.9235H43.3581V26.8358H41.4071C40.9237 26.8358 40.5439 26.456 40.5439 25.9726V24.0562H39.4562V26.0071C39.4562 26.4905 39.0764 26.8703 38.593 26.8703H36.642V27.958H38.593C39.0764 27.958 39.4562 28.3379 39.4562 28.8213V30.7377Z" fill="#267A85"/>
<path d="M46.2759 39.6294H33.7243C33.2409 39.6294 32.8611 39.2495 32.8611 38.7661C32.8611 38.2827 33.2409 37.9029 33.7243 37.9029H46.2759C46.7593 37.9029 47.1391 38.2827 47.1391 38.7661C47.1391 39.2495 46.7593 39.6294 46.2759 39.6294Z" fill="#267A85"/>
<path d="M42.9265 42.4606H37.0737C36.5903 42.4606 36.2104 42.0808 36.2104 41.5974C36.2104 41.114 36.5903 40.7342 37.0737 40.7342H42.9265C43.4099 40.7342 43.7897 41.114 43.7897 41.5974C43.7897 42.0808 43.4099 42.4606 42.9265 42.4606Z" fill="#267A85"/>
<path d="M49.9358 46.3107H30.0639C29.5805 46.3107 29.2007 45.9309 29.2007 45.4475C29.2007 44.9641 29.5805 44.5842 30.0639 44.5842H49.9358C50.4192 44.5842 50.7991 44.9641 50.7991 45.4475C50.7991 45.9309 50.4192 46.3107 49.9358 46.3107Z" fill="#267A85"/>
<path d="M49.6252 50.1608H30.3748C29.8914 50.1608 29.5116 49.781 29.5116 49.2976C29.5116 48.8141 29.8914 48.4343 30.3748 48.4343H49.6252C50.1086 48.4343 50.4884 48.8141 50.4884 49.2976C50.4884 49.781 50.1086 50.1608 49.6252 50.1608Z" fill="#267A85"/>
</svg>
