<svg width="85" height="70" viewBox="0 0 74 61" fill="none" xmlns="http://www.w3.org/2000/svg">
<path d="M71.0639 49.1654C67.4389 54.9498 55.5924 58.4881 45.0356 58.3555C34.4789 58.2229 25.1477 54.4228 18.4426 50.4021C11.6712 46.3425 7.45951 42.0233 4.5798 37.3384C1.70009 32.6535 0.216541 27.5996 2.03124 22.884C3.84812 18.2107 9.02742 13.8724 15.7749 10.0041C22.5866 6.13261 30.9642 2.68893 41.0085 1.61838C51.1147 0.502211 62.9516 1.75585 67.3092 6.40673C71.7308 11.0543 68.6752 19.1414 69.4136 27.2019C70.2184 35.3014 74.753 43.3776 71.0639 49.1654Z" fill="#FCF5EF"/>
<path d="M53.9455 52.1221H28.0545C23.0686 52.1221 19 48.0683 19 43.0676V42.4462C19 37.4603 23.0538 33.3917 28.0545 33.3917H53.9455C58.9314 33.3917 63 37.4455 63 42.4462V43.0676C62.9852 48.0683 58.9314 52.1221 53.9455 52.1221ZM28.0545 34.886C23.8823 34.886 20.4795 38.2888 20.4795 42.461V43.0824C20.4795 47.2545 23.8675 50.6574 28.0545 50.6574H53.9455C58.1177 50.6574 61.5205 47.2545 61.5205 43.0824V42.461C61.5205 38.2888 58.1177 34.886 53.9455 34.886H28.0545Z" fill="#267A85"/>
<path d="M41.0001 52.122C40.5859 52.122 40.2604 51.7965 40.2604 51.3822V34.1462C40.2604 33.7319 40.5859 33.4064 41.0001 33.4064C41.4144 33.4064 41.7399 33.7319 41.7399 34.1462V51.397C41.7399 51.7965 41.3996 52.122 41.0001 52.122Z" fill="#267A85"/>
<path d="M24.1932 43.5113C23.779 43.5113 23.4535 43.1858 23.4535 42.7716C23.4535 40.0641 25.6579 37.8596 28.3654 37.8596H33.3217C33.7359 37.8596 34.0614 38.1851 34.0614 38.5994C34.0614 39.0137 33.7359 39.3391 33.3217 39.3391H28.3654C26.4716 39.3391 24.933 40.8778 24.933 42.7716C24.933 43.171 24.5927 43.5113 24.1932 43.5113Z" fill="#267A85"/>
<path d="M32.3006 22.7986C30.4068 22.7986 28.5131 22.0736 27.0632 20.6385C24.1782 17.7535 24.1782 13.0487 27.0632 10.1637C29.9482 7.27872 34.6529 7.27872 37.5379 10.1637C40.423 13.0487 40.423 17.7535 37.5379 20.6385C36.088 22.0736 34.1943 22.7986 32.3006 22.7986ZM32.3006 9.45357C30.7767 9.45357 29.2676 10.0306 28.1136 11.1846C25.8056 13.4926 25.8056 17.2653 28.1136 19.5733C30.4216 21.8813 34.1943 21.8813 36.5023 19.5733C38.8103 17.2653 38.8103 13.4926 36.5023 11.1846C35.3335 10.0454 33.8244 9.45357 32.3006 9.45357Z" fill="#267A85"/>
<path d="M38.973 16.1261H25.6281C25.2138 16.1261 24.8883 15.8006 24.8883 15.3863C24.8883 14.9721 25.2138 14.6466 25.6281 14.6466H38.973C39.3873 14.6466 39.7128 14.9721 39.7128 15.3863C39.7128 15.8006 39.3725 16.1261 38.973 16.1261Z" fill="#267A85"/>
<path d="M52.037 25.7428C47.8649 25.7428 44.61 23.9083 44.61 21.5559C44.61 19.2035 47.8797 17.3689 52.037 17.3689C56.1944 17.3689 59.4641 19.2035 59.4641 21.5559C59.4641 23.9083 56.2092 25.7428 52.037 25.7428ZM52.037 18.8484C48.5306 18.8484 46.0895 20.2687 46.0895 21.5559C46.0895 22.843 48.5306 24.2633 52.037 24.2633C55.5434 24.2633 57.9846 22.843 57.9846 21.5559C57.9994 20.2687 55.5582 18.8484 52.037 18.8484Z" fill="#267A85"/>
<path d="M46.9772 24.5444C46.6961 24.5444 46.4298 24.3817 46.3114 24.1153C46.1339 23.7455 46.2966 23.3016 46.6665 23.1241L56.5199 18.4637C56.8898 18.2862 57.3336 18.4489 57.5111 18.8188C57.6887 19.1887 57.5259 19.6325 57.1561 19.81L47.2879 24.4704C47.1843 24.5296 47.0808 24.5444 46.9772 24.5444Z" fill="#267A85"/>
<path d="M52.037 29.1899C47.8649 29.1899 44.61 27.3553 44.61 25.0029C44.61 24.9881 44.61 24.9586 44.61 24.9438C44.61 24.929 44.61 24.9142 44.61 24.8846V21.8072C44.61 21.393 44.9355 21.0675 45.3497 21.0675C45.764 21.0675 46.0895 21.393 46.0895 21.8072V24.8846C46.0895 24.8994 46.0895 24.9142 46.0895 24.929C46.0895 24.9438 46.0895 24.9586 46.0895 24.9733C46.0895 24.9881 46.0895 25.0029 46.0895 25.0177C46.1043 26.2901 48.5454 27.7104 52.037 27.7104C55.5286 27.7104 57.9698 26.2901 57.9846 25.0177C57.9846 25.0029 57.9846 24.9881 57.9846 24.9733C57.9846 24.9586 57.9846 24.9438 57.9846 24.929C57.9846 24.9142 57.9846 24.8994 57.9846 24.8846V21.7185C57.9846 21.3042 58.3101 20.9787 58.7243 20.9787C59.1386 20.9787 59.4641 21.3042 59.4641 21.7185V24.8994C59.4641 24.9142 59.4641 24.9438 59.4641 24.9586C59.4641 24.9734 59.4641 25.0029 59.4641 25.0177C59.4788 27.3553 56.2092 29.1899 52.037 29.1899Z" fill="#267A85"/>
</svg>
