<svg width="85" height="70" viewBox="0 0 77 70" fill="none" xmlns="http://www.w3.org/2000/svg">
<path d="M71.0639 56.1654C67.4389 61.9498 55.5924 65.4881 45.0356 65.3555C34.4789 65.2229 25.1477 61.4228 18.4426 57.4021C11.6712 53.3425 7.45951 49.0233 4.5798 44.3384C1.70009 39.6535 0.216541 34.5996 2.03124 29.884C3.84812 25.2107 9.02742 20.8724 15.7749 17.0041C22.5866 13.1326 30.9642 9.68893 41.0085 8.61838C51.1147 7.50221 62.9516 8.75585 67.3092 13.4067C71.7308 18.0543 68.6752 26.1414 69.4136 34.2019C70.2184 42.3014 74.753 50.3776 71.0639 56.1654Z" fill="#FCF5EF"/>
<path d="M25.229 52.4999H20.854C20.7349 52.5001 20.6175 52.471 20.5123 52.4153C20.407 52.3595 20.3169 52.2789 20.25 52.1803C20.1831 52.0817 20.1414 51.9683 20.1284 51.8499C20.1155 51.7314 20.1318 51.6117 20.1759 51.501L21.2332 48.8541H18.6665C18.5508 48.8536 18.4369 48.8255 18.3342 48.7723C18.2315 48.719 18.143 48.6421 18.0759 48.5479C18.0081 48.4544 17.9635 48.3461 17.9458 48.232C17.9281 48.1179 17.9377 48.0013 17.9738 47.8916L19.4321 43.5166C19.4811 43.3718 19.5743 43.246 19.6986 43.157C19.8229 43.068 19.972 43.0204 20.1249 43.0208H23.2749L24.5509 39.8343C24.6049 39.6986 24.6985 39.5823 24.8194 39.5004C24.9403 39.4185 25.083 39.3748 25.229 39.3749H29.604C29.7231 39.3748 29.8405 39.4039 29.9458 39.4596C30.0511 39.5153 30.1411 39.596 30.208 39.6946C30.2749 39.7931 30.3167 39.9066 30.3296 40.025C30.3425 40.1434 30.3262 40.2632 30.2821 40.3739L29.2249 43.0208H31.7915C31.9072 43.0213 32.0211 43.0494 32.1238 43.1026C32.2265 43.1559 32.315 43.2328 32.3821 43.327C32.4499 43.4205 32.4945 43.5288 32.5122 43.6428C32.53 43.7569 32.5204 43.8736 32.4842 43.9833L31.0259 48.3583C30.977 48.5031 30.8838 48.6289 30.7595 48.7179C30.6352 48.8068 30.486 48.8545 30.3332 48.8541H27.1832L25.9071 52.0406C25.8531 52.1762 25.7596 52.2926 25.6387 52.3745C25.5178 52.4564 25.3751 52.5001 25.229 52.4999ZM21.9332 51.0416H24.7332L26.0092 47.8551C26.0633 47.7195 26.1568 47.6032 26.2777 47.5212C26.3986 47.4393 26.5413 47.3956 26.6874 47.3958H29.8082L30.778 44.4791H28.1457C28.0266 44.4792 27.9092 44.4501 27.8039 44.3944C27.6986 44.3387 27.6086 44.258 27.5417 44.1595C27.4748 44.0609 27.433 43.9475 27.4201 43.829C27.4072 43.7106 27.4235 43.5908 27.4676 43.4801L28.5249 40.8333H25.7249L24.4488 44.0197C24.3948 44.1554 24.3012 44.2717 24.1803 44.3536C24.0594 44.4355 23.9167 44.4792 23.7707 44.4791H20.6499L19.6801 47.3958H22.3124C22.4315 47.3957 22.5488 47.4247 22.6541 47.4804C22.7594 47.5362 22.8494 47.6168 22.9164 47.7154C22.9833 47.814 23.025 47.9274 23.0379 48.0458C23.0508 48.1643 23.0346 48.2841 22.9905 48.3947L21.9332 51.0416Z" fill="#267A85"/>
<path d="M63.1457 43.75H41.2707C41.1454 43.7503 41.0222 43.7182 40.9128 43.657C40.8035 43.5957 40.7118 43.5074 40.6466 43.4004C40.5814 43.2934 40.5448 43.1714 40.5405 43.0461C40.5361 42.9209 40.5641 42.7967 40.6218 42.6854L42.0801 39.8635C42.1417 39.7446 42.2348 39.645 42.3493 39.5756C42.4638 39.5061 42.5952 39.4695 42.7291 39.4698H64.6041C64.7287 39.4703 64.8511 39.5028 64.9596 39.564C65.0681 39.6253 65.1591 39.7134 65.2238 39.8198C65.2878 39.9306 65.3215 40.0564 65.3215 40.1844C65.3215 40.3124 65.2878 40.4381 65.2238 40.549L63.7655 43.3781C63.7034 43.4886 63.6136 43.581 63.5049 43.6463C63.3963 43.7115 63.2724 43.7472 63.1457 43.75ZM42.4666 42.2917H62.7009L63.4301 40.9281H43.1738L42.4666 42.2917Z" fill="#267A85"/>
<path d="M60.229 49.5833H39.0832C38.8898 49.5833 38.7043 49.5065 38.5676 49.3697C38.4308 49.233 38.354 49.0475 38.354 48.8541C38.354 48.6607 38.4308 48.4753 38.5676 48.3385C38.7043 48.2018 38.8898 48.1249 39.0832 48.1249H60.229C60.4224 48.1249 60.6079 48.2018 60.7446 48.3385C60.8813 48.4753 60.9582 48.6607 60.9582 48.8541C60.9582 49.0475 60.8813 49.233 60.7446 49.3697C60.6079 49.5065 60.4224 49.5833 60.229 49.5833Z" fill="#267A85"/>
<path d="M53.6666 52.5H37.6249C37.4315 52.5 37.2461 52.4231 37.1093 52.2864C36.9726 52.1496 36.8958 51.9642 36.8958 51.7708C36.8958 51.5774 36.9726 51.3919 37.1093 51.2552C37.2461 51.1184 37.4315 51.0416 37.6249 51.0416H53.6666C53.86 51.0416 54.0454 51.1184 54.1822 51.2552C54.3189 51.3919 54.3958 51.5774 54.3958 51.7708C54.3958 51.9642 54.3189 52.1496 54.1822 52.2864C54.0454 52.4231 53.86 52.5 53.6666 52.5Z" fill="#267A85"/>
<path d="M73.1281 32.2437C72.9251 31.9684 72.6604 31.7444 72.3552 31.5899C72.05 31.4354 71.7128 31.3547 71.3708 31.3541H66.9958L70.576 25.1562C70.6242 25.073 70.6554 24.981 70.668 24.8857C70.6805 24.7903 70.6741 24.6934 70.649 24.6006C70.6239 24.5077 70.5807 24.4208 70.5219 24.3447C70.463 24.2686 70.3897 24.2049 70.3062 24.1572L43.7864 8.84475C43.7032 8.79654 43.6112 8.76526 43.5159 8.75273C43.4205 8.74021 43.3236 8.74667 43.2308 8.77174C43.1379 8.79682 43.0509 8.84002 42.9748 8.89885C42.8988 8.95768 42.8351 9.03099 42.7874 9.11454L35.0364 22.6041H29.6041V19.6875C29.6041 19.1073 29.3736 18.5509 28.9634 18.1407C28.5532 17.7304 27.9968 17.5 27.4166 17.5H17.2083C16.6281 17.5 16.0717 17.7304 15.6615 18.1407C15.2512 18.5509 15.0208 19.1073 15.0208 19.6875V22.6041H13.5624C12.5955 22.6041 11.6682 22.9882 10.9844 23.672C10.3007 24.3557 9.91659 25.283 9.91659 26.25V57.6041C9.87534 57.9973 9.92242 58.3947 10.0544 58.7673C10.1864 59.1399 10.4 59.4784 10.6795 59.7579C10.959 60.0374 11.2975 60.251 11.6701 60.383C12.0427 60.515 12.4401 60.562 12.8333 60.5208H63.1458C65.1801 60.5208 65.6541 59.0625 66.0624 57.8229L73.4562 34.1979C73.5591 33.8693 73.5831 33.5211 73.5261 33.1815C73.4691 32.8419 73.3327 32.5206 73.1281 32.2437ZM43.7281 10.4781L68.9791 25.0614L65.3333 31.3541H31.6676L43.7281 10.4781ZM16.4791 19.6875C16.4791 19.4941 16.5559 19.3086 16.6927 19.1719C16.8294 19.0351 17.0149 18.9583 17.2083 18.9583H27.4166C27.61 18.9583 27.7954 19.0351 27.9322 19.1719C28.0689 19.3086 28.1458 19.4941 28.1458 19.6875V22.6041H16.4791V19.6875ZM13.5624 24.0625H34.1978L29.9833 31.3541H20.8103C20.0345 31.3541 19.2788 31.6015 18.6533 32.0605C18.0278 32.5195 17.565 33.1661 17.3322 33.9062L11.3749 52.85V26.25C11.3749 25.6698 11.6054 25.1134 12.0156 24.7032C12.4259 24.2929 12.9823 24.0625 13.5624 24.0625ZM72.0635 33.7604L64.6406 57.3854C64.2103 58.7416 64.0208 59.0625 63.1822 59.0625H12.8333C11.8197 59.0625 11.3749 58.6833 11.3749 57.7135L18.7176 34.3437C18.8576 33.8987 19.1361 33.51 19.5126 33.2346C19.8891 32.9591 20.3438 32.8112 20.8103 32.8125H71.3708C71.488 32.807 71.6049 32.83 71.7114 32.8794C71.818 32.9288 71.911 33.0032 71.9826 33.0963C72.0541 33.1893 72.1022 33.2983 72.1226 33.4139C72.1431 33.5296 72.1353 33.6484 72.0999 33.7604H72.0635Z" fill="#267A85"/>
<path d="M57.3124 29.9833C57.1846 29.9842 57.0589 29.9515 56.9478 29.8885L42.4082 21.5031C42.3253 21.4548 42.2527 21.3907 42.1946 21.3143C42.1364 21.238 42.094 21.1509 42.0696 21.0581C42.0452 20.9653 42.0394 20.8686 42.0524 20.7735C42.0655 20.6785 42.0972 20.5869 42.1457 20.5041C42.2431 20.3386 42.4019 20.2181 42.5876 20.169C42.7733 20.1198 42.9708 20.1459 43.1374 20.2416L57.6624 28.627C57.8292 28.7232 57.9511 28.8815 58.0017 29.0673C58.0522 29.253 58.0272 29.4513 57.9322 29.6187C57.8692 29.7278 57.779 29.8188 57.6703 29.8827C57.5617 29.9466 57.4384 29.9813 57.3124 29.9833Z" fill="#267A85"/>
<path d="M58.5884 24.8353C58.4607 24.8362 58.335 24.8035 58.2238 24.7405L49.379 19.6363C49.2961 19.5881 49.2235 19.5239 49.1654 19.4476C49.1073 19.3712 49.0648 19.2841 49.0404 19.1913C49.016 19.0985 49.0102 19.0018 49.0233 18.9068C49.0363 18.8117 49.068 18.7201 49.1165 18.6374C49.2139 18.4718 49.3727 18.3514 49.5584 18.3022C49.7441 18.2531 49.9417 18.2792 50.1082 18.3749L58.953 23.479C59.1198 23.5752 59.2418 23.7335 59.2923 23.9192C59.3428 24.105 59.3179 24.3033 59.2228 24.4707C59.1585 24.582 59.066 24.6743 58.9546 24.7383C58.8432 24.8023 58.7169 24.8358 58.5884 24.8353Z" fill="#267A85"/>
<path d="M49.7947 29.8958C49.6669 29.8967 49.5412 29.864 49.4301 29.801L40.5853 24.6969C40.4266 24.596 40.313 24.4377 40.2683 24.255C40.2235 24.0723 40.2511 23.8794 40.3452 23.7166C40.4393 23.5538 40.5927 23.4336 40.7733 23.3812C40.9539 23.3288 41.1478 23.3482 41.3145 23.4354L50.1593 28.5396C50.2961 28.6208 50.4027 28.7445 50.4626 28.8919C50.5226 29.0393 50.5327 29.2023 50.4914 29.356C50.4501 29.5097 50.3596 29.6456 50.2338 29.7431C50.108 29.8406 49.9538 29.8942 49.7947 29.8958Z" fill="#267A85"/>
</svg>
