<svg width="38" height="38" viewBox="0 0 38 38" fill="none" xmlns="http://www.w3.org/2000/svg">
<rect opacity="0.5" width="38" height="38" rx="8" fill="#B5EBAA"/>
<path d="M23.2829 11.6678L22.8116 5.61892L26.9085 4.66892C27.3984 4.55389 27.7546 5.14021 27.4503 5.55584C26.6599 6.6283 26.3148 9.13689 27.2648 11.3004L23.2829 11.6678Z" fill="#FFFF76"/>
<path d="M23.435 6.07548L23.8209 11.0296L26.452 10.7884C25.7914 8.66943 26.1365 6.41689 26.9418 5.26279L23.435 6.07548ZM23.2828 12.2505C23.1455 12.2505 23.0119 12.2022 22.908 12.1132C22.7893 12.013 22.7151 11.8683 22.7002 11.7124L22.2289 5.66728C22.2067 5.37782 22.3996 5.11806 22.6817 5.05126L26.7748 4.10126C27.2313 3.99364 27.6914 4.1829 27.9549 4.57626C28.2258 4.98447 28.2109 5.50771 27.9215 5.90107C27.2943 6.75458 26.9047 9.02197 27.8027 11.063C27.877 11.2337 27.8658 11.4341 27.7693 11.5936C27.6729 11.7532 27.5059 11.8608 27.3203 11.8794L23.3385 12.2505H23.2828Z" fill="#FEC43C"/>
<path d="M23.4481 23.7482C28.554 20.971 28.8493 13.866 27.5721 12.4537L24.4827 11.6835C22.009 16.6046 17.0574 20.1278 8.47676 16.363C7.97352 16.1419 7.39499 16.4375 7.36385 17.0072C7.13055 20.9801 14.2457 28.751 23.4481 23.7482Z" fill="#DEF38C"/>
<path d="M22.1046 23.7713L22.1082 23.7722L22.1046 23.7713ZM6.85009 16.9083C6.7853 16.8921 6.72593 16.9003 6.67642 16.93C6.63055 16.9606 6.60447 17.0039 6.60361 17.0687C6.50654 18.7158 7.93573 21.4357 10.772 23.2367C12.6844 24.4478 16.6636 26.0671 21.8226 23.2611C25.0085 21.5275 25.8974 18.1464 26.1324 16.7746C26.4525 14.9077 26.1978 13.5209 25.8807 12.9982L23.4394 12.3895C21.6648 15.6722 17.8244 19.9849 10.3088 18.1149C9.24662 17.85 8.10873 17.4592 6.89514 16.9272C6.88253 16.9164 6.86453 16.9119 6.85013 16.9083H6.85009ZM13.4953 25.6596C12.0874 25.3086 10.9503 24.7306 10.1444 24.2199C7.27845 22.4001 5.29736 19.3628 5.43537 16.9992C5.46298 16.551 5.69043 16.1602 6.06471 15.9323C6.4525 15.6962 6.9412 15.6689 7.36521 15.8549C16.1907 19.7267 20.5253 15.5946 22.6108 11.4486C22.7375 11.201 23.0138 11.0748 23.2766 11.1404L26.3661 11.9106C26.4777 11.9385 26.5812 11.9987 26.6587 12.0869C27.3927 12.9009 27.646 14.8611 27.2846 16.9701C27.0227 18.5111 26.0189 22.3072 22.3777 24.2868C18.8472 26.2061 15.8069 26.236 13.4952 25.6596H13.4953Z" fill="#6BD755"/>
<path d="M31.0577 22.9302C32.9466 15.9054 30.4009 9.84542 27.0833 10.3427L24.9272 11.6304C25.3577 13.9794 25.5618 25.4351 11.6643 29.9735C11.219 30.1183 10.989 30.6118 11.2339 31.0274C13.2266 34.4341 28.2448 33.4062 31.0577 22.9302Z" fill="white"/>
<path d="M32.387 22.9302C34.2759 15.9054 31.7302 9.84542 28.4126 10.3427L26.2566 11.6304C26.687 13.9794 26.8911 25.4351 12.9937 29.9735C12.5484 30.1183 12.3183 30.6118 12.5632 31.0274C14.556 34.4341 29.5742 33.4062 32.387 22.9302Z" fill="#DEF38C"/>
<path d="M25.1902 11.8796C25.7358 16.0098 24.2848 26.3003 11.4672 30.4825C11.4078 30.5011 11.3633 30.5419 11.3485 30.5864C11.3373 30.6198 11.3373 30.6495 11.3596 30.6829C11.9459 31.6848 14.5436 32.4827 18.1914 31.9891C22.9266 31.3509 28.5449 28.5825 30.1184 22.7266C31.4766 17.6761 30.4338 13.5124 28.8938 11.7868C28.467 11.3118 27.7916 10.7737 26.9047 10.8554L25.1902 11.8796ZM16.0354 33.3102C13.2744 33.3102 11.111 32.5681 10.3502 31.2766C10.1498 30.9389 10.1164 30.5345 10.2537 30.1708C10.3985 29.7886 10.7065 29.4954 11.1035 29.3692C25.8805 24.545 23.999 11.8091 23.9768 11.6829C23.9322 11.4417 24.0436 11.2005 24.2514 11.0743L26.4074 9.7866C26.4742 9.74949 26.5447 9.72351 26.619 9.70867C27.7508 9.54168 28.8641 9.99812 29.7621 11.0038C31.5656 13.0225 32.7234 17.5276 31.2428 23.0272C29.5209 29.436 23.4498 32.4567 18.3436 33.147C17.5457 33.2583 16.7701 33.3102 16.0354 33.3102Z" fill="#6BD755"/>
<path d="M27.9878 21.4388C27.9692 21.4388 27.9469 21.4388 27.9284 21.4351C27.6055 21.4017 27.3717 21.116 27.4051 20.7931C27.4311 20.5556 27.4385 20.3181 27.4385 20.0918C27.4348 19.7689 27.6946 19.5017 28.0174 19.498C28.3514 19.5017 28.6038 19.7541 28.6075 20.0769C28.6112 20.3478 28.5964 20.6298 28.5704 20.9119C28.537 21.2162 28.2809 21.4388 27.9878 21.4388ZM20.9073 30.0445C20.6809 30.0445 20.4657 29.9109 20.3692 29.6882C20.243 29.3914 20.3803 29.0462 20.6772 28.9201C23.4901 27.714 25.7241 25.5654 26.804 23.0271C26.9301 22.7302 27.2715 22.5929 27.5721 22.7191C27.869 22.8453 28.0063 23.1904 27.8801 23.4873C26.6852 26.3039 24.2249 28.6752 21.1374 30C21.0632 30.0296 20.9852 30.0445 20.9073 30.0445ZM9.511 21.205C9.42936 21.0418 9.45163 20.8339 9.5778 20.6892C9.7485 20.4925 10.0491 20.4703 10.2458 20.641C12.1198 22.2626 14.4762 23.1236 16.7102 23.0085C16.97 22.9937 17.1926 23.1941 17.2075 23.4576C17.2223 23.7173 17.0219 23.94 16.7585 23.9548C14.2833 24.0847 11.6856 23.1384 9.62604 21.3572C9.5778 21.3089 9.53698 21.2607 9.511 21.205Z" fill="#6BD755"/>
</svg>
