<svg width="20" height="25" viewBox="0 0 20 20" fill="" xmlns="http://www.w3.org/2000/svg">
<path d="M5.45072 16.7153L5.45129 16.7153L5.45072 16.7153ZM5.45072 16.7153L5.45008 16.7154L5.45072 16.7153ZM16.4251 19.6658L19.9842 6.56754C19.9998 6.51017 20.0039 6.45029 19.9963 6.39134C19.9886 6.33239 19.9693 6.27552 19.9396 6.22398L16.4251 19.6658ZM12.834 4.84797L19.3049 6.5887L15.8491 19.3066L5.69578 16.5757L5.97135 15.5724H10.8202C11.3532 15.5724 11.8651 15.3617 12.243 14.9858C12.621 14.6097 12.834 14.0989 12.834 13.5655V4.84797ZM19.4954 6.64043C19.491 6.63925 19.4866 6.63791 19.4823 6.63643L19.4954 6.63996L19.4954 6.64043Z" stroke="" stroke-width="1.3"/>
<path d="M0.65 13.35V0.65H10.35V13.35H0.65Z" stroke="" stroke-width="1.3"/>
</svg>
