<svg width="11" height="13" viewBox="0 0 11 13" fill="none" xmlns="http://www.w3.org/2000/svg">
<path d="M10.5887 9.44322L10.6029 9.45665C10.6421 9.49361 10.6733 9.53819 10.6947 9.58766C10.7161 9.63713 10.7271 9.69045 10.7271 9.74434C10.7271 9.79823 10.7161 9.85154 10.6947 9.90102C10.6733 9.95049 10.6421 9.99507 10.6029 10.032L8.45237 12.0593C8.37102 12.1361 8.26255 12.1776 8.15069 12.1746C8.03878 12.1776 7.93025 12.1361 7.84887 12.0593L6.61387 10.8951C6.57465 10.8581 6.5434 10.8135 6.52204 10.7641C6.50068 10.7146 6.48966 10.6613 6.48966 10.6074C6.48966 10.5535 6.50068 10.5002 6.52204 10.4507C6.5434 10.4012 6.57465 10.3567 6.61387 10.3197L6.62815 10.3063C6.70685 10.2321 6.81092 10.1908 6.91908 10.1908C7.02725 10.1908 7.13132 10.2321 7.21002 10.3063L8.15069 11.1929L10.0069 9.44322C10.0856 9.36902 10.1896 9.3277 10.2978 9.3277C10.406 9.3277 10.51 9.36902 10.5887 9.44322ZM8.89302 0.845581C9.75184 0.845581 10.4481 1.54182 10.4481 2.40064V7.63129C10.4481 7.74377 10.4034 7.85165 10.3239 7.93118C10.2443 8.01072 10.1365 8.0554 10.024 8.0554C9.91149 8.0554 9.80362 8.01072 9.72408 7.93118C9.64455 7.85165 9.59986 7.74377 9.59986 7.63129V2.40064C9.59986 2.30782 9.58158 2.2159 9.54606 2.13014C9.51054 2.04438 9.45847 1.96646 9.39283 1.90083C9.3272 1.83519 9.24928 1.78312 9.16352 1.7476C9.07776 1.71208 8.98584 1.6938 8.89302 1.6938H2.10731C2.01448 1.6938 1.92257 1.71208 1.83681 1.7476C1.75105 1.78312 1.67313 1.83519 1.60749 1.90083C1.54185 1.96646 1.48979 2.04438 1.45427 2.13014C1.41874 2.2159 1.40046 2.30782 1.40046 2.40064V10.6C1.40046 10.6929 1.41874 10.7848 1.45427 10.8705C1.48979 10.9563 1.54185 11.0342 1.60749 11.0999C1.67313 11.1655 1.75105 11.2176 1.83681 11.2531C1.92257 11.2886 2.01448 11.3069 2.10731 11.3069H5.21742C5.3299 11.3069 5.43778 11.3516 5.51731 11.4311C5.59685 11.5106 5.64153 11.6185 5.64153 11.731C5.64153 11.8435 5.59685 11.9514 5.51731 12.0309C5.43778 12.1104 5.3299 12.1551 5.21742 12.1551H2.10731C1.24849 12.1551 0.552246 11.4589 0.552246 10.6V2.40064C0.552246 1.54182 1.24849 0.845581 2.10731 0.845581H8.89302ZM6.06564 6.92445C6.17812 6.92445 6.28599 6.96913 6.36553 7.04867C6.44506 7.1282 6.48975 7.23608 6.48975 7.34856C6.48975 7.46104 6.44506 7.56891 6.36553 7.64845C6.28599 7.72798 6.17812 7.77266 6.06564 7.77266H3.23826C3.12578 7.77266 3.0179 7.72798 2.93837 7.64845C2.85883 7.56891 2.81415 7.46104 2.81415 7.34856C2.81415 7.23608 2.85883 7.1282 2.93837 7.04867C3.0179 6.96913 3.12578 6.92445 3.23826 6.92445H6.06564ZM7.76207 4.66255C7.87455 4.66255 7.98242 4.70723 8.06196 4.78676C8.14149 4.8663 8.18617 4.97417 8.18617 5.08665C8.18617 5.19913 8.14149 5.30701 8.06196 5.38654C7.98242 5.46608 7.87455 5.51076 7.76207 5.51076H3.23826C3.12578 5.51076 3.0179 5.46608 2.93837 5.38654C2.85883 5.30701 2.81415 5.19913 2.81415 5.08665C2.81415 4.97417 2.85883 4.8663 2.93837 4.78676C3.0179 4.70723 3.12578 4.66255 3.23826 4.66255H7.76207Z" fill="#2D2B2B"/>
</svg>
