<svg width="38" height="38" viewBox="0 0 38 38" fill="none" xmlns="http://www.w3.org/2000/svg">
<rect width="38" height="38" rx="8" fill="#FBDF5E"/>
<path d="M29.1774 24.8866L29.2056 24.9134C29.2841 24.9873 29.3466 25.0765 29.3893 25.1754C29.432 25.2744 29.454 25.381 29.454 25.4888C29.454 25.5966 29.432 25.7032 29.3893 25.8021C29.3466 25.9011 29.2841 25.9902 29.2056 26.0642L24.9046 30.1186C24.7419 30.2723 24.525 30.3552 24.3013 30.3493C24.0774 30.3553 23.8604 30.2724 23.6976 30.1186L21.2276 27.7903C21.1492 27.7164 21.0867 27.6272 21.044 27.5283C21.0012 27.4293 20.9792 27.3227 20.9792 27.2149C20.9792 27.1071 21.0012 27.0005 21.044 26.9015C21.0867 26.8026 21.1492 26.7134 21.2276 26.6395L21.2562 26.6127C21.4136 26.4643 21.6217 26.3816 21.838 26.3816C22.0544 26.3816 22.2625 26.4643 22.4199 26.6127L24.3013 28.386L28.0136 24.8866C28.171 24.7382 28.3792 24.6555 28.5955 24.6555C28.8118 24.6555 29.02 24.7382 29.1774 24.8866ZM25.7859 7.69127C27.5035 7.69127 28.896 9.08375 28.896 10.8014V21.2627C28.896 21.4877 28.8067 21.7034 28.6476 21.8625C28.4885 22.0215 28.2728 22.1109 28.0478 22.1109C27.8229 22.1109 27.6071 22.0215 27.448 21.8625C27.289 21.7034 27.1996 21.4877 27.1996 21.2627V10.8014C27.1996 10.6157 27.163 10.4319 27.092 10.2604C27.021 10.0889 26.9168 9.93303 26.7855 9.80176C26.6543 9.67048 26.4984 9.56635 26.3269 9.49531C26.1554 9.42426 25.9716 9.3877 25.7859 9.3877H12.2145C12.0288 9.3877 11.845 9.42426 11.6735 9.49531C11.502 9.56635 11.3461 9.67048 11.2149 9.80176C11.0836 9.93303 10.9795 10.0889 10.9084 10.2604C10.8374 10.4319 10.8008 10.6157 10.8008 10.8014V27.2002C10.8008 27.3858 10.8374 27.5697 10.9084 27.7412C10.9795 27.9127 11.0836 28.0686 11.2149 28.1998C11.3461 28.3311 11.502 28.4352 11.6735 28.5063C11.845 28.5773 12.0288 28.6139 12.2145 28.6139H18.4347C18.6597 28.6139 18.8754 28.7033 19.0345 28.8623C19.1936 29.0214 19.2829 29.2371 19.2829 29.4621C19.2829 29.6871 19.1936 29.9028 19.0345 30.0619C18.8754 30.221 18.6597 30.3103 18.4347 30.3103H12.2145C10.4969 30.3103 9.10437 28.9178 9.10437 27.2002V10.8014C9.10437 9.08375 10.4969 7.69127 12.2145 7.69127H25.7859ZM20.1312 19.849C20.3561 19.849 20.5719 19.9384 20.7309 20.0974C20.89 20.2565 20.9794 20.4723 20.9794 20.6972C20.9794 20.9222 20.89 21.1379 20.7309 21.297C20.5719 21.4561 20.3561 21.5454 20.1312 21.5454H14.4764C14.2514 21.5454 14.0357 21.4561 13.8766 21.297C13.7175 21.1379 13.6282 20.9222 13.6282 20.6972C13.6282 20.4723 13.7175 20.2565 13.8766 20.0974C14.0357 19.9384 14.2514 19.849 14.4764 19.849H20.1312ZM23.524 15.3252C23.749 15.3252 23.9647 15.4146 24.1238 15.5736C24.2829 15.7327 24.3722 15.9485 24.3722 16.1734C24.3722 16.3984 24.2829 16.6141 24.1238 16.7732C23.9647 16.9323 23.749 17.0216 23.524 17.0216H14.4764C14.2514 17.0216 14.0357 16.9323 13.8766 16.7732C13.7175 16.6141 13.6282 16.3984 13.6282 16.1734C13.6282 15.9485 13.7175 15.7327 13.8766 15.5736C14.0357 15.4146 14.2514 15.3252 14.4764 15.3252H23.524Z" fill="#2D2B2B"/>
</svg>
