<svg width="14" height="16" viewBox="0 0 14 16" fill="none" xmlns="http://www.w3.org/2000/svg">
<path d="M0.222168 15.1297C0.222168 15.3519 0.370293 15.5 0.592465 15.5C0.814637 15.5 0.962762 15.3519 0.962762 15.1297C0.962762 11.7964 3.66643 9.09273 6.99973 9.09273C10.333 9.09273 13.0369 11.7964 13.0369 15.1297C13.0369 15.3519 13.185 15.5 13.4072 15.5C13.6294 15.5 13.7775 15.3519 13.7775 15.1297C13.7775 12.0555 11.7034 9.46303 8.92568 8.61105C10.333 7.90737 11.2962 6.46228 11.2962 4.79625C11.2962 2.42594 9.37025 0.5 6.99973 0.5C4.62921 0.5 2.70367 2.42595 2.70367 4.79625C2.70367 6.46291 3.66664 7.90737 5.07398 8.61105C2.25931 9.42589 0.222168 12.0184 0.222168 15.1297V15.1297ZM3.44446 4.7585C3.44446 2.79563 5.03706 1.20283 6.99993 1.20283C8.96281 1.20283 10.5556 2.79645 10.5556 4.7585C10.5556 6.72055 8.96323 8.3148 6.99993 8.3148C5.03664 8.3148 3.44446 6.72222 3.44446 4.7585Z" fill="#707070"/>
</svg>
