<svg width="85" height="70" viewBox="0 0 85 70" fill="none" xmlns="http://www.w3.org/2000/svg">
<path d="M71.0639 49.1654C67.4389 54.9498 55.5924 58.4881 45.0356 58.3555C34.4789 58.2229 25.1477 54.4228 18.4426 50.4021C11.6712 46.3425 7.45951 42.0233 4.5798 37.3384C1.70009 32.6535 0.216541 27.5996 2.03124 22.884C3.84812 18.2107 9.02742 13.8724 15.7749 10.0041C22.5866 6.13261 30.9642 2.68893 41.0085 1.61838C51.1147 0.502211 62.9516 1.75585 67.3092 6.40673C71.7308 11.0543 68.6752 19.1414 69.4136 27.2019C70.2184 35.3014 74.753 43.3776 71.0639 49.1654Z" fill="#FCF5EF"/>
<path d="M51.4995 7.99997C47.4323 7.99997 43.424 9.69956 40.5357 12.5879C37.6474 9.68974 33.6391 7.99997 29.5718 7.99997C21.457 7.99997 15.0909 14.3562 15.0909 22.4809C15.0909 24.3475 15.3758 26.1355 15.9653 27.953C16.152 28.5326 16.7709 28.847 17.3407 28.6603C17.9203 28.4736 18.2347 27.8547 18.048 27.2849C17.5372 25.6836 17.2817 24.1117 17.2817 22.4809C17.2817 15.5941 22.6752 10.1908 29.5718 10.1908C33.3542 10.1908 37.2347 11.9984 39.7006 14.9162C39.9069 15.1618 40.2115 15.2994 40.5357 15.2994C40.8599 15.2994 41.1644 15.1618 41.3707 14.9162C43.8366 11.9984 47.7172 10.1908 51.4995 10.1908C58.3863 10.1908 63.7896 15.5843 63.7896 22.4809C63.7896 31.362 56.2446 38.681 43.817 49.6743C43.8071 49.6841 43.8071 49.6841 43.7973 49.694L40.5455 52.7002L37.2937 49.694C37.2839 49.6841 37.2839 49.6841 37.274 49.6743C30.3381 43.5342 25.6716 39.1624 22.3805 34.9478C22.0072 34.4762 21.3195 34.3878 20.8479 34.7612C20.3764 35.1345 20.288 35.8222 20.6613 36.2937C24.0506 40.636 28.7859 45.0864 35.82 51.3051L39.8087 54.9892C40.015 55.1857 40.2802 55.284 40.5553 55.284C40.8206 55.284 41.0858 55.1857 41.302 54.9892L45.2906 51.3051C52.256 45.1454 56.952 40.7343 60.3413 36.4411C64.2022 31.5388 66.0001 27.1081 66.0001 22.4907C65.9804 14.3562 59.6241 7.99997 51.4995 7.99997Z" fill="#267A85" stroke="#FCF5EF" stroke-width="0.25"/>
<path d="M25.151 32.148L27.8822 25.8801L34.1107 40.1646C34.1107 40.1744 34.1205 40.1744 34.1205 40.1842C34.1304 40.194 34.1304 40.2137 34.1402 40.2235C34.1402 40.2333 34.15 40.2432 34.15 40.253C34.1598 40.2726 34.1697 40.2923 34.1893 40.3119C34.1893 40.3119 34.1893 40.3217 34.1991 40.3217V40.3316L34.209 40.3414C34.2188 40.361 34.2286 40.3807 34.2483 40.3905C34.2581 40.4003 34.2679 40.4102 34.2777 40.4298C34.2875 40.4396 34.2875 40.4495 34.2974 40.4495C34.3072 40.4593 34.3072 40.4593 34.317 40.4691C34.3268 40.4789 34.3367 40.4986 34.3465 40.5084C34.3563 40.5182 34.376 40.5379 34.3858 40.5477C34.3956 40.5575 34.4054 40.5673 34.4054 40.5673L34.4153 40.5772C34.4349 40.587 34.4447 40.6066 34.4644 40.6165C34.4742 40.6263 34.484 40.6361 34.4939 40.6459C34.5037 40.6558 34.5135 40.6558 34.5233 40.6656C34.5332 40.6656 34.5332 40.6754 34.543 40.6754C34.5528 40.6852 34.5626 40.6852 34.5725 40.6951C34.5823 40.6951 34.5823 40.7049 34.5921 40.7049C34.6117 40.7147 34.6412 40.7245 34.6609 40.7442C34.6707 40.7442 34.6707 40.754 34.6805 40.754C34.7296 40.7737 34.7689 40.7933 34.8181 40.8031C34.8181 40.8031 34.8181 40.8031 34.8279 40.8031C34.8672 40.813 34.9163 40.8228 34.9556 40.8326C34.9654 40.8326 34.9752 40.8326 34.9851 40.8326C34.9949 40.8326 35.0047 40.8326 35.0145 40.8326C35.0538 40.8326 35.0833 40.8424 35.1226 40.8424C35.1717 40.8424 35.2208 40.8424 35.27 40.8326C35.2798 40.8326 35.2896 40.8326 35.2896 40.8326C35.4566 40.8031 35.6138 40.7442 35.7514 40.6459C35.7808 40.6263 35.8103 40.6066 35.8299 40.5772C35.8496 40.5575 35.8791 40.5379 35.8987 40.5084L35.9085 40.4986C35.9184 40.4888 35.9282 40.4789 35.938 40.4691C35.9478 40.4593 35.9577 40.4495 35.9675 40.4298C35.9675 40.4298 35.9675 40.42 35.9773 40.42C35.997 40.3905 36.0166 40.3709 36.0363 40.3414C36.0657 40.2824 36.105 40.2333 36.1247 40.1744L40.5947 29.9277L41.5673 32.1578C41.7441 32.5606 42.1371 32.816 42.5694 32.816H48.346C48.9453 32.816 49.4365 32.3248 49.4365 31.7255C49.4365 31.1263 48.9453 30.6351 48.346 30.6351H43.2865L41.5968 26.7643C41.5968 26.7545 41.5869 26.7447 41.5869 26.7348C41.5771 26.7152 41.5673 26.6955 41.5575 26.6857C41.5476 26.6661 41.5378 26.6563 41.528 26.6366C41.5182 26.617 41.5084 26.6071 41.4985 26.5875C41.4887 26.5678 41.4789 26.558 41.4691 26.5482C41.4592 26.5384 41.4494 26.5187 41.4396 26.5089C41.4298 26.4991 41.4199 26.4794 41.4003 26.4696C41.3905 26.4598 41.3806 26.4401 41.361 26.4303C41.3512 26.4205 41.3315 26.4008 41.3217 26.391C41.3119 26.3812 41.2922 26.3713 41.2824 26.3517C41.2726 26.3419 41.2529 26.3321 41.2431 26.3222C41.2333 26.3124 41.2136 26.3026 41.2038 26.2928C41.1842 26.2829 41.1743 26.2731 41.1547 26.2633C41.1449 26.2535 41.1252 26.2436 41.1056 26.2338C41.0859 26.224 41.0663 26.2142 41.0564 26.2043C41.0466 26.2043 41.0368 26.1945 41.027 26.1945C41.0171 26.1945 41.0171 26.1945 41.0073 26.1847C40.9877 26.1749 40.968 26.1749 40.9582 26.165C40.9385 26.1552 40.9287 26.1552 40.9091 26.1454C40.8894 26.1454 40.8796 26.1356 40.86 26.1356C40.8403 26.1356 40.8207 26.1257 40.801 26.1257C40.7912 26.1257 40.7715 26.1257 40.7617 26.1159C40.7421 26.1159 40.7224 26.1061 40.7028 26.1061C40.6929 26.1061 40.6733 26.1061 40.6635 26.1061C40.6438 26.1061 40.6242 26.1061 40.6045 26.1061C40.5849 26.1061 40.575 26.1061 40.5554 26.1061C40.5358 26.1061 40.5161 26.1061 40.4965 26.1061C40.4768 26.1061 40.467 26.1061 40.4473 26.1159C40.4277 26.1159 40.408 26.1159 40.3982 26.1257C40.3884 26.1257 40.3884 26.1257 40.3786 26.1257C40.3589 26.1257 40.3491 26.1356 40.3294 26.1356C40.3196 26.1356 40.3098 26.1454 40.2901 26.1454C40.2607 26.1552 40.241 26.165 40.2116 26.1749C40.2017 26.1749 40.2017 26.1749 40.1919 26.1847C40.1624 26.1945 40.133 26.2043 40.1133 26.224C40.1133 26.224 40.1035 26.224 40.1035 26.2338C40.074 26.2436 40.0544 26.2633 40.0249 26.2829C40.0249 26.2829 40.0151 26.2829 40.0151 26.2928C40.0052 26.3026 39.9856 26.3124 39.9758 26.3222C39.9659 26.3321 39.9561 26.3419 39.9365 26.3517C39.9365 26.3517 39.9266 26.3517 39.9266 26.3615C39.9168 26.3713 39.8972 26.3812 39.8874 26.391C39.8775 26.4008 39.8677 26.4106 39.8579 26.4205C39.8579 26.4205 39.8579 26.4205 39.8481 26.4303C39.7302 26.5384 39.6417 26.6759 39.5828 26.8233L35.1226 37.0601L28.8842 22.756C28.8842 22.7462 28.8744 22.7364 28.8744 22.7266C28.8646 22.7069 28.8548 22.6873 28.8449 22.6774C28.8351 22.6578 28.8253 22.648 28.8155 22.6381C28.8056 22.6185 28.7958 22.6087 28.786 22.589C28.7762 22.5792 28.7663 22.5596 28.7565 22.5497C28.7467 22.5399 28.7369 22.5203 28.727 22.5104C28.7172 22.5006 28.7074 22.481 28.6877 22.4711C28.6779 22.4613 28.6681 22.4417 28.6484 22.4318C28.6386 22.422 28.619 22.4024 28.6091 22.3925C28.5993 22.3827 28.5797 22.3729 28.5698 22.3532C28.56 22.3434 28.5404 22.3336 28.5306 22.3238C28.5207 22.3139 28.5011 22.3041 28.4913 22.2943C28.4716 22.2845 28.4618 22.2746 28.4421 22.2648C28.4323 22.255 28.4127 22.2452 28.393 22.2354C28.3734 22.2255 28.3537 22.2157 28.3439 22.2059C28.3341 22.2059 28.3242 22.1961 28.3144 22.1961C28.3046 22.1961 28.3046 22.1961 28.2948 22.1862C28.2751 22.1764 28.2555 22.1764 28.2457 22.1666C28.226 22.1568 28.2162 22.1568 28.1965 22.1469C28.1769 22.1371 28.1671 22.1371 28.1474 22.1371C28.1278 22.1371 28.1081 22.1273 28.0885 22.1273C28.0688 22.1273 28.059 22.1175 28.0393 22.1175C28.0197 22.1175 28 22.1076 27.9804 22.1076C27.9607 22.1076 27.9509 22.1076 27.9313 22.1076C27.9116 22.1076 27.892 22.1076 27.8723 22.1076C27.8527 22.1076 27.8429 22.1076 27.8232 22.1076C27.8036 22.1076 27.7839 22.1076 27.7643 22.1076C27.7446 22.1076 27.725 22.1076 27.7151 22.1175C27.6955 22.1175 27.6758 22.1273 27.666 22.1273C27.6464 22.1273 27.6365 22.1371 27.6169 22.1371C27.5973 22.1371 27.5776 22.1469 27.5678 22.1469C27.5481 22.1469 27.5383 22.1568 27.5187 22.1666C27.499 22.1764 27.4794 22.1764 27.4597 22.1862C27.4499 22.1862 27.4499 22.1862 27.4401 22.1961C27.4302 22.1961 27.4204 22.2059 27.4106 22.2059C27.3909 22.2157 27.3713 22.2255 27.3615 22.2354H27.3516C27.3418 22.2452 27.332 22.2452 27.3123 22.255C27.2927 22.2648 27.2829 22.2746 27.2632 22.2845C27.2632 22.2845 27.2534 22.2845 27.2534 22.2943C27.2436 22.3041 27.2338 22.3139 27.2141 22.3238C27.2043 22.3336 27.1846 22.3434 27.1748 22.3532L27.165 22.3631C27.1552 22.3729 27.1453 22.3827 27.1355 22.3925C27.1257 22.4024 27.1159 22.4122 27.106 22.422L27.0962 22.4318C27.0864 22.4417 27.0766 22.4515 27.0667 22.4613C27.0569 22.4711 27.0471 22.481 27.0373 22.4908C27.0274 22.5006 27.0274 22.5006 27.0176 22.5104C27.0078 22.5203 26.998 22.5301 26.998 22.5399C26.9881 22.5497 26.9881 22.5596 26.9783 22.5694C26.9685 22.5792 26.9685 22.589 26.9587 22.5988C26.9587 22.6087 26.9489 22.6087 26.9489 22.6185C26.939 22.6283 26.939 22.6381 26.9292 22.648C26.9292 22.648 26.9292 22.648 26.9292 22.6578C26.9194 22.6676 26.9194 22.6873 26.9096 22.6971C26.8997 22.7266 26.8801 22.756 26.8703 22.7855L23.4318 30.6645H10.0905C9.49121 30.6252 9 31.1066 9 31.7157C9 32.3248 9.49121 32.8062 10.0905 32.8062H24.1391C24.5812 32.8062 24.9742 32.5508 25.151 32.148Z" fill="#267A85" stroke="#FCF5EF" stroke-width="0.25"/>
</svg>
