<svg width="30" height="35" viewBox="0 0 30 35" fill="none" xmlns="http://www.w3.org/2000/svg">
<path d="M24.6568 15.0625C26.0714 15.0625 27.2191 16.2124 27.2191 17.627V29.5917C27.2197 29.9286 27.1538 30.2622 27.0253 30.5736C26.8968 30.885 26.7081 31.1679 26.4701 31.4063C26.2322 31.6447 25.9495 31.8338 25.6383 31.9629C25.3272 32.0919 24.9936 32.1583 24.6568 32.1583H5.85209C5.51541 32.1583 5.18204 32.092 4.87103 31.9631C4.56001 31.8342 4.27744 31.6452 4.03948 31.4071C3.80152 31.1689 3.61282 30.8862 3.48417 30.5751C3.35553 30.2639 3.28945 29.9305 3.28973 29.5938V17.6291C3.28973 16.2103 4.43538 15.0625 5.85209 15.0625H24.6568ZM24.6568 12.5002H5.85209C4.49217 12.5002 3.18793 13.0403 2.22613 14.0017C1.26432 14.9631 0.723706 16.2671 0.723145 17.627V29.5917C0.723145 30.952 1.26351 32.2566 2.22538 33.2184C3.18724 34.1803 4.49181 34.7207 5.85209 34.7207H24.6547C26.0146 34.7207 27.3188 34.1806 28.2806 33.2192C29.2424 32.2578 29.7831 30.9537 29.7836 29.5938V17.6291C29.7836 16.9556 29.651 16.2886 29.3932 15.6664C29.1354 15.0441 28.7576 14.4787 28.2814 14.0024C27.8051 13.5262 27.2397 13.1484 26.6174 12.8906C25.9952 12.6329 25.3282 12.5002 24.6547 12.5002H24.6568ZM15.2544 3.09784C16.0401 3.09784 16.818 3.25258 17.5438 3.55322C18.2696 3.85386 18.9291 4.29452 19.4846 4.85003C20.0401 5.40554 20.4808 6.06503 20.7814 6.79084C21.0821 7.51666 21.2368 8.29458 21.2368 9.08019V12.5002H9.27209V9.08019C9.27209 7.49357 9.90237 5.97194 11.0243 4.85003C12.1462 3.72812 13.6678 3.09784 15.2544 3.09784ZM15.2544 0.535486C12.988 0.535485 10.8145 1.43566 9.21167 3.03804C7.60889 4.64043 6.70818 6.8138 6.70762 9.08019V15.0625H23.8034V9.08443C23.8042 7.96133 23.5837 6.84908 23.1544 5.81126C22.7251 4.77344 22.0955 3.8304 21.3016 3.03605C20.5076 2.24171 19.5649 1.61163 18.5273 1.18184C17.4897 0.752047 16.3775 0.530972 15.2544 0.53125V0.535486ZM15.2544 27.4571C14.9146 27.4571 14.5888 27.3222 14.3485 27.0819C14.1082 26.8416 13.9733 26.5157 13.9733 26.176V21.047C13.9733 20.7072 14.1082 20.3814 14.3485 20.1411C14.5888 19.9008 14.9146 19.7658 15.2544 19.7658C15.5942 19.7658 15.9201 19.9008 16.1604 20.1411C16.4006 20.3814 16.5356 20.7072 16.5356 21.047V26.176C16.5356 26.8832 15.9639 27.455 15.2544 27.455V27.4571Z" fill="black"/>
</svg>
