<?xml version="1.0" encoding="utf-8"?>
<!-- Generator: Adobe Illustrator 25.2.0, SVG Export Plug-In . SVG Version: 6.00 Build 0)  -->
<svg version="1.1" id="Layer_1" xmlns="http://www.w3.org/2000/svg" xmlns:xlink="http://www.w3.org/1999/xlink" x="0px" y="0px"
	 viewBox="0 0 133 133" style="enable-background:new 0 0 133 133;" xml:space="preserve">
<style type="text/css">
	.st0{fill:#4A7DF9;}
	.st1{fill:#FFFFFF;}
</style>
<circle class="st0" cx="66.5" cy="66.5" r="66.5"/>
<g>
	<path class="st1" d="M38.6,76.6H26.2V53.3h-5.9v28.2h18.2V76.6z M60.7,76.6H48v-7.1H60V65H48v-6.8h12.8v-4.9H42.1v28.2h18.7V76.6z
		 M83.5,81.5h6.3l-9.8-28.2H73l-9.8,28.2h6.1l2.1-6.8h9.9L83.5,81.5z M76.3,58.7h0.1L80,70.2h-7.4L76.3,58.7z M92.6,53.3v28.2h5.9
		v-8.9h5.3c5.9,0,10.1-3.9,10.1-9.6c0-5.8-4-9.6-9.8-9.6H92.6z M98.5,58h4c3.4,0,5.3,1.8,5.3,5c0,3.2-2,5-5.4,5h-4V58z"/>
</g>
</svg>
