<?xml version="1.0" encoding="utf-8"?>
<!-- Generator: Adobe Illustrator 25.2.0, SVG Export Plug-In . SVG Version: 6.00 Build 0)  -->
<svg version="1.1" id="Layer_1" xmlns="http://www.w3.org/2000/svg" xmlns:xlink="http://www.w3.org/1999/xlink" x="0px" y="0px"
	 viewBox="0 0 1024 1024" style="enable-background:new 0 0 1024 1024;" xml:space="preserve">
<style type="text/css">
	.st0{fill:#4A7DF9;}
	.st1{fill:#FFFFFF;}
</style>
<rect class="st0" width="1024" height="1024"/>
<g>
	<path class="st1" d="M297,589.9h-94.9V410.5h-45.4v217H297V589.9z M467.6,589.9h-98.3v-54.7h92.8v-34.9h-92.8v-52.3h98.3v-37.4
		H323.9v217h143.8V589.9z M642.5,627.5h48.3l-75.5-217h-53.4l-75.3,217h46.6l16.5-52.6H626L642.5,627.5z M587.3,452h1.1l27.8,88.9
		h-56.7L587.3,452z M713.1,410.5v217h45.4v-68.4h40.6c45.7,0,77.4-29.8,77.4-74.3c0-44.7-30.7-74.3-75.2-74.3H713.1z M758.5,446.4
		h30.8c26,0,41.1,13.8,41.1,38.5c0,24.8-15.2,38.7-41.2,38.7h-30.7V446.4z"/>
</g>
</svg>
