<svg width="375" height="368" viewBox="0 0 375 368" fill="none" xmlns="http://www.w3.org/2000/svg">
<path opacity="0.1" d="M138.17 60.671C175.225 59.446 210.545 48.0665 244.22 35.6189C277.896 23.1713 311.273 9.37715 347.461 2.78129C370.727 -1.46578 397.335 -2.06311 416.078 9.80236C434.119 21.2173 439.946 40.9239 443.081 59.2081C445.438 72.9668 446.806 87.4443 440.361 100.327C435.875 109.267 427.914 116.784 422.406 125.349C403.248 155.149 416.791 191.9 437.557 221.022C447.295 234.689 458.593 247.694 466.107 262.227C473.622 276.76 477.102 293.409 470.524 308.231C464.005 322.911 448.477 333.956 431.65 341.717C397.474 357.465 357.205 361.97 317.936 364.552C231.012 370.206 143.619 367.756 56.4664 365.306C24.2117 364.395 -8.18658 363.478 -39.9144 358.725C-57.5344 356.088 -75.7292 351.907 -88.5225 341.813C-104.759 328.996 -108.787 307.3 -97.9046 291.228C-79.6513 264.277 -29.1859 257.58 -16.4245 228.655C-9.40524 212.735 -16.6161 194.998 -26.823 180.232C-48.7111 148.559 -85.4094 120.768 -87.3411 84.5589C-88.6715 59.689 -71.0302 34.7887 -43.7513 23.0194C-15.1633 10.673 24.4832 12.2322 45.573 32.6373C67.2907 53.6601 105.458 61.7492 138.17 60.671Z" fill="#4A7EFB"/>
<path d="M216 67.0002L216 296.008H336.535V67.0002L216 67.0002Z" fill="#E6E6E6"/>
<path d="M329.87 289.338V73.6705L222.666 73.6705L222.666 289.338H329.87Z" fill="white"/>
<path d="M238.218 195.956V272.662H314.872V195.956H238.218Z" fill="#3F3D56"/>
<path d="M273.213 214.298C273.213 213.07 272.218 212.075 270.991 212.075C269.764 212.075 268.769 213.07 268.769 214.298C268.769 215.526 269.764 216.521 270.991 216.521C272.218 216.521 273.213 215.526 273.213 214.298Z" fill="#6C63FF"/>
<path d="M265.436 222.636C265.436 221.408 264.441 220.413 263.214 220.413C261.987 220.413 260.992 221.408 260.992 222.636C260.992 223.864 261.987 224.859 263.214 224.859C264.441 224.859 265.436 223.864 265.436 222.636Z" fill="#6C63FF"/>
<path d="M270.991 223.748C270.991 224.566 271.218 225.368 271.647 226.065C270.725 226.678 269.879 227.399 269.127 228.213C269.009 228.203 268.89 228.195 268.769 228.195C267.897 228.194 267.044 228.45 266.317 228.931C265.59 229.413 265.02 230.097 264.679 230.9C264.338 231.703 264.241 232.589 264.399 233.447C264.558 234.305 264.966 235.097 265.571 235.725C265.402 236.915 265.392 238.123 265.54 239.317C265.505 239.316 265.471 239.312 265.436 239.312C264.692 239.311 263.96 239.497 263.307 239.852C262.653 240.208 262.1 240.722 261.697 241.348C261.293 241.973 261.053 242.69 260.999 243.432C260.944 244.174 261.077 244.918 261.384 245.596C261.692 246.274 262.164 246.864 262.758 247.311C263.353 247.759 264.05 248.05 264.786 248.158C265.521 248.266 266.273 248.188 266.97 247.93C267.668 247.672 268.29 247.243 268.779 246.682C269.416 247.426 270.13 248.101 270.908 248.696C270.452 249.245 270.134 249.896 269.982 250.594C269.83 251.291 269.849 252.015 270.035 252.705C270.222 253.394 270.572 254.028 271.056 254.553C271.539 255.078 272.142 255.479 272.813 255.722C273.484 255.965 274.203 256.042 274.911 255.948C275.618 255.854 276.292 255.59 276.876 255.18C277.46 254.77 277.937 254.225 278.266 253.591C278.595 252.958 278.767 252.254 278.767 251.54L278.766 251.526C278.951 251.533 279.136 251.54 279.323 251.54C280.441 251.54 281.555 251.405 282.64 251.138C283.137 252.46 283.962 253.633 285.036 254.549C286.11 255.464 287.4 256.091 288.783 256.371C290.166 256.652 291.597 256.576 292.943 256.15C294.288 255.725 295.504 254.965 296.475 253.941C297.447 252.917 298.143 251.663 298.497 250.296C298.851 248.929 298.853 247.495 298.501 246.127C298.15 244.76 297.457 243.504 296.488 242.478C295.519 241.452 294.305 240.689 292.96 240.261C293.554 237.168 293.079 233.964 291.613 231.177C292.283 230.892 292.872 230.448 293.33 229.882C293.788 229.316 294.1 228.646 294.239 227.932C294.377 227.217 294.339 226.479 294.126 225.783C293.913 225.087 293.533 224.454 293.018 223.939C292.504 223.424 291.871 223.044 291.176 222.831C290.48 222.618 289.743 222.579 289.028 222.718C288.314 222.857 287.645 223.169 287.08 223.627C286.514 224.085 286.07 224.675 285.785 225.345C283.959 224.382 281.94 223.841 279.877 223.762L279.878 223.748C279.878 222.569 279.41 221.438 278.577 220.604C277.743 219.77 276.613 219.301 275.434 219.301C274.256 219.301 273.126 219.77 272.292 220.604C271.459 221.438 270.991 222.569 270.991 223.748H270.991Z" fill="#4A7CF9"/>
<path d="M236.552 224.86V247.094H239.885V224.86H236.552Z" fill="#E6E6E6"/>
<path d="M238.218 98.1276V174.834H314.872V98.1276L238.218 98.1276Z" fill="#3F3D56"/>
<path d="M290.21 121.917C290.21 121.365 289.762 120.917 289.21 120.917C288.658 120.917 288.21 121.365 288.21 121.917C288.21 122.47 288.658 122.918 289.21 122.918C289.762 122.918 290.21 122.47 290.21 121.917Z" fill="#4A7CF9"/>
<path d="M286.71 125.669C286.71 125.117 286.262 124.669 285.71 124.669C285.158 124.669 284.71 125.117 284.71 125.669C284.71 126.222 285.158 126.67 285.71 126.67C286.262 126.67 286.71 126.222 286.71 125.669Z" fill="#4A7CF9"/>
<path d="M289.21 126.169C289.21 126.537 289.312 126.898 289.505 127.211C289.091 127.487 288.71 127.812 288.372 128.178C288.318 128.174 288.265 128.17 288.21 128.17C287.818 128.169 287.434 128.285 287.107 128.501C286.78 128.718 286.523 129.026 286.37 129.387C286.216 129.749 286.173 130.147 286.244 130.533C286.315 130.919 286.499 131.276 286.771 131.558C286.695 132.094 286.691 132.638 286.757 133.175C286.742 133.174 286.726 133.172 286.711 133.172C286.376 133.172 286.046 133.256 285.752 133.416C285.458 133.576 285.209 133.807 285.028 134.089C284.846 134.37 284.738 134.693 284.714 135.027C284.689 135.361 284.749 135.695 284.887 136C285.026 136.305 285.238 136.571 285.506 136.772C285.773 136.974 286.087 137.105 286.418 137.153C286.749 137.202 287.087 137.167 287.401 137.05C287.715 136.934 287.995 136.741 288.215 136.489C288.502 136.824 288.823 137.128 289.173 137.396C288.968 137.642 288.825 137.935 288.756 138.249C288.688 138.563 288.696 138.889 288.78 139.199C288.864 139.509 289.022 139.795 289.239 140.031C289.457 140.267 289.728 140.448 290.03 140.557C290.332 140.666 290.656 140.701 290.974 140.659C291.293 140.616 291.596 140.498 291.859 140.313C292.122 140.129 292.336 139.883 292.484 139.598C292.632 139.313 292.71 138.997 292.71 138.675L292.709 138.669C292.792 138.672 292.876 138.675 292.96 138.675C293.463 138.675 293.964 138.614 294.453 138.494C294.676 139.089 295.047 139.617 295.531 140.029C296.014 140.441 296.594 140.723 297.217 140.849C297.839 140.975 298.483 140.941 299.089 140.75C299.694 140.559 300.241 140.216 300.678 139.756C301.116 139.295 301.429 138.73 301.588 138.115C301.747 137.5 301.748 136.855 301.59 136.239C301.432 135.624 301.12 135.059 300.684 134.597C300.248 134.135 299.701 133.792 299.096 133.599C299.364 132.208 299.15 130.766 298.49 129.512C298.792 129.384 299.057 129.184 299.263 128.929C299.469 128.674 299.609 128.373 299.672 128.051C299.734 127.73 299.717 127.398 299.621 127.084C299.525 126.771 299.354 126.486 299.123 126.255C298.891 126.023 298.606 125.852 298.293 125.756C297.98 125.66 297.649 125.643 297.327 125.705C297.006 125.768 296.705 125.908 296.45 126.114C296.196 126.32 295.996 126.586 295.868 126.887C295.046 126.454 294.138 126.211 293.209 126.175L293.21 126.169C293.21 125.638 292.999 125.129 292.624 124.754C292.249 124.379 291.74 124.168 291.21 124.168C290.68 124.168 290.171 124.379 289.796 124.754C289.421 125.129 289.21 125.638 289.21 126.169H289.21Z" fill="#4A7CF9"/>
<path d="M271.236 114.068C271.236 113.515 270.788 113.067 270.236 113.067C269.684 113.067 269.236 113.515 269.236 114.068C269.236 114.62 269.684 115.068 270.236 115.068C270.788 115.068 271.236 114.62 271.236 114.068Z" fill="#6C63FF"/>
<path d="M266.678 111.714C266.678 111.162 266.231 110.714 265.679 110.714C265.126 110.714 264.679 111.162 264.679 111.714C264.679 112.267 265.126 112.715 265.679 112.715C266.231 112.715 266.678 112.267 266.678 111.714Z" fill="#6C63FF"/>
<path d="M266.146 115.221C265.792 115.321 265.472 115.517 265.223 115.788C264.845 115.463 264.43 115.185 263.986 114.958C263.976 114.905 263.965 114.853 263.95 114.8C263.844 114.422 263.629 114.084 263.332 113.828C263.035 113.571 262.669 113.408 262.28 113.358C261.891 113.308 261.496 113.374 261.144 113.547C260.792 113.721 260.499 113.994 260.301 114.333C259.765 114.405 259.241 114.548 258.742 114.758C258.738 114.742 258.736 114.727 258.732 114.712C258.641 114.389 258.472 114.095 258.238 113.855C258.004 113.615 257.714 113.438 257.394 113.339C257.074 113.241 256.735 113.224 256.407 113.291C256.079 113.358 255.773 113.506 255.517 113.722C255.261 113.938 255.064 114.215 254.942 114.527C254.821 114.839 254.78 115.177 254.823 115.509C254.866 115.841 254.992 116.157 255.188 116.428C255.385 116.699 255.647 116.916 255.949 117.06C255.705 117.427 255.499 117.819 255.337 118.229C255.044 118.098 254.723 118.04 254.403 118.059C254.082 118.078 253.771 118.174 253.495 118.339C253.22 118.504 252.988 118.733 252.82 119.007C252.651 119.281 252.551 119.591 252.528 119.911C252.505 120.232 252.559 120.553 252.686 120.848C252.813 121.143 253.01 121.403 253.258 121.606C253.507 121.81 253.801 121.95 254.116 122.015C254.43 122.08 254.756 122.069 255.065 121.982L255.071 121.98C255.09 122.061 255.11 122.142 255.132 122.223C255.269 122.707 255.463 123.174 255.711 123.612C255.2 123.988 254.792 124.489 254.527 125.066C254.262 125.644 254.148 126.279 254.195 126.912C254.243 127.546 254.45 128.157 254.798 128.689C255.146 129.22 255.624 129.654 256.185 129.95C256.747 130.247 257.375 130.395 258.01 130.382C258.645 130.369 259.266 130.195 259.815 129.875C260.364 129.556 260.823 129.103 261.149 128.557C261.475 128.012 261.657 127.393 261.678 126.758C263.09 126.638 264.418 126.041 265.446 125.066C265.651 125.322 265.915 125.523 266.216 125.652C266.517 125.782 266.845 125.835 267.171 125.808C267.497 125.781 267.812 125.674 268.087 125.497C268.363 125.32 268.59 125.078 268.75 124.792C268.91 124.507 268.998 124.186 269.005 123.858C269.013 123.531 268.939 123.206 268.792 122.914C268.645 122.621 268.428 122.369 268.161 122.18C267.894 121.991 267.584 121.87 267.259 121.829C267.453 120.92 267.441 119.979 267.224 119.075L267.23 119.073C267.483 119.002 267.719 118.882 267.926 118.719C268.132 118.557 268.305 118.355 268.433 118.126C268.562 117.897 268.644 117.644 268.675 117.383C268.706 117.122 268.685 116.857 268.614 116.604C268.543 116.351 268.423 116.115 268.26 115.908C268.097 115.702 267.896 115.529 267.667 115.401C267.437 115.272 267.185 115.19 266.924 115.16C266.663 115.129 266.399 115.15 266.146 115.221H266.146Z" fill="#4A7CF9"/>
<path d="M257.65 152.82C257.65 152.267 257.202 151.819 256.65 151.819C256.098 151.819 255.65 152.267 255.65 152.82C255.65 153.372 256.098 153.82 256.65 153.82C257.202 153.82 257.65 153.372 257.65 152.82Z" fill="#4A7CF9"/>
<path d="M258.059 157.935C258.059 157.382 257.612 156.935 257.059 156.935C256.507 156.935 256.06 157.382 256.06 157.935C256.06 158.488 256.507 158.936 257.059 158.936C257.612 158.936 258.059 158.488 258.059 157.935Z" fill="#4A7CF9"/>
<path d="M259.788 155.686C260.06 155.934 260.395 156.102 260.756 156.171C260.68 156.664 260.663 157.164 260.705 157.66C260.666 157.697 260.627 157.734 260.59 157.774C260.326 158.064 260.152 158.425 260.091 158.813C260.03 159.201 260.085 159.598 260.248 159.955C260.411 160.312 260.676 160.613 261.009 160.821C261.342 161.028 261.729 161.133 262.121 161.122C262.465 161.54 262.863 161.91 263.305 162.222C263.294 162.234 263.282 162.244 263.271 162.255C263.045 162.502 262.885 162.802 262.805 163.128C262.725 163.453 262.727 163.793 262.813 164.117C262.898 164.441 263.063 164.738 263.293 164.981C263.523 165.225 263.811 165.406 264.129 165.51C264.447 165.613 264.787 165.635 265.116 165.573C265.445 165.511 265.753 165.368 266.012 165.156C266.271 164.944 266.473 164.67 266.599 164.36C266.725 164.05 266.771 163.713 266.733 163.38C267.174 163.394 267.615 163.361 268.048 163.283C268.092 163.601 268.212 163.904 268.398 164.166C268.583 164.429 268.829 164.642 269.115 164.789C269.4 164.936 269.717 165.012 270.038 165.011C270.359 165.009 270.675 164.931 270.959 164.781C271.244 164.632 271.488 164.416 271.671 164.152C271.854 163.888 271.971 163.584 272.012 163.265C272.053 162.947 272.017 162.623 271.906 162.321C271.796 162.019 271.614 161.749 271.377 161.532L271.372 161.528C271.431 161.469 271.489 161.409 271.546 161.347C271.885 160.976 272.178 160.564 272.419 160.122C273.008 160.358 273.648 160.44 274.278 160.36C274.908 160.28 275.508 160.042 276.02 159.667C276.533 159.292 276.942 158.793 277.209 158.217C277.476 157.64 277.593 157.005 277.547 156.371C277.502 155.738 277.296 155.126 276.95 154.593C276.604 154.061 276.128 153.625 275.567 153.327C275.006 153.029 274.379 152.878 273.744 152.889C273.109 152.9 272.487 153.073 271.937 153.39C271.09 152.254 269.882 151.44 268.512 151.082C268.621 150.773 268.652 150.442 268.603 150.118C268.554 149.794 268.426 149.487 268.231 149.224C268.035 148.961 267.779 148.75 267.483 148.61C267.187 148.469 266.862 148.403 266.534 148.418C266.207 148.433 265.889 148.528 265.607 148.695C265.326 148.862 265.089 149.095 264.918 149.375C264.748 149.654 264.648 149.972 264.629 150.299C264.61 150.626 264.671 150.953 264.807 151.25C263.933 151.566 263.141 152.073 262.489 152.735L262.484 152.73C262.29 152.553 262.063 152.415 261.816 152.325C261.569 152.236 261.307 152.196 261.044 152.207C260.782 152.219 260.524 152.283 260.286 152.394C260.048 152.506 259.834 152.663 259.657 152.857C259.48 153.051 259.343 153.279 259.253 153.526C259.164 153.773 259.124 154.036 259.136 154.299C259.149 154.561 259.212 154.819 259.324 155.057C259.436 155.295 259.593 155.509 259.788 155.686Z" fill="#4A7CF9"/>
<path d="M236.552 127.032V149.266H239.885V127.032H236.552Z" fill="#E6E6E6"/>
<path d="M126.385 192.864H65.2422V261.186H126.385V192.864Z" fill="#CCCCCC"/>
<path d="M96.6192 344.634L95.5688 358.984C95.5213 359.634 95.6133 360.286 95.8386 360.897C96.064 361.508 96.4175 362.064 96.8755 362.528C97.3334 362.991 97.8852 363.351 98.4939 363.584C99.1026 363.817 99.7541 363.917 100.405 363.878L107.781 363.431C108.122 363.41 108.455 363.315 108.756 363.151C109.057 362.987 109.317 362.759 109.52 362.483C109.722 362.207 109.861 361.89 109.927 361.554C109.993 361.218 109.984 360.872 109.901 360.54L105.807 344.175L96.6192 344.634Z" fill="#E6E6E6"/>
<path d="M158.316 353.12C166.996 355.149 173.198 358.034 177.272 361.938C178.722 363.317 180.621 364.13 182.621 364.229C185.176 364.363 187.265 364.077 188.835 363.376H188.835C189.237 363.199 189.584 362.918 189.841 362.561C190.098 362.205 190.254 361.786 190.294 361.349C190.342 360.904 190.269 360.455 190.085 360.048C189.9 359.641 189.61 359.291 189.244 359.034L168.656 344.395L159.911 347.891L157.871 349.93C157.65 350.151 157.483 350.419 157.384 350.715C157.285 351.011 157.256 351.326 157.299 351.635C157.342 351.945 157.456 352.24 157.632 352.497C157.809 352.755 158.043 352.968 158.316 353.12H158.316Z" fill="#E6E6E6"/>
<path d="M131.601 118.818L72.752 118.273C72.8999 109.708 74.8942 101.297 79.2535 93.7698C82.1165 88.8265 82.0546 83.4467 81.3647 78.9143C80.2999 71.9199 82.7759 64.7636 88.2777 60.3112C92.4823 56.9027 97.7889 55.1481 103.198 55.3779L104.341 55.4255C108.063 55.5801 111.687 56.6666 114.879 58.5854C118.071 60.5042 120.73 63.1936 122.612 66.4069C124.524 69.8372 125.295 73.7862 124.814 77.6832C124.441 81.35 125.333 85.0541 127.421 88.7935C131.023 97.0046 131.803 107.512 131.601 118.818Z" fill="#2F2E41"/>
<path d="M170.974 345.158L159.424 348.169L103.182 225.726L106.697 345.158H95.1476C82.8059 288.968 60.5238 224.119 70.5416 203.646L130.299 200.133L170.974 345.158Z" fill="#4A7CF9"/>
<path d="M102.68 98.2636C111.278 98.2636 118.247 91.2988 118.247 82.7073C118.247 74.1157 111.278 67.1509 102.68 67.1509C94.0829 67.1509 87.1133 74.1157 87.1133 82.7073C87.1133 91.2988 94.0829 98.2636 102.68 98.2636Z" fill="#FFB9B9"/>
<path d="M116.237 111.311L90.627 109.806C93.1368 104.049 94.1394 98.5055 93.1378 93.2456H112.22C112.177 97.2842 114.188 104.27 116.237 111.311Z" fill="#FFB9B9"/>
<path d="M132.306 204.649L76.0645 208.664L81.8391 109.053L91.6314 106.293L102.679 108.802L113.726 103.282L120.757 105.791L132.306 204.649Z" fill="#4A7CF9"/>
<path d="M85.6069 276.409L47.1914 267.627C58.6143 229.774 79.1933 143.175 72.5507 112.314L92.6372 103.282L85.6069 276.409Z" fill="#E6E6E6"/>
<path d="M67.0256 167.013L52.4629 157.98L64.8823 121.631C66.2675 117.88 68.9206 114.731 72.383 112.728L76.5667 110.308L74.0559 146.94L67.0256 167.013Z" fill="#E6E6E6"/>
<path d="M165.7 268.129C153.575 275.139 123.267 279.047 109.96 274.151C108.981 239.95 107.06 143.207 113.224 102.278L135.319 111.311L133.311 138.409C122.747 161.59 153.421 242.33 165.7 268.129Z" fill="#E6E6E6"/>
<path d="M163.943 162.497L150.384 157.98L132.307 137.406L135.32 111.311L165.449 153.464L163.943 162.497Z" fill="#E6E6E6"/>
<path d="M121.452 182.029C121.674 183.002 122.273 183.847 123.118 184.38C123.962 184.912 124.983 185.088 125.958 184.869L137.467 182.264L135.803 174.923L124.294 177.527C123.32 177.748 122.473 178.346 121.94 179.19C121.407 180.034 121.232 181.056 121.452 182.029Z" fill="#FFB9B9"/>
<path d="M116.239 78.6928C107.592 75.1398 99.0525 74.8827 90.6284 78.191L87.1133 65.6455H119.252L116.239 78.6928Z" fill="#2F2E41"/>
<path d="M127.033 148.696H125.025C125.025 120.306 119.175 100.522 113.475 100.522L112.973 98.5146C118.085 98.5146 121.344 106.749 123.178 113.657C125.664 123.021 127.033 135.465 127.033 148.696Z" fill="#3F3D56"/>
<path d="M80.8348 141.671H78.8262C78.8262 115.671 84.7161 99.5186 93.3889 99.5186L92.8867 101.526C86.8878 101.526 80.8348 113.939 80.8348 141.671Z" fill="#3F3D56"/>
<path d="M126.029 154.217C128.803 154.217 131.051 151.97 131.051 149.198C131.051 146.427 128.803 144.18 126.029 144.18C123.256 144.18 121.008 146.427 121.008 149.198C121.008 151.97 123.256 154.217 126.029 154.217Z" fill="#3F3D56"/>
<path d="M72.8016 153.715H70.793C70.793 146.52 74.8478 140.667 79.8319 140.667V142.675C75.9553 142.675 72.8016 147.627 72.8016 153.715Z" fill="#3F3D56"/>
<path d="M88.869 153.715H86.8604C86.8604 147.627 83.7066 142.675 79.8301 142.675V140.667C84.8142 140.667 88.869 146.52 88.869 153.715Z" fill="#3F3D56"/>
<path d="M87.8661 156.224C88.9754 156.224 89.8747 155.325 89.8747 154.216C89.8747 153.108 88.9754 152.209 87.8661 152.209C86.7567 152.209 85.8574 153.108 85.8574 154.216C85.8574 155.325 86.7567 156.224 87.8661 156.224Z" fill="#3F3D56"/>
<path d="M71.7958 156.224C72.9051 156.224 73.8044 155.325 73.8044 154.216C73.8044 153.108 72.9051 152.209 71.7958 152.209C70.6864 152.209 69.7871 153.108 69.7871 154.216C69.7871 155.325 70.6864 156.224 71.7958 156.224Z" fill="#3F3D56"/>
<path d="M46.6875 135.758L59.2201 137.995L87.8649 178.697L72.6471 175.118L46.6875 135.758Z" fill="#4A7CF9"/>
<path d="M44.4659 135.26C44.2749 135.263 44.0882 135.317 43.9254 135.417C43.7625 135.517 43.6294 135.658 43.54 135.827C43.4506 135.995 43.4082 136.185 43.4172 136.376C43.4262 136.566 43.4864 136.751 43.5913 136.911L70.367 177.508C70.5164 177.735 70.7472 177.896 71.0119 177.958L83.4699 180.887C83.6799 180.937 83.9 180.921 84.101 180.843C84.302 180.764 84.4743 180.626 84.5952 180.448C84.716 180.269 84.7797 180.058 84.7777 179.842C84.7757 179.627 84.7082 179.417 84.584 179.24L55.1859 137.469C55.1062 137.355 55.0048 137.258 54.8875 137.183C54.7703 137.109 54.6395 137.058 54.5025 137.034L44.6667 135.278C44.6005 135.267 44.5333 135.26 44.4659 135.26Z" fill="#3F3D56"/>
<path d="M61.168 164.287L61.9121 171.777L73.6551 170.612C74.6491 170.514 75.5632 170.025 76.1963 169.253C76.8294 168.481 77.1296 167.489 77.031 166.495C76.9323 165.502 76.4429 164.589 75.6703 163.956C74.8976 163.323 73.9052 163.023 72.9112 163.122L61.168 164.287Z" fill="#FFB9B9"/>
<path d="M50.957 163.419C50.9741 165.973 52.0006 168.417 53.8129 170.218C55.6252 172.019 58.0763 173.032 60.6323 173.035H62.5632L63.9689 161.328L52.3297 157.141L50.957 163.419Z" fill="#E6E6E6"/>
<path d="M131.805 173.537L138.333 185.58C149.313 182.52 158.829 172.872 167.96 161.493L165.45 153.464L149.883 157.478L131.805 173.537Z" fill="#E6E6E6"/>
</svg>
