<svg width="322" height="298" viewBox="0 0 322 298" fill="none" xmlns="http://www.w3.org/2000/svg">
<path d="M208.008 247.823C181.26 251.603 158.641 248.846 134.029 246.161C109.576 243.534 83.0207 240.782 58.8897 227.267C34.8086 213.613 12.993 189.139 17.3509 169.481C21.5503 149.766 51.8733 135.006 71.8464 111.195C91.9281 87.5806 101.818 54.972 124.639 43.1836C147.618 31.452 183.687 40.5974 211.416 58.5447C239.096 76.6313 258.546 103.716 271.418 132.688C284.449 161.718 290.902 192.635 278.481 213.335C266.11 233.895 234.915 244.099 208.008 247.823Z" fill="#FCBE2D"/>
<path d="M204.94 241.327L204.938 241.327C179.32 244.947 157.502 242.557 134.005 239.983C133.034 239.877 132.06 239.77 131.083 239.664L131.083 239.664L130.449 239.595C106.158 236.986 79.9554 234.171 56.1353 220.83C44.1441 214.031 32.7243 204.541 24.8518 194.319C16.967 184.082 12.7077 173.202 14.8391 163.588L14.8399 163.584C15.8669 158.763 18.4973 154.216 22.214 149.723C25.9313 145.228 30.7128 140.814 36.0098 136.252C38.172 134.39 40.4201 132.503 42.7143 130.578C51.6373 123.091 61.2567 115.02 69.228 105.517C76.8905 96.5067 83.081 86.1811 89.0434 76.2359C90.9186 73.1081 92.7712 70.0179 94.64 67.0182C102.474 54.4428 110.59 43.4532 121.868 37.6275C133.22 31.8324 147.855 31.1732 163.149 34.2241C178.435 37.2736 194.326 44.0199 208.144 52.9631C235.721 70.9829 255.117 97.9796 267.962 126.891L267.962 126.892C274.465 141.379 279.316 156.315 280.998 170.195C282.68 184.076 281.186 196.856 275.053 207.077C268.942 217.233 258.155 224.869 245.495 230.434C232.84 235.997 218.362 239.469 204.94 241.327Z" stroke="#FCBE2D"/>
<path d="M161.468 158.068C160.598 158.922 160.101 160.085 160.083 161.304C160.065 162.523 160.529 163.7 161.373 164.579L190.587 194.852C191.012 195.292 191.52 195.643 192.081 195.885C192.643 196.127 193.247 196.254 193.858 196.26C194.47 196.266 195.076 196.15 195.642 195.919C196.209 195.688 196.723 195.347 197.157 194.915L286.3 106.05C286.787 105.564 287.16 104.976 287.39 104.328C287.621 103.68 287.704 102.988 287.633 102.304C287.563 101.619 287.34 100.959 286.982 100.372C286.624 99.785 286.139 99.2854 285.563 98.9098L250.51 76.051C249.633 75.4734 248.585 75.2144 247.541 75.3173C246.497 75.4202 245.519 75.8788 244.772 76.6165L161.468 158.068Z" fill="#3F3D56"/>
<path d="M286.909 100.414C286.732 100.685 286.526 100.937 286.296 101.166L197.092 191.565C196.657 191.996 196.141 192.337 195.573 192.568C195.005 192.798 194.397 192.914 193.784 192.908C193.17 192.902 192.564 192.775 192.001 192.533C191.438 192.292 190.928 191.941 190.502 191.502L160.569 160.021C160.365 159.809 160.182 159.579 160.022 159.333C158.874 161.093 159.468 163.06 160.989 164.63L190.292 194.854C190.718 195.293 191.228 195.644 191.791 195.885C192.354 196.127 192.96 196.254 193.573 196.26C194.186 196.266 194.795 196.15 195.363 195.92C195.931 195.689 196.447 195.348 196.881 194.917L286.296 106.195C287.049 105.447 287.52 104.465 287.632 103.413C287.744 102.36 287.488 101.301 286.909 100.414Z" fill="#EF8F8C"/>
<path d="M278.484 101.433L274.861 99.1132C275.243 99.7963 275.383 100.589 275.259 101.362C275.135 102.135 274.754 102.844 274.178 103.372C273.602 103.899 272.865 104.216 272.087 104.269C271.309 104.323 270.536 104.11 269.894 103.666L246.453 87.4762C245.92 87.1088 245.5 86.5984 245.242 86.0031C244.984 85.4079 244.898 84.7518 244.993 84.1097C245.088 83.4675 245.361 82.865 245.78 82.371C246.199 81.877 246.748 81.5113 247.365 81.3155L245.498 80.1202C245.256 79.9651 244.968 79.898 244.683 79.9303C244.398 79.9625 244.132 80.092 243.93 80.2972L165.072 158.147C164.954 158.267 164.862 158.409 164.799 158.565C164.737 158.721 164.707 158.888 164.71 159.056C164.713 159.224 164.749 159.39 164.817 159.544C164.884 159.697 164.982 159.836 165.104 159.951L193.743 187.985C193.98 188.209 194.296 188.333 194.622 188.328C194.948 188.324 195.26 188.192 195.491 187.96L278.695 103.391C278.828 103.257 278.93 103.095 278.993 102.917C279.055 102.739 279.077 102.549 279.057 102.361C279.037 102.173 278.975 101.992 278.875 101.832C278.776 101.671 278.642 101.535 278.484 101.433Z" fill="white"/>
<path d="M187.184 141.014L211.444 163.871L269.149 106.902L239.864 87.8546L187.184 141.014Z" fill="#E6E6E6"/>
<path d="M266.771 120.671C266.944 120.821 267.174 120.905 267.413 120.905C267.652 120.905 267.882 120.821 268.055 120.671L273.511 115.699C273.681 115.544 273.776 115.333 273.776 115.114C273.776 114.895 273.681 114.685 273.511 114.529C273.338 114.379 273.108 114.295 272.869 114.295C272.63 114.295 272.4 114.379 272.227 114.529L266.771 119.501C266.601 119.656 266.505 119.867 266.505 120.086C266.505 120.305 266.601 120.515 266.771 120.671Z" fill="#3F3D56"/>
<path d="M258.815 129.257C258.969 129.411 259.179 129.498 259.398 129.498C259.617 129.498 259.827 129.411 259.982 129.257L264.942 124.296C265.097 124.141 265.184 123.932 265.183 123.713C265.183 123.494 265.096 123.285 264.942 123.13C264.787 122.975 264.577 122.888 264.359 122.888C264.14 122.888 263.93 122.975 263.775 123.129L258.815 128.09C258.66 128.245 258.573 128.455 258.573 128.673C258.573 128.892 258.66 129.102 258.815 129.257Z" fill="#3F3D56"/>
<path d="M187.845 166.515C191.131 166.515 193.794 163.851 193.794 160.566C193.794 157.28 191.131 154.617 187.845 154.617C184.559 154.617 181.896 157.28 181.896 160.566C181.896 163.851 184.559 166.515 187.845 166.515Z" fill="#EF8F8C"/>
<path d="M229.488 111.651H169.336V123.549H229.488V111.651Z" fill="#E6E6E6"/>
<path d="M229.488 92.4816H169.336V104.38H229.488V92.4816Z" fill="#E6E6E6"/>
<path d="M229.488 73.9733H169.336V85.8715H229.488V73.9733Z" fill="#E6E6E6"/>
<path d="M170.659 84.5494H228.167V75.2952H170.659V84.5494Z" fill="white"/>
<path d="M170.659 103.058H228.167V93.8036H170.659V103.058Z" fill="white"/>
<path d="M170.659 122.227H228.167V112.973H170.659V122.227Z" fill="white"/>
<path d="M175.616 83.2275C177.624 83.2275 179.252 81.5998 179.252 79.5919C179.252 77.5841 177.624 75.9564 175.616 75.9564C173.608 75.9564 171.98 77.5841 171.98 79.5919C171.98 81.5998 173.608 83.2275 175.616 83.2275Z" fill="#EF8F8C"/>
<path d="M218.913 78.6004H183.879V79.2614H218.913V78.6004Z" fill="#EF8F8C"/>
<path d="M218.913 80.5834H183.879V81.2444H218.913V80.5834Z" fill="#EF8F8C"/>
<path d="M175.616 102.397C177.624 102.397 179.252 100.769 179.252 98.7612C179.252 96.7533 177.624 95.1256 175.616 95.1256C173.608 95.1256 171.98 96.7533 171.98 98.7612C171.98 100.769 173.608 102.397 175.616 102.397Z" fill="#CCCCCC"/>
<path d="M218.913 97.1087H183.879V98.4307H218.913V97.1087Z" fill="#CCCCCC"/>
<path d="M218.913 99.0917H183.879V100.414H218.913V99.0917Z" fill="#CCCCCC"/>
<path d="M175.616 120.905C177.624 120.905 179.252 119.425 179.252 117.6C179.252 115.775 177.624 114.295 175.616 114.295C173.608 114.295 171.98 115.775 171.98 117.6C171.98 119.425 173.608 120.905 175.616 120.905Z" fill="#CCCCCC"/>
<path d="M218.913 116.278H183.879V116.939H218.913V116.278Z" fill="#CCCCCC"/>
<path d="M218.913 118.261H183.879V118.922H218.913V118.261Z" fill="#CCCCCC"/>
<path d="M122.311 111.962L127.566 121.656C136.404 119.193 144.063 111.427 151.413 102.268L149.392 95.8057L136.862 99.037L122.311 111.962Z" fill="white"/>
<path d="M117.951 127.519H68.7363V182.511H117.951V127.519Z" fill="#CCCCCC"/>
<path d="M93.9891 249.679L93.1436 261.23C93.1053 261.753 93.1794 262.278 93.3608 262.77C93.5421 263.262 93.8267 263.709 94.1953 264.082C94.5639 264.455 95.0081 264.745 95.498 264.932C95.988 265.12 96.5123 265.2 97.0359 265.169L102.973 264.809C103.248 264.793 103.516 264.716 103.758 264.584C104 264.452 104.21 264.268 104.373 264.046C104.536 263.824 104.648 263.569 104.701 263.299C104.754 263.028 104.747 262.75 104.68 262.482L101.384 249.31L93.9891 249.679Z" fill="#FCF5EF"/>
<path d="M143.65 256.509C150.637 258.143 155.629 260.465 158.908 263.607C160.075 264.717 161.603 265.372 163.213 265.451C165.27 265.559 166.951 265.329 168.215 264.765H168.215C168.539 264.622 168.819 264.396 169.025 264.109C169.232 263.822 169.357 263.485 169.39 263.133C169.428 262.775 169.37 262.414 169.221 262.086C169.073 261.758 168.839 261.477 168.545 261.27L151.973 249.487L144.934 252.301L143.292 253.942C143.114 254.119 142.98 254.336 142.9 254.574C142.82 254.812 142.797 255.066 142.831 255.314C142.866 255.563 142.958 255.801 143.1 256.008C143.242 256.215 143.43 256.387 143.65 256.509H143.65Z" fill="#FCF5EF"/>
<path d="M122.149 67.9184L74.7808 67.4801C74.8999 60.5856 76.5051 53.8154 80.0139 47.7571C82.3183 43.7782 82.2685 39.4479 81.7132 35.7998C80.8562 30.17 82.8491 24.4099 87.2776 20.8261C90.6618 18.0826 94.9331 16.6703 99.287 16.8553L100.207 16.8936C103.203 17.018 106.119 17.8926 108.689 19.437C111.259 20.9814 113.399 23.1462 114.913 25.7326C116.452 28.4936 117.073 31.6722 116.685 34.8089C116.385 37.7603 117.104 40.7418 118.784 43.7516C121.683 50.3608 122.311 58.8182 122.149 67.9184Z" fill="#2F2E41"/>
<path d="M153.844 250.101L144.547 252.524L99.2775 153.969L102.107 250.101H92.8104C82.8765 204.873 64.9415 152.676 73.0049 136.196L121.104 133.369L153.844 250.101Z" fill="#170A56"/>
<path d="M98.8703 51.3747C105.79 51.3747 111.4 45.7687 111.4 38.8533C111.4 31.9379 105.79 26.3319 98.8703 26.3319C91.9502 26.3319 86.3403 31.9379 86.3403 38.8533C86.3403 45.7687 91.9502 51.3747 98.8703 51.3747Z" fill="#FFB9B9"/>
<path d="M109.783 61.8762L89.1694 60.6645C91.1896 56.0309 91.9966 51.569 91.1904 47.3353H106.55C106.515 50.5859 108.134 56.2089 109.783 61.8762Z" fill="#FFB9B9"/>
<path d="M122.713 137.004L77.4438 140.236L82.0919 60.0586L89.9738 57.837L98.8659 59.8566L107.758 55.4133L113.417 57.4333L122.713 137.004Z" fill="#170A56"/>
<path d="M85.1235 194.764L54.2026 187.696C63.397 157.227 79.9611 87.5238 74.6144 62.6838L90.7822 55.4133L85.1235 194.764Z" fill="white"/>
<path d="M70.1757 106.711L58.4541 99.4408L68.4506 70.1832C69.5655 67.1642 71.701 64.6294 74.4879 63.017L77.8554 61.0688L75.8344 90.5547L70.1757 106.711Z" fill="white"/>
<path d="M149.596 188.1C139.837 193.743 115.442 196.888 104.73 192.947C103.942 165.419 102.397 87.5499 107.358 54.6062L125.142 61.8767L123.525 83.6882C115.023 102.347 139.712 167.334 149.596 188.1Z" fill="white"/>
<path d="M148.183 103.076L137.27 99.4403L122.719 82.8795L125.144 61.8759L149.396 95.805L148.183 103.076Z" fill="white"/>
<path d="M113.982 118.798C114.161 119.581 114.643 120.261 115.322 120.69C116.002 121.118 116.824 121.26 117.608 121.084L126.872 118.987L125.533 113.078L116.269 115.174C115.485 115.352 114.804 115.833 114.375 116.513C113.946 117.192 113.805 118.014 113.982 118.798Z" fill="#FFB9B9"/>
<path d="M109.784 35.6219C102.824 32.762 95.9503 32.5551 89.1697 35.218L86.3403 25.1201H112.209L109.784 35.6219Z" fill="#2F2E41"/>
<path d="M118.468 91.9677H116.851C116.851 69.1164 112.143 53.1917 107.555 53.1917L107.15 51.576C111.265 51.576 113.888 58.2038 115.365 63.7639C117.366 71.3017 118.468 81.3179 118.468 91.9677Z" fill="#3F3D56"/>
<path d="M81.2843 86.3134H79.6675C79.6675 65.3853 84.4083 52.3844 91.3891 52.3844L90.9849 54.0001C86.1563 54.0001 81.2843 63.9917 81.2843 86.3134Z" fill="#3F3D56"/>
<path d="M117.663 96.4113C119.895 96.4113 121.705 94.6029 121.705 92.3722C121.705 90.1414 119.895 88.333 117.663 88.333C115.431 88.333 113.621 90.1414 113.621 92.3722C113.621 94.6029 115.431 96.4113 117.663 96.4113Z" fill="#3F3D56"/>
<path d="M74.8184 96.0076H73.2017C73.2017 90.2169 76.4654 85.5058 80.4771 85.5058V87.1215C77.3569 87.1215 74.8184 91.1078 74.8184 96.0076Z" fill="#3F3D56"/>
<path d="M87.7501 96.0076H86.1333C86.1333 91.1078 83.5949 87.1215 80.4746 87.1215V85.5058C84.4864 85.5058 87.7501 90.2169 87.7501 96.0076Z" fill="#3F3D56"/>
<path d="M86.9439 98.026C87.8369 98.026 88.5607 97.3027 88.5607 96.4104C88.5607 95.518 87.8369 94.7947 86.9439 94.7947C86.051 94.7947 85.3271 95.518 85.3271 96.4104C85.3271 97.3027 86.051 98.026 86.9439 98.026Z" fill="#3F3D56"/>
<path d="M74.0113 98.026C74.9042 98.026 75.6281 97.3027 75.6281 96.4104C75.6281 95.518 74.9042 94.7947 74.0113 94.7947C73.1184 94.7947 72.3945 95.518 72.3945 96.4104C72.3945 97.3027 73.1184 98.026 74.0113 98.026Z" fill="#3F3D56"/>
<path d="M53.8086 81.5541L63.8962 83.3541L86.9525 116.115L74.7036 113.235L53.8086 81.5541Z" fill="#FCBE2D"/>
<path d="M52.0125 81.1526C51.8588 81.155 51.7086 81.1985 51.5774 81.2787C51.4463 81.3589 51.3392 81.4729 51.2673 81.6087C51.1953 81.7444 51.1612 81.897 51.1684 82.0505C51.1757 82.2039 51.2241 82.3526 51.3086 82.481L72.8605 115.158C72.9808 115.341 73.1665 115.47 73.3796 115.52L83.407 117.878C83.5761 117.918 83.7533 117.905 83.915 117.842C84.0768 117.779 84.2155 117.668 84.3128 117.524C84.4101 117.381 84.4613 117.211 84.4597 117.037C84.4581 116.863 84.4037 116.694 84.3038 116.553L60.6411 82.9302C60.577 82.8386 60.4953 82.7606 60.401 82.7005C60.3066 82.6404 60.2013 82.5995 60.0911 82.5802L52.1742 81.1672C52.1208 81.1577 52.0667 81.1528 52.0125 81.1526Z" fill="#3F3D56"/>
<path d="M65.4536 104.517L66.0526 110.546L75.5046 109.608C76.3046 109.529 77.0404 109.135 77.55 108.514C78.0596 107.892 78.3012 107.094 78.2218 106.295C78.1424 105.495 77.7485 104.76 77.1266 104.251C76.5047 103.741 75.7059 103.5 74.9058 103.579L65.4536 104.517Z" fill="#FFB9B9"/>
<path d="M57.2339 103.819C57.2476 105.875 58.0739 107.842 59.5326 109.291C60.9913 110.741 62.9643 111.556 65.0215 111.558H66.5757L67.7072 102.135L58.3387 98.7651L57.2339 103.819Z" fill="white"/>
</svg>
