<svg width="323" height="298" viewBox="0 0 323 298" fill="none" xmlns="http://www.w3.org/2000/svg">
<path d="M209.008 241.823C182.259 245.603 159.641 242.846 135.029 240.162C110.575 237.534 84.0202 234.782 59.8892 221.267C35.8081 207.613 13.9925 183.139 18.3504 163.481C22.5498 143.766 52.8728 129.006 72.8459 105.195C92.9276 81.5808 102.818 48.9723 125.639 37.1839C148.618 25.4523 184.686 34.5977 212.416 52.545C240.096 70.6315 259.546 97.7161 272.418 126.689C285.449 155.718 291.902 186.635 279.481 207.335C267.11 227.896 235.915 238.099 209.008 241.823Z" fill="#E25369"/>
<path d="M204.939 247.328L204.938 247.328C179.32 250.948 157.501 248.558 134.004 245.984C133.033 245.878 132.06 245.771 131.083 245.665L131.082 245.665L130.449 245.597C106.157 242.987 79.955 240.172 56.1348 226.832C44.1436 220.032 32.7238 210.542 24.8513 200.32C16.9665 190.083 12.7072 179.203 14.8386 169.589L14.8395 169.585C15.8664 164.764 18.4968 160.217 22.2135 155.724C25.9308 151.229 30.7123 146.815 36.0093 142.253C38.1715 140.391 40.4196 138.504 42.7138 136.58C51.6368 129.092 61.2562 121.021 69.2275 111.519C76.89 102.508 83.0805 92.1821 89.0429 82.2369C90.9181 79.1091 92.7707 76.019 94.6395 73.0192C102.473 60.4439 110.59 49.4543 121.867 43.6285C133.22 37.8334 147.854 37.1742 163.148 40.2252C178.435 43.2747 194.325 50.021 208.143 58.9641C235.721 76.984 255.116 103.981 267.961 132.892L267.962 132.893C274.465 147.38 279.316 162.316 280.997 176.196C282.679 190.077 281.185 202.857 275.052 213.078C268.941 223.234 258.155 230.87 245.494 236.435C232.84 241.998 218.362 245.47 204.939 247.328Z" stroke="#E25369"/>
<path opacity="0.1" d="M220.517 76.4438H208.01V88.9511H220.517V76.4438Z" fill="#6C63FF"/>
<path opacity="0.1" d="M220.517 107.294H208.01V119.801H220.517V107.294Z" fill="#6C63FF"/>
<path opacity="0.1" d="M220.517 138.14H208.01V150.648H220.517V138.14Z" fill="#6C63FF"/>
<path opacity="0.1" d="M220.517 168.991H208.01V181.498H220.517V168.991Z" fill="#6C63FF"/>
<path d="M258.704 129.27C258.704 129.27 251.443 93.1469 254.222 88.6524C254.222 88.6524 254.323 84.4745 254.156 79.1488C254.156 78.9465 254.156 78.7442 254.156 78.5375C254.645 78.8636 255.155 79.1574 255.682 79.4171C258.243 80.7327 261.183 81.1123 263.994 80.4901L261.795 78.0406C261.268 77.4557 260.718 76.8224 260.604 76.0484C260.489 75.2744 260.806 74.5839 261.079 73.8935C263.167 68.6162 263.277 61.9799 259.253 57.9515C255.854 54.5653 255.027 50.1939 251.337 47.1022C248.642 44.8374 247.16 41.5171 245.761 38.3067C244.578 35.5933 243.386 32.8578 242.709 29.9817C242.181 27.7344 241.97 25.408 241.245 23.2135C240.519 21.019 239.16 18.8861 237.036 17.9054C236.279 17.558 235.439 17.3601 234.749 16.8983C233.843 16.287 233.298 15.2931 232.642 14.4224C229.313 10.0246 218.165 12.6149 212.888 14.4004C211.453 14.85 210.124 15.5861 208.982 16.5641L209.031 16.4849C209.07 16.419 209.119 16.353 209.163 16.287C208.585 16.7541 208.086 17.3109 207.685 17.9362C206.915 19.1544 206.594 20.5749 205.952 21.8942C205.178 23.4554 200.873 27.8136 202.724 29.5683C202.854 29.6862 203.003 29.7813 203.164 29.8498C203.859 30.139 204.624 30.2156 205.363 30.0697L205.284 30.2588C204.652 31.8069 204.327 33.4636 204.33 35.1359C204.33 42.3614 210.289 48.2193 217.646 48.2193C219.029 48.2206 220.404 48.0085 221.723 47.5904C221.754 47.7575 221.78 47.9246 221.811 48.0917C221.811 48.1577 221.833 48.2237 221.842 48.2896L221.608 48.6151C221.597 48.595 221.584 48.5759 221.569 48.5579L214.664 58.2066C213.609 58.9499 207.531 63.3476 207.188 66.646C206.828 70.2565 206.467 74.4828 206.467 74.4828L206.419 75.3887C206.117 75.6409 205.764 75.8245 205.384 75.927C205.005 76.0295 204.607 76.0484 204.22 75.9824C202.065 75.6306 202.065 83.8984 202.065 83.8984C202.065 83.8984 200.631 85.2178 199.646 84.0743C198.661 82.9309 196.057 86.8054 196.057 86.8054L179.742 87.509L179.368 87.531L178.488 84.8088C178.394 84.5216 178.189 84.2834 177.92 84.1459C177.651 84.0084 177.338 83.9827 177.05 84.0743C176.982 84.0968 176.916 84.1247 176.852 84.1579L176.791 84.1931L176.676 84.2722L176.619 84.325C176.588 84.3536 176.558 84.3845 176.531 84.4174L176.478 84.4789L176.452 84.5053C176.351 84.6457 176.283 84.808 176.256 84.979C176.228 85.1501 176.241 85.3253 176.294 85.4904L177.05 87.8256C173.901 88.4589 170.682 90.2444 173.308 95.1611L160 92.7028L164.305 96.3177L186.532 100.905C186.237 101.432 186.431 102.198 187.35 103.275C191.308 107.923 198.52 109.186 201.423 109.511C202.189 111.226 203.147 112.849 204.277 114.349L204.026 118.979C204.026 118.979 196.677 154.276 195.332 156.066C196.011 155.296 196.633 154.477 197.192 153.616C195.059 160.868 192.077 170.794 191.295 172.281C190.037 174.655 188.871 184.264 190.305 184.88C190.745 185.069 192.003 184.977 193.797 184.841V185.637L193.718 215.801C193.718 215.801 194.078 234.302 193.089 236.066C192.099 237.829 191.836 241.528 191.836 241.528C191.836 241.528 187.878 248.824 184.742 251.757C184.721 251.78 184.697 251.801 184.672 251.819L184.575 251.133C184.575 251.133 180.806 255.891 172.468 255.623C172.468 255.623 167.45 258.886 174.891 259.062C182.332 259.238 191.836 258.798 191.836 258.798C191.836 258.798 198.472 248.683 204.031 250.002V257.668H205.732V249.879C206.522 249.36 207.197 248.685 207.718 247.897C208.239 247.108 208.594 246.222 208.763 245.292C208.908 244.334 208.801 243.354 208.453 242.449C208.104 241.545 207.526 240.747 206.775 240.134C206.437 239.829 206.167 239.457 205.98 239.042C205.793 238.628 205.694 238.179 205.688 237.724L205.627 237.777C205.627 237.623 205.587 237.464 205.57 237.302C205.082 233.344 204.47 225.177 206.63 219.134C209.589 210.849 210.486 199.309 208.332 192.44C207.636 190.244 207.065 188.011 206.621 185.751C206.568 185.465 206.52 185.192 206.476 184.937C207.949 185.137 209.407 185.43 210.843 185.817C215.834 187.193 226.754 187.448 236.077 187.374C236.099 187.629 236.126 187.897 236.156 188.165C236.323 190.03 236.67 191.874 237.194 193.671C238.364 197.19 238.9 212.7 238.9 212.7C238.9 212.7 240.409 225.454 239.587 230.643C239.147 233.528 238.707 236.426 238.456 239.338V239.395C238.456 239.395 235.985 246.431 234.177 250.253C234.133 250.35 234.085 250.447 234.041 250.539C233.559 250.583 233.085 250.688 232.629 250.851C232.629 250.851 230.206 255.689 227.792 256.489C225.377 257.29 226.178 259.924 231.644 258.956C237.111 257.989 245.365 257.197 245.365 257.197L245.721 252.263L247.401 250.161L246.962 255.082L248.752 254.73L248.514 248.745L251.263 245.306C251.263 245.306 254.583 242.35 249.649 236.536V236.664C249.596 236.58 249.547 236.492 249.49 236.409V236.382C248.672 235.116 248.021 232.754 249.213 228.563C251.368 220.99 252.622 214.117 252.622 214.117C252.622 214.117 257.433 195.703 251.65 186.991H251.905C251.312 185.765 250.893 184.463 250.66 183.121C250.631 182.963 250.604 182.8 250.581 182.633C254.86 182.387 259.06 181.613 262.486 179.941C262.473 179.924 260.41 136.228 258.704 129.27ZM204.378 98.7937V98.8816L203.498 98.9256L204.378 98.7937ZM201.361 99.2115C201.216 99.2435 201.081 99.3082 200.965 99.4006C200.587 99.9356 200.35 100.557 200.275 101.208L198.903 100.9C198.903 100.9 197.94 100.694 196.554 100.46L195.899 99.8008C197.702 99.6513 199.576 99.4314 201.361 99.2115Z" fill="url(#paint0_linear)"/>
<path d="M246.759 248.806L246.236 255.038L247.991 254.686L247.727 247.927L246.759 248.806Z" fill="#1D2366"/>
<path d="M206.726 219.218C204.611 225.243 205.209 233.374 205.684 237.324C205.86 238.784 206.023 239.672 206.023 239.672C206.023 239.672 202.861 246.876 202.597 247.148C202.333 247.421 193.291 252.94 193.291 252.94L186.971 256.63C186.971 256.63 180.559 253.82 183.633 252.852C184.262 252.6 184.827 252.214 185.291 251.722C188.37 248.797 192.235 241.528 192.235 241.528C192.235 241.528 192.499 237.838 193.467 236.083C194.434 234.329 194.083 215.889 194.083 215.889L194.157 185.83V181.912L206.185 182C206.261 183.33 206.435 184.653 206.704 185.958C207.136 188.21 207.695 190.436 208.38 192.625C210.499 199.481 209.62 210.963 206.726 219.218Z" fill="#FFB0B1"/>
<path opacity="0.1" d="M206.023 239.672C206.023 239.672 202.861 246.876 202.597 247.148C202.333 247.421 193.291 252.94 193.291 252.94L186.971 256.63C186.971 256.63 180.559 253.82 183.633 252.852C184.262 252.6 184.827 252.215 185.291 251.722L185.564 253.644L187.671 253.556L205.701 237.333C205.86 238.784 206.023 239.672 206.023 239.672Z" fill="black"/>
<path d="M205.802 237.742L187.67 254.075L185.564 254.163L185.124 251.084C185.124 251.084 181.439 255.825 173.25 255.561C173.25 255.561 168.333 258.811 175.62 258.987C182.907 259.163 192.213 258.723 192.213 258.723C192.213 258.723 198.713 248.608 204.153 249.928V257.567H205.824V249.857C206.601 249.334 207.264 248.66 207.774 247.874C208.283 247.088 208.628 246.207 208.788 245.284C208.933 244.333 208.831 243.361 208.491 242.462C208.151 241.562 207.586 240.765 206.849 240.147C206.52 239.839 206.257 239.466 206.077 239.052C205.897 238.639 205.804 238.193 205.802 237.742Z" fill="#170A56"/>
<path d="M248.431 228.611C247.261 232.789 247.899 235.142 248.699 236.404V236.431C249.726 237.989 250.439 239.732 250.801 241.563L250.871 241.959L242.621 253.986L238.144 255.746C238.144 255.746 230.945 253.287 232.26 252.584C232.59 252.412 233.104 251.497 233.694 250.235C235.453 246.431 237.88 239.412 237.88 239.412V239.355C238.135 236.457 238.54 233.568 238.989 230.691C239.793 225.515 238.316 212.81 238.316 212.81C238.316 212.81 237.788 197.361 236.645 193.847C236.128 192.06 235.785 190.228 235.62 188.376C235.382 186.177 235.33 184.365 235.33 184.365C235.33 184.365 240.071 177.769 248.761 184.893C249.455 185.461 250.067 186.125 250.577 186.863C256.58 195.404 251.747 214.217 251.747 214.217C251.747 214.217 250.537 221.06 248.431 228.611Z" fill="#FFB0B1"/>
<path opacity="0.1" d="M250.884 241.959L242.633 253.987L238.156 255.746C238.156 255.746 230.957 253.288 232.272 252.584C232.602 252.413 233.117 251.498 233.706 250.236C236.754 250.209 238.332 253.112 238.332 253.112L242.194 252.496C242.194 252.496 247.286 242.487 248.43 241.876C249.573 241.264 248.606 237.306 248.606 237.306V236.299C248.636 236.334 248.663 236.374 248.698 236.409V236.436C249.725 237.994 250.438 239.737 250.8 241.568L250.884 241.959Z" fill="black"/>
<path d="M238.597 253.371C238.597 253.371 236.398 249.334 232.185 250.825C232.185 250.825 229.814 255.662 227.444 256.445C225.074 257.228 225.865 259.867 231.222 258.904C236.578 257.94 244.653 257.144 244.653 257.144L245.004 252.223L250.449 245.288C250.449 245.288 253.694 242.346 248.866 236.554V237.561C248.866 237.561 249.833 241.519 248.69 242.13C247.546 242.742 242.471 252.755 242.471 252.755L238.597 253.371Z" fill="#170A56"/>
<path opacity="0.1" d="M206.198 181.991C206.274 183.321 206.448 184.644 206.717 185.949C201.765 185.223 197.17 185.584 194.157 185.821V181.903L206.198 181.991Z" fill="black"/>
<path opacity="0.1" d="M251.064 187.959C251.064 187.959 244.028 188.302 235.637 188.372C235.399 186.173 235.347 184.361 235.347 184.361C235.347 184.361 240.087 177.765 248.777 184.889C249.472 185.457 250.084 186.12 250.594 186.859C250.73 187.234 250.887 187.601 251.064 187.959Z" fill="black"/>
<path d="M251.064 187.167C251.064 187.167 220.244 188.658 210.851 186.024C201.457 183.389 192.147 185.672 190.744 185.06C189.341 184.449 190.48 174.875 191.712 172.505C192.943 170.134 199.698 146.162 199.698 146.162L206.198 112.273L213.045 110.386L213.529 110.25L225.46 106.96L234.203 104.546C234.203 104.546 251.587 172.417 250.096 177.422C249.555 179.338 249.468 181.354 249.841 183.31C250.069 184.646 250.481 185.944 251.064 187.167Z" fill="#170A56"/>
<path d="M183.541 89.0967C183.541 89.0967 177.384 95.6933 182.046 99.3699C186.707 103.046 189.773 99.7217 189.773 99.7217L183.541 89.0967Z" fill="#C7DAF5"/>
<path opacity="0.1" d="M183.541 89.0967C183.541 89.0967 177.384 95.6933 182.046 99.3699C186.707 103.046 189.773 99.7217 189.773 99.7217L183.541 89.0967Z" fill="black"/>
<path d="M233.284 45.7255C233.284 45.7255 232.563 46.4116 231.477 47.423C229.929 48.8699 227.637 50.9852 225.606 52.7575C222.791 55.2071 220.469 57.0058 221.3 55.471C222.131 53.9362 221.973 51.2623 221.56 48.76C221.529 48.5929 221.503 48.4257 221.472 48.263C221.129 46.4253 220.676 44.61 220.113 42.8274C220.113 42.8274 224.66 36.9519 227.176 34.6343C228.112 33.7548 228.768 33.3942 228.807 34.0054C228.851 34.8278 229.467 36.6441 230.232 38.5703C230.254 38.6319 230.276 38.6891 230.302 38.7506C230.813 40.07 231.389 41.4245 231.894 42.5943C232.668 44.3886 233.284 45.7255 233.284 45.7255Z" fill="#FFB0B1"/>
<path opacity="0.1" d="M230.302 38.7503C229.875 41.0488 228.838 43.1903 227.3 44.951C225.762 46.7118 223.78 48.0271 221.56 48.7597C221.21 46.7521 220.727 44.7702 220.113 42.8271C220.113 42.8271 228.675 31.7667 228.807 34.0052C228.838 34.8539 229.506 36.7362 230.302 38.7503Z" fill="black"/>
<path opacity="0.1" d="M220.707 51.715L221.815 50.1537C221.815 50.1537 222.55 54.6307 225.25 52.6561C227.95 50.6815 228.082 67.5162 228.082 67.5162L225.184 110.847L204.242 109.594L204.835 88.6563L207.206 78.1016L213.068 62.7578L216.555 57.6871L220.707 51.715Z" fill="black"/>
<path d="M228.081 67.7849L225.442 106.965L225.165 111.116L213.489 110.417L213.049 110.391L204.254 109.863L204.848 88.9206L207.218 78.3659L213.08 63.0221L216.568 57.9514L220.719 51.9573L221.827 50.4005C221.827 50.4005 222.562 54.8774 225.262 52.9028L225.319 52.8632C227.958 51.192 228.081 67.7849 228.081 67.7849Z" fill="#170A56"/>
<path d="M207.514 74.6981C207.514 74.6981 206.463 76.8969 204.352 76.5407C202.241 76.1845 202.245 84.4567 202.245 84.4567C202.245 84.4567 200.842 85.7761 199.875 84.6326C198.907 83.4892 196.357 87.3549 196.357 87.3549L180.375 88.0585C180.375 88.0585 187.486 91.3085 186.092 101.142C186.092 101.142 210.236 99.6466 211.028 97.3642C211.819 95.0817 207.514 74.6981 207.514 74.6981Z" fill="white"/>
<path opacity="0.03" d="M207.514 74.6981C207.514 74.6981 206.463 76.8969 204.352 76.5407C202.241 76.1845 202.245 84.4567 202.245 84.4567C202.245 84.4567 200.842 85.7761 199.875 84.6326C198.907 83.4892 196.357 87.3549 196.357 87.3549L180.375 88.0585C180.375 88.0585 187.486 91.3085 186.092 101.142C186.092 101.142 210.236 99.6466 211.028 97.3642C211.819 95.0817 207.514 74.6981 207.514 74.6981Z" fill="black"/>
<path d="M161.068 93.2259L165.281 96.8233L199.962 104.11L195.661 99.7214L161.068 93.2259Z" fill="white"/>
<path d="M220.772 53.101C220.196 53.9806 218.547 58.4839 217.17 62.4155C216.022 65.6918 215.064 68.5724 215.064 68.5724C215.064 68.5724 212.825 83.1466 211.682 85.7809C210.538 88.4151 211.158 98.6883 211.158 98.6883L206.897 124.059C206.897 124.059 204.966 137.142 201.985 144.957C199.043 152.649 195.766 156.255 195.665 156.37C196.984 154.584 204.175 119.428 204.175 119.428L206.55 75.0899C206.55 75.0899 206.897 70.8768 207.249 67.275C207.601 63.6733 214.725 58.7565 214.725 58.7565L221.594 48.9891C222.285 49.9126 221.823 51.5222 220.772 53.101Z" fill="white"/>
<path d="M202.86 110.083C202.86 110.083 192.745 109.643 187.846 103.759C182.947 97.8747 199.17 101.411 199.17 101.411L203.388 102.378L202.86 110.083Z" fill="#FFB0B1"/>
<path opacity="0.1" d="M250.097 177.426C249.555 179.343 249.468 181.359 249.842 183.315C238.808 184.098 227.004 181.116 227.004 181.116C224.805 183.139 219.013 186.121 219.013 186.121L215.856 146.98C213.837 141.703 213.045 114.054 213.045 114.054C213.045 114.054 213.226 112.607 213.485 110.439C213.485 110.386 213.485 110.329 213.507 110.277C214.294 104.221 215.856 92.8525 216.621 91.3177C217.676 89.2068 213.375 83.5908 213.375 83.5908L215.332 66.9013L215.57 64.8871C219.695 63.0444 222.857 57.1602 222.857 57.1602L225.284 52.9075C227.923 51.2144 228.059 67.8072 228.059 67.8072L225.421 106.987L234.164 104.573C234.164 104.573 251.587 172.421 250.097 177.426Z" fill="black"/>
<path d="M261.421 180.131C249.393 186.103 227.532 180.571 227.532 180.571C225.333 182.594 219.541 185.575 219.541 185.575L216.379 146.435C214.365 141.158 213.573 113.509 213.573 113.509C213.573 113.509 216.115 92.8789 217.171 90.7724C217.478 90.1567 217.329 89.242 216.964 88.2569C215.169 83.5681 214.509 78.5213 215.038 73.5287L215.882 66.3559L216.115 64.3462C220.245 62.4991 223.407 56.6149 223.407 56.6149L225.606 52.7624L229.652 45.6644L231.569 42.3045L231.894 42.5991L234.379 44.8508C234.379 44.8508 235.435 45.7304 237.018 47.0497C240.461 49.9522 246.411 55.0624 249.481 58.1893C252.181 60.9423 253.034 71.6509 253.281 79.712C253.443 85.0201 253.347 89.1804 253.347 89.1804C250.625 93.6617 257.744 129.64 257.744 129.64C259.402 136.593 261.421 180.131 261.421 180.131Z" fill="white"/>
<path opacity="0.03" d="M238.333 56.5268C238.333 56.5268 230.079 72.24 231.037 78.2122C231.996 84.1844 234.723 90.9438 233.408 92.5226C232.956 93.1207 232.372 93.6063 231.701 93.9412C231.031 94.2761 230.292 94.4513 229.542 94.4532C228.223 94.5412 224.705 96.9995 224.705 97.2634C224.705 97.5273 221.455 97.5273 218.548 98.7586C215.641 99.99 211.348 100.689 211.348 100.689C211.348 100.689 202.993 100.425 202.214 101.217C201.436 102.009 200.635 106.745 202.302 110.523C203.969 114.3 205.82 117.119 207.219 117.634C208.617 118.148 217.492 115.176 224.691 114.472C231.89 113.768 239.705 108.064 239.705 108.064C239.705 108.064 248.312 104.986 249.82 99.8097C251.329 94.6335 247.978 66.1843 247.978 66.1843C247.978 66.1843 245.444 52.925 238.333 56.5268Z" fill="black"/>
<path opacity="0.03" d="M237.277 55.2076C237.277 55.2076 229.022 70.9253 229.99 76.8931C230.957 82.8608 233.675 89.6246 232.356 91.2078C231.906 91.8066 231.323 92.2927 230.653 92.6277C229.983 92.9628 229.244 93.1376 228.495 93.1384C227.175 93.2264 223.657 95.6847 223.657 95.9486C223.657 96.2125 220.407 96.2125 217.5 97.4395C214.593 98.6664 210.301 99.3701 210.301 99.3701C210.301 99.3701 201.945 99.1062 201.171 99.8978C200.397 100.689 199.588 105.43 201.259 109.204C202.93 112.977 204.777 115.8 206.176 116.315C207.574 116.829 216.449 113.856 223.648 113.157C230.847 112.458 238.662 106.745 238.662 106.745C238.662 106.745 247.264 103.667 248.755 98.4949C250.246 93.3231 246.913 64.8651 246.913 64.8651C246.913 64.8651 244.388 51.6103 237.277 55.2076Z" fill="black"/>
<path d="M238.073 55.7346C238.073 55.7346 229.819 71.4523 230.786 77.42C231.754 83.3878 234.472 90.1516 233.157 91.7304C232.707 92.3306 232.123 92.8179 231.452 93.1537C230.781 93.4896 230.041 93.6647 229.291 93.6654C227.972 93.7534 224.454 96.2117 224.454 96.4712C224.454 96.7307 221.208 96.7351 218.297 97.9664C215.385 99.1978 211.097 99.8971 211.097 99.8971C211.097 99.8971 202.742 99.6332 201.963 100.425C201.185 101.216 200.385 105.957 202.051 109.73C203.718 113.504 205.57 116.327 206.968 116.842C208.366 117.356 217.241 114.383 224.44 113.68C231.64 112.976 239.454 107.272 239.454 107.272C239.454 107.272 248.061 104.194 249.569 99.0175C251.078 93.8413 247.749 65.3921 247.749 65.3921C247.749 65.3921 245.18 52.1548 238.073 55.7346Z" fill="white"/>
<path opacity="0.1" d="M237.893 97.8917C237.893 97.8917 231.296 96.5723 233.592 98.7712C235.887 100.97 235.874 102.896 238.684 102.808C241.494 102.72 237.893 97.8917 237.893 97.8917Z" fill="black"/>
<path opacity="0.1" d="M249.042 145.204C249.042 145.204 246.06 147.222 251.764 151.875C257.468 156.528 249.042 145.204 249.042 145.204Z" fill="black"/>
<path opacity="0.1" d="M243.35 161.796C243.35 162.06 242.295 171.471 246.244 173.824C250.193 176.177 243.35 161.796 243.35 161.796Z" fill="black"/>
<path d="M180.647 88.0369C177.463 88.1469 170.585 89.1188 174.152 95.7726C177.305 101.661 182.604 97.7252 185.586 94.7391C184.859 91.9551 183.091 89.5562 180.647 88.0369Z" fill="#FFB0B1"/>
<path d="M185.625 94.6858L185.757 94.5494L185.625 94.6858Z" fill="#FFB0B1"/>
<path opacity="0.1" d="M237.018 47.3175C233.64 49.6263 230.808 51.5745 230.254 51.9791C228.741 53.1005 225.856 59.684 223.996 63.0439C222.514 65.7486 217.698 66.4434 215.882 66.6149L216.115 64.6051C220.244 62.7581 223.406 56.8738 223.406 56.8738L231.569 42.5635L234.379 45.1186C234.379 45.1186 235.434 45.9981 237.018 47.3175Z" fill="black"/>
<path d="M237.018 47.0535C233.64 49.3623 230.808 51.3105 230.254 51.7195C228.741 52.8366 225.856 59.42 223.996 62.7799C222.514 65.4846 217.698 66.1794 215.882 66.3509L216.115 64.3411C220.244 62.4941 223.406 56.6099 223.406 56.6099L231.569 42.2995L234.379 44.8458C234.379 44.8458 235.434 45.7166 237.018 47.0535Z" fill="white"/>
<path d="M230.517 35.8487C230.519 38.4886 229.719 41.0668 228.222 43.2413C226.454 45.8124 223.823 47.6646 220.806 48.4618C217.789 49.2591 214.587 48.9485 211.78 47.5864C208.972 46.2244 206.746 43.9012 205.506 41.0383C204.265 38.1754 204.091 34.9626 205.016 31.9827C205.942 29.0028 207.905 26.4534 210.549 24.7969C213.193 23.1405 216.344 22.4868 219.429 22.9545C222.514 23.4222 225.329 24.9803 227.363 27.346C229.398 29.7118 230.517 32.7285 230.517 35.8487Z" fill="#FFB0B1"/>
<path opacity="0.1" d="M253.281 79.7157C251.495 78.6171 250.04 77.0546 249.072 75.1948C248.338 73.7435 247.85 72.068 246.596 71.0389C245.466 70.1153 243.958 69.8911 242.55 69.4777C237.924 68.11 234.045 63.8881 233.9 59.0681C233.83 56.7989 234.538 54.534 234.217 52.2868C234.034 51.0149 233.528 49.8111 232.748 48.7905C232.36 48.3024 231.935 47.8451 231.477 47.4228C230.861 46.8423 230.215 46.2794 229.652 45.6637C229.297 45.2825 228.987 44.862 228.728 44.4104C228.519 44.0408 228.349 43.6501 228.222 43.2449C227.343 40.5535 228.143 37.3607 227.176 34.6385L227.123 34.489C226.758 33.5215 226.015 32.554 224.981 32.4792C223.948 32.4044 223.064 33.262 222.079 33.6446C220.016 34.445 217.791 33.0817 216.071 31.692C214.352 30.3023 212.412 28.7147 210.227 29.0225C208.78 29.2292 207.636 30.2143 206.304 30.7245C206.003 30.8409 205.693 30.9307 205.376 30.9927C206.504 28.1804 208.576 25.8486 211.236 24.3979C213.896 22.9472 216.978 22.4682 219.953 23.0432C222.928 23.6183 225.61 25.2113 227.538 27.5488C229.466 29.8863 230.52 32.8223 230.518 35.8523C230.52 36.7672 230.424 37.6798 230.232 38.5745C230.254 38.6361 230.276 38.6932 230.303 38.7548C230.813 40.0741 231.389 41.4287 231.895 42.5985L234.379 44.8501C234.379 44.8501 235.435 45.7297 237.018 47.049C240.461 49.9516 246.412 55.0618 249.481 58.1886C252.181 60.9504 253.026 71.6546 253.281 79.7157Z" fill="black"/>
<path d="M206.151 22.6903C206.779 21.4105 207.092 19.9769 207.844 18.7631C208.948 17.004 210.874 15.8781 212.853 15.1965C218.02 13.4154 228.94 10.8295 232.203 15.1965C232.845 16.076 233.377 17.0523 234.266 17.6592C234.943 18.121 235.761 18.3189 236.504 18.6663C238.584 19.6426 239.912 21.7712 240.62 23.9437C241.328 26.1162 241.54 28.447 242.058 30.6854C242.723 33.5572 243.888 36.2794 245.049 38.984C246.417 42.1768 247.868 45.4884 250.507 47.7444C254.108 50.8229 254.904 55.1811 258.247 58.5585C262.205 62.5693 262.077 69.188 260.037 74.4433C259.768 75.1338 259.465 75.855 259.57 76.5894C259.676 77.3239 260.221 77.9923 260.736 78.5772L262.899 81.018C257.78 82.2538 251.989 79.5799 249.605 74.8875C248.871 73.4362 248.382 71.7651 247.125 70.7316C245.999 69.8081 244.486 69.5882 243.083 69.1748C238.457 67.8027 234.578 63.5764 234.433 58.7565C234.362 56.4916 235.07 54.2267 234.749 51.9839C234.571 50.7035 234.063 49.4913 233.276 48.4656C232.067 46.8868 230.242 45.827 229.257 44.0679C227.59 41.1258 228.856 37.3041 227.656 34.1465C227.286 33.179 226.547 32.2115 225.514 32.1367C224.481 32.062 223.597 32.9195 222.607 33.3021C220.549 34.1025 218.324 32.7436 216.604 31.3495C214.885 29.9554 212.945 28.3722 210.755 28.6845C209.308 28.8868 208.169 29.8719 206.837 30.3864C205.852 30.7646 203.855 31.1032 202.993 30.2721C201.172 28.5965 205.39 24.2559 206.151 22.6903Z" fill="#591D4B"/>
<path opacity="0.1" d="M250.826 73.436C250.087 71.9847 249.604 70.3136 248.346 69.2845C247.22 68.361 245.707 68.1367 244.3 67.7233C239.678 66.3556 235.799 62.1293 235.65 57.3093C235.579 55.0445 236.287 52.7752 235.971 50.5324C235.786 49.2602 235.279 48.0565 234.497 47.0361C233.284 45.4573 231.458 44.3975 230.478 42.6384C228.811 39.7006 230.078 35.879 228.873 32.717C228.508 31.7539 227.764 30.7864 226.735 30.7072C225.706 30.628 224.813 31.4944 223.828 31.877C221.77 32.6774 219.54 31.3141 217.825 29.9244C216.11 28.5347 214.162 26.9471 211.976 27.2549C210.529 27.4616 209.386 28.4467 208.058 28.9569C207.073 29.3351 205.072 29.6781 204.21 28.8469C202.398 27.0878 206.615 22.756 207.372 21.1992C208.001 19.915 208.313 18.4858 209.069 17.272C209.109 17.206 209.153 17.1401 209.197 17.0741C208.631 17.5428 208.143 18.0979 207.75 18.7189C206.998 19.9326 206.686 21.3575 206.057 22.6461C205.296 24.2029 201.079 28.5479 202.895 30.2938C203.774 31.1294 205.753 30.7863 206.739 30.4081C208.058 29.8936 209.21 28.9085 210.657 28.7062C212.856 28.394 214.791 29.9816 216.506 31.3713C218.221 32.761 220.464 34.1243 222.513 33.3239C223.498 32.9413 224.36 32.0793 225.416 32.1585C226.471 32.2376 227.175 33.2007 227.558 34.1682C228.758 37.3258 227.492 41.1475 229.158 44.0896C230.143 45.818 231.969 46.8998 233.178 48.4874C233.965 49.513 234.473 50.7252 234.651 52.0056C234.972 54.2485 234.264 56.5133 234.335 58.7782C234.48 63.6157 238.359 67.8244 242.985 69.1965C244.379 69.6099 245.901 69.8298 247.027 70.7533C248.289 71.7868 248.786 73.458 249.507 74.9092C251.89 79.6017 257.682 82.2755 262.801 81.0397L261.781 79.8875C257.344 79.9535 252.854 77.4292 250.826 73.436Z" fill="black"/>
<path opacity="0.1" d="M220.508 53.3646C219.932 54.2442 218.283 58.7475 216.906 62.6791C215.618 62.1778 214.448 58.9806 214.448 58.9806L221.317 49.2087C222.021 50.1763 221.559 51.7814 220.508 53.3646Z" fill="black"/>
<path d="M220.773 53.1004C220.196 53.98 218.547 58.4833 217.171 62.4149C215.882 61.9179 214.712 58.7164 214.712 58.7164L221.582 48.9489C222.285 49.912 221.824 51.5216 220.773 53.1004Z" fill="white"/>
<path d="M180.831 98.0285L177.023 86.0181C176.978 85.8775 176.961 85.7294 176.973 85.5822C176.985 85.4351 177.027 85.2918 177.095 85.1606C177.162 85.0295 177.255 84.913 177.368 84.8179C177.481 84.7228 177.612 84.6509 177.753 84.6065C178.036 84.518 178.343 84.545 178.607 84.6818C178.87 84.8185 179.069 85.0538 179.16 85.3365L182.969 97.3336L182.59 99.8447L180.831 98.0285Z" fill="#BE8B87"/>
<path opacity="0.1" d="M177.384 84.9624C177.668 84.8725 177.977 84.8989 178.241 85.0357C178.506 85.1726 178.705 85.4087 178.796 85.6924L182.605 97.6895L182.319 99.5718L182.596 99.862L182.974 97.3509L179.144 85.3538C179.053 85.0711 178.854 84.8358 178.59 84.699C178.327 84.5623 178.02 84.5352 177.736 84.6237C177.498 84.7011 177.292 84.8559 177.151 85.0635C177.226 85.0234 177.304 84.9896 177.384 84.9624Z" fill="white"/>
<path d="M180.831 98.0281L182.968 97.3508L182.656 99.409L182.59 99.862L181.966 99.2111L180.831 98.0281Z" fill="#EFC8C4"/>
<path d="M181.966 99.2114C182.003 99.1644 182.05 99.1255 182.103 99.097C182.134 99.0775 182.169 99.0671 182.206 99.0671C182.243 99.0671 182.278 99.0775 182.309 99.097C182.339 99.1332 182.364 99.1732 182.384 99.2158C182.413 99.2643 182.453 99.3057 182.5 99.3369C182.547 99.3681 182.601 99.3884 182.657 99.3961L182.591 99.8359L181.966 99.2114Z" fill="#727A9C"/>
<path d="M177.001 90.2835C177.001 90.2835 184.64 90.2396 182.842 93.4895C181.043 96.7395 178.233 97.1309 178.233 97.1309L177.001 90.2835Z" fill="#FFB0B1"/>
<g opacity="0.1">
<path opacity="0.1" d="M140.449 151.328C140.449 151.328 141.046 142.948 145.76 138.378C147.75 136.474 149.069 133.976 149.518 131.258C149.721 129.966 149.806 128.658 149.772 127.351" fill="#6C63FF"/>
<path opacity="0.1" d="M152.725 124.454C152.379 125.38 149.703 127.437 149.703 127.437C149.703 127.437 149.027 124.128 149.377 123.203C149.543 122.758 149.878 122.398 150.309 122.202C150.741 122.005 151.232 121.988 151.676 122.154C152.12 122.32 152.48 122.655 152.677 123.087C152.873 123.518 152.891 124.01 152.725 124.454Z" fill="#6C63FF"/>
<path opacity="0.1" d="M153.58 130.615C152.786 131.203 149.423 131.475 149.423 131.475C149.423 131.475 150.656 128.331 151.449 127.742C151.831 127.474 152.301 127.366 152.761 127.44C153.221 127.515 153.634 127.766 153.911 128.14C154.189 128.514 154.31 128.982 154.248 129.444C154.186 129.906 153.946 130.326 153.58 130.613V130.615Z" fill="#6C63FF"/>
<path opacity="0.1" d="M150.188 139.326C149.206 139.435 146.165 137.975 146.165 137.975C146.165 137.975 148.816 135.884 149.797 135.779C150.253 135.754 150.701 135.905 151.049 136.2C151.398 136.495 151.62 136.913 151.67 137.367C151.72 137.821 151.594 138.278 151.319 138.642C151.043 139.006 150.639 139.251 150.188 139.326Z" fill="#6C63FF"/>
<path opacity="0.1" d="M146.137 145.34C145.188 145.612 141.943 144.683 141.943 144.683C141.943 144.683 144.202 142.174 145.151 141.902C145.379 141.83 145.619 141.804 145.857 141.826C146.095 141.848 146.326 141.917 146.537 142.03C146.748 142.143 146.934 142.297 147.084 142.483C147.234 142.669 147.346 142.884 147.412 143.114C147.478 143.344 147.497 143.584 147.468 143.822C147.439 144.059 147.363 144.289 147.245 144.496C147.126 144.704 146.966 144.885 146.776 145.03C146.586 145.175 146.369 145.28 146.137 145.34Z" fill="#6C63FF"/>
<path opacity="0.1" d="M145.84 130.34C146.262 131.232 149.102 133.054 149.102 133.054C149.102 133.054 149.493 129.701 149.07 128.808C148.858 128.393 148.494 128.077 148.053 127.927C147.613 127.777 147.131 127.804 146.711 128.004C146.29 128.203 145.964 128.559 145.802 128.995C145.639 129.431 145.653 129.914 145.84 130.34Z" fill="#6C63FF"/>
<path opacity="0.1" d="M141.192 137.432C141.868 138.157 145.117 139.047 145.117 139.047C145.117 139.047 144.488 135.729 143.818 135.003C143.495 134.657 143.049 134.452 142.576 134.435C142.103 134.417 141.643 134.587 141.295 134.909C140.948 135.23 140.742 135.676 140.723 136.149C140.703 136.622 140.872 137.084 141.192 137.432Z" fill="#6C63FF"/>
<path opacity="0.1" d="M137.621 144.946C138.158 145.774 141.217 147.201 141.217 147.201C141.217 147.201 141.157 143.823 140.618 142.997C140.353 142.614 139.95 142.349 139.493 142.259C139.037 142.169 138.563 142.26 138.173 142.514C137.783 142.768 137.507 143.164 137.404 143.618C137.301 144.072 137.379 144.549 137.621 144.946Z" fill="#6C63FF"/>
<path opacity="0.1" d="M152.725 124.454C152.379 125.38 149.703 127.437 149.703 127.437C149.703 127.437 149.027 124.128 149.377 123.203C149.543 122.758 149.878 122.398 150.309 122.202C150.741 122.005 151.232 121.988 151.676 122.154C152.12 122.32 152.48 122.655 152.677 123.087C152.873 123.518 152.891 124.01 152.725 124.454Z" fill="#6C63FF"/>
<path opacity="0.1" d="M153.58 130.615C152.786 131.203 149.423 131.475 149.423 131.475C149.423 131.475 150.656 128.331 151.449 127.742C151.831 127.474 152.301 127.366 152.761 127.44C153.221 127.515 153.634 127.766 153.911 128.14C154.189 128.514 154.31 128.982 154.248 129.444C154.186 129.906 153.946 130.326 153.58 130.613V130.615Z" fill="#6C63FF"/>
<path opacity="0.1" d="M150.188 139.326C149.206 139.435 146.165 137.975 146.165 137.975C146.165 137.975 148.816 135.884 149.797 135.779C150.253 135.754 150.701 135.905 151.049 136.2C151.398 136.495 151.62 136.913 151.67 137.367C151.72 137.821 151.594 138.278 151.319 138.642C151.043 139.006 150.639 139.251 150.188 139.326Z" fill="#6C63FF"/>
<path opacity="0.1" d="M146.137 145.34C145.188 145.612 141.943 144.683 141.943 144.683C141.943 144.683 144.202 142.174 145.151 141.902C145.379 141.83 145.619 141.804 145.857 141.826C146.095 141.848 146.326 141.917 146.537 142.03C146.748 142.143 146.934 142.297 147.084 142.483C147.234 142.669 147.346 142.884 147.412 143.114C147.478 143.344 147.497 143.584 147.468 143.822C147.439 144.059 147.363 144.289 147.245 144.496C147.126 144.704 146.966 144.885 146.776 145.03C146.586 145.175 146.369 145.28 146.137 145.34Z" fill="#6C63FF"/>
<path opacity="0.1" d="M145.84 130.34C146.262 131.232 149.102 133.054 149.102 133.054C149.102 133.054 149.493 129.701 149.07 128.808C148.858 128.393 148.494 128.077 148.053 127.927C147.613 127.777 147.131 127.804 146.711 128.004C146.29 128.203 145.964 128.559 145.802 128.995C145.639 129.431 145.653 129.914 145.84 130.34Z" fill="#6C63FF"/>
<path opacity="0.1" d="M141.192 137.432C141.868 138.157 145.117 139.047 145.117 139.047C145.117 139.047 144.488 135.729 143.818 135.003C143.495 134.657 143.049 134.452 142.576 134.435C142.103 134.417 141.643 134.587 141.295 134.909C140.948 135.23 140.742 135.676 140.723 136.149C140.703 136.622 140.872 137.084 141.192 137.432Z" fill="#6C63FF"/>
<path opacity="0.1" d="M137.621 144.946C138.158 145.774 141.217 147.201 141.217 147.201C141.217 147.201 141.157 143.823 140.618 142.997C140.353 142.614 139.95 142.349 139.493 142.259C139.037 142.169 138.563 142.26 138.173 142.514C137.783 142.768 137.507 143.164 137.404 143.618C137.301 144.072 137.379 144.549 137.621 144.946Z" fill="#6C63FF"/>
</g>
<g opacity="0.1">
<path opacity="0.1" d="M142.103 119.608C142.103 119.608 142.701 111.228 147.414 106.659C149.404 104.755 150.722 102.256 151.173 99.5389C151.377 98.2471 151.462 96.9391 151.426 95.6317" fill="#6C63FF"/>
<path opacity="0.1" d="M154.379 92.7349C154.041 93.6589 151.359 95.7163 151.359 95.7163C151.359 95.7163 150.683 92.4072 151.031 91.4832C151.197 91.039 151.533 90.6789 151.964 90.4822C152.395 90.2854 152.887 90.2682 153.331 90.4342C153.775 90.6001 154.134 90.9358 154.331 91.3673C154.528 91.7987 154.545 92.2907 154.379 92.7349Z" fill="#6C63FF"/>
<path opacity="0.1" d="M155.239 98.8941C154.447 99.4836 151.082 99.7539 151.082 99.7539C151.082 99.7539 152.314 96.612 153.108 96.0224C153.296 95.8749 153.511 95.7664 153.742 95.7036C153.972 95.6407 154.213 95.6247 154.45 95.6564C154.686 95.6882 154.914 95.7671 155.12 95.8885C155.326 96.0099 155.505 96.1713 155.648 96.3632C155.79 96.555 155.893 96.7735 155.949 97.0057C156.006 97.2379 156.015 97.4791 155.977 97.715C155.939 97.9509 155.854 98.1768 155.727 98.3793C155.6 98.5819 155.434 98.7569 155.239 98.8941Z" fill="#6C63FF"/>
<path opacity="0.1" d="M151.842 107.607C150.861 107.715 147.821 106.256 147.821 106.256C147.821 106.256 150.471 104.166 151.452 104.06C151.688 104.03 151.927 104.047 152.156 104.11C152.385 104.173 152.599 104.281 152.786 104.428C152.973 104.576 153.128 104.758 153.244 104.966C153.359 105.174 153.432 105.403 153.457 105.639C153.483 105.875 153.462 106.114 153.395 106.342C153.327 106.57 153.215 106.782 153.064 106.966C152.914 107.15 152.729 107.303 152.519 107.414C152.309 107.526 152.079 107.594 151.842 107.616V107.607Z" fill="#6C63FF"/>
<path opacity="0.1" d="M147.792 113.62C146.843 113.892 143.598 112.963 143.598 112.963C143.598 112.963 145.859 110.455 146.806 110.181C147.26 110.057 147.744 110.118 148.153 110.348C148.563 110.579 148.865 110.962 148.995 111.415C149.124 111.867 149.07 112.352 148.845 112.765C148.62 113.178 148.241 113.485 147.79 113.62H147.792Z" fill="#6C63FF"/>
<path opacity="0.1" d="M147.495 98.6187C147.917 99.5123 150.759 101.335 150.759 101.335C150.759 101.335 151.149 97.9802 150.727 97.0883C150.629 96.8714 150.489 96.6761 150.315 96.5139C150.142 96.3516 149.937 96.2257 149.714 96.1435C149.491 96.0613 149.254 96.0244 149.016 96.035C148.779 96.0456 148.546 96.1034 148.331 96.2052C148.116 96.307 147.924 96.4506 147.765 96.6276C147.606 96.8047 147.485 97.0116 147.407 97.2363C147.329 97.4611 147.297 97.6991 147.312 97.9364C147.327 98.1738 147.389 98.4057 147.495 98.6187Z" fill="#6C63FF"/>
<path opacity="0.1" d="M142.846 105.712C143.521 106.438 146.773 107.327 146.773 107.327C146.773 107.327 146.142 104.009 145.471 103.284C145.146 102.95 144.704 102.756 144.237 102.743C143.771 102.731 143.319 102.901 142.976 103.218C142.634 103.534 142.429 103.972 142.404 104.438C142.38 104.904 142.539 105.361 142.846 105.712Z" fill="#6C63FF"/>
<path opacity="0.1" d="M139.276 113.226C139.814 114.054 142.872 115.481 142.872 115.481C142.872 115.481 142.811 112.103 142.272 111.277C142.148 111.073 141.984 110.896 141.789 110.756C141.595 110.617 141.375 110.518 141.142 110.465C140.909 110.412 140.667 110.406 140.432 110.448C140.197 110.49 139.972 110.579 139.772 110.709C139.571 110.84 139.399 111.009 139.265 111.207C139.131 111.405 139.039 111.628 138.992 111.863C138.946 112.098 138.947 112.339 138.996 112.573C139.045 112.808 139.14 113.03 139.276 113.226Z" fill="#6C63FF"/>
<path opacity="0.1" d="M154.379 92.7349C154.041 93.6589 151.359 95.7163 151.359 95.7163C151.359 95.7163 150.683 92.4072 151.031 91.4832C151.197 91.039 151.533 90.6789 151.964 90.4822C152.395 90.2854 152.887 90.2682 153.331 90.4342C153.775 90.6001 154.134 90.9358 154.331 91.3673C154.528 91.7987 154.545 92.2907 154.379 92.7349Z" fill="#6C63FF"/>
<path opacity="0.1" d="M155.239 98.8941C154.447 99.4836 151.082 99.7539 151.082 99.7539C151.082 99.7539 152.314 96.612 153.108 96.0224C153.296 95.8749 153.511 95.7664 153.742 95.7036C153.972 95.6407 154.213 95.6247 154.45 95.6564C154.686 95.6882 154.914 95.7671 155.12 95.8885C155.326 96.0099 155.505 96.1713 155.648 96.3632C155.79 96.555 155.893 96.7735 155.949 97.0057C156.006 97.2379 156.015 97.4791 155.977 97.715C155.939 97.9509 155.854 98.1768 155.727 98.3793C155.6 98.5819 155.434 98.7569 155.239 98.8941Z" fill="#6C63FF"/>
<path opacity="0.1" d="M151.842 107.607C150.861 107.715 147.821 106.256 147.821 106.256C147.821 106.256 150.471 104.166 151.452 104.06C151.688 104.03 151.927 104.047 152.156 104.11C152.385 104.173 152.599 104.281 152.786 104.428C152.973 104.576 153.128 104.758 153.244 104.966C153.359 105.174 153.432 105.403 153.457 105.639C153.483 105.875 153.462 106.114 153.395 106.342C153.327 106.57 153.215 106.782 153.064 106.966C152.914 107.15 152.729 107.303 152.519 107.414C152.309 107.526 152.079 107.594 151.842 107.616V107.607Z" fill="#6C63FF"/>
<path opacity="0.1" d="M147.792 113.62C146.843 113.892 143.598 112.963 143.598 112.963C143.598 112.963 145.859 110.455 146.806 110.181C147.26 110.057 147.744 110.118 148.153 110.348C148.563 110.579 148.865 110.962 148.995 111.415C149.124 111.867 149.07 112.352 148.845 112.765C148.62 113.178 148.241 113.485 147.79 113.62H147.792Z" fill="#6C63FF"/>
<path opacity="0.1" d="M147.495 98.6187C147.917 99.5123 150.759 101.335 150.759 101.335C150.759 101.335 151.149 97.9802 150.727 97.0883C150.629 96.8714 150.489 96.6761 150.315 96.5139C150.142 96.3516 149.937 96.2257 149.714 96.1435C149.491 96.0613 149.254 96.0244 149.016 96.035C148.779 96.0456 148.546 96.1034 148.331 96.2052C148.116 96.307 147.924 96.4506 147.765 96.6276C147.606 96.8047 147.485 97.0116 147.407 97.2363C147.329 97.4611 147.297 97.6991 147.312 97.9364C147.327 98.1738 147.389 98.4057 147.495 98.6187Z" fill="#6C63FF"/>
<path opacity="0.1" d="M142.846 105.712C143.521 106.438 146.773 107.327 146.773 107.327C146.773 107.327 146.142 104.009 145.471 103.284C145.146 102.95 144.704 102.756 144.237 102.743C143.771 102.731 143.319 102.901 142.976 103.218C142.634 103.534 142.429 103.972 142.404 104.438C142.38 104.904 142.539 105.361 142.846 105.712Z" fill="#6C63FF"/>
<path opacity="0.1" d="M139.276 113.226C139.814 114.054 142.872 115.481 142.872 115.481C142.872 115.481 142.811 112.103 142.272 111.277C142.148 111.073 141.984 110.896 141.789 110.756C141.595 110.617 141.375 110.518 141.142 110.465C140.909 110.412 140.667 110.406 140.432 110.448C140.197 110.49 139.972 110.579 139.772 110.709C139.571 110.84 139.399 111.009 139.265 111.207C139.131 111.405 139.039 111.628 138.992 111.863C138.946 112.098 138.947 112.339 138.996 112.573C139.045 112.808 139.14 113.03 139.276 113.226Z" fill="#6C63FF"/>
</g>
<path opacity="0.1" d="M49.2134 174.742C57.4863 177.118 67.5826 175.671 76.9698 175.84C78.2546 175.863 79.6154 175.932 80.647 176.345C81.6786 176.757 82.1851 177.422 82.8925 177.991C85.5229 180.111 90.9138 180.793 95.6243 180.433C100.335 180.073 104.657 178.882 109.104 177.976C116.789 176.409 125.576 175.695 133.156 177.404C133.852 177.56 134.585 177.741 135.331 177.678C136.992 177.539 137.487 176.402 138.65 175.752C140.749 174.573 145.305 174.898 146.227 173.353C146.768 172.447 145.525 171.517 144.171 170.899C138.991 168.534 131.579 168.143 124.797 168.508C118.015 168.874 111.35 169.879 104.537 169.884C96.0447 169.884 87.8393 168.34 79.4297 167.705C73.6049 167.268 67.2483 167.321 61.7865 168.615C55.8655 170.01 54.5604 173.147 49.2134 174.742Z" fill="#4A7EFA"/>
<path d="M137.475 51H59.2316C58.2904 50.9985 57.3582 51.1832 56.4881 51.5436C55.6181 51.904 54.8272 52.4331 54.1607 53.1006C53.4942 53.7681 52.9651 54.561 52.6037 55.434C52.2422 56.3069 52.0555 57.2429 52.0542 58.1883V167.092C52.0582 169.001 52.8166 170.83 54.1625 172.177C55.5084 173.524 57.3317 174.279 59.2316 174.275H137.475C138.417 174.277 139.349 174.092 140.219 173.732C141.089 173.371 141.88 172.842 142.546 172.175C143.213 171.507 143.742 170.714 144.103 169.841C144.465 168.968 144.651 168.033 144.653 167.087V58.1883C144.651 57.2429 144.465 56.3069 144.103 55.434C143.742 54.561 143.213 53.7681 142.546 53.1006C141.88 52.4331 141.089 51.904 140.219 51.5436C139.349 51.1832 138.417 50.9985 137.475 51Z" fill="url(#paint1_linear)"/>
<path d="M140.129 52.704H56.0086C54.138 52.704 52.6216 54.2155 52.6216 56.0802V169.763C52.6216 171.627 54.138 173.139 56.0086 173.139H140.129C141.999 173.139 143.516 171.627 143.516 169.763V56.0802C143.516 54.2155 141.999 52.704 140.129 52.704Z" fill="#3F3D56"/>
<path d="M138.972 63.498H57.7349V161.209H138.972V63.498Z" fill="#F6F7F9"/>
<path d="M97.5009 58.9533C98.1284 58.9533 98.6371 58.4446 98.6371 57.8171C98.6371 57.1897 98.1284 56.681 97.5009 56.681C96.8734 56.681 96.3647 57.1897 96.3647 57.8171C96.3647 58.4446 96.8734 58.9533 97.5009 58.9533Z" fill="#F6F7F9"/>
<path d="M97.7849 170.299C99.8242 170.299 101.477 168.773 101.477 166.89C101.477 165.008 99.8242 163.482 97.7849 163.482C95.7455 163.482 94.0923 165.008 94.0923 166.89C94.0923 168.773 95.7455 170.299 97.7849 170.299Z" fill="#F6F7F9"/>
<g opacity="0.2">
<path opacity="0.2" d="M138.822 63.8631H57.415V68.7331H138.822V63.8631Z" fill="#4A7EFA"/>
</g>
<path d="M60.0073 67.4744C60.6348 67.4744 61.1435 66.9658 61.1435 66.3383C61.1435 65.7108 60.6348 65.2021 60.0073 65.2021C59.3798 65.2021 58.8711 65.7108 58.8711 66.3383C58.8711 66.9658 59.3798 67.4744 60.0073 67.4744Z" fill="#F6F7F9"/>
<path d="M62.5636 67.4744C63.0342 67.4744 63.4157 66.9658 63.4157 66.3383C63.4157 65.7108 63.0342 65.2021 62.5636 65.2021C62.0929 65.2021 61.7114 65.7108 61.7114 66.3383C61.7114 66.9658 62.0929 67.4744 62.5636 67.4744Z" fill="#F6F7F9"/>
<path d="M65.4034 67.4744C65.874 67.4744 66.2555 66.9658 66.2555 66.3383C66.2555 65.7108 65.874 65.2021 65.4034 65.2021C64.9328 65.2021 64.5513 65.7108 64.5513 66.3383C64.5513 66.9658 64.9328 67.4744 65.4034 67.4744Z" fill="#F6F7F9"/>
<path d="M135.563 98.1516H60.0073V98.7196H135.563V98.1516Z" fill="#DCE0ED"/>
<path d="M135.563 104.4H60.0073V104.968H135.563V104.4Z" fill="#DCE0ED"/>
<path d="M135.563 110.081H60.0073V110.649H135.563V110.081Z" fill="#DCE0ED"/>
<g opacity="0.2">
<path opacity="0.2" d="M135.653 116.377H59.7539V104.806L66.7148 108.238L73.9188 109.216L80.2398 107.309L87.8658 101.392L91.7017 99.1755L94.5059 98.6349L97.1887 98.7785L101.6 100.959L107.599 104.782L112.306 105.387L116.037 104.1L123.948 97.618L127.987 96.1771L132.213 96.8308L135.653 98.8191V116.377Z" fill="#4A7EFA"/>
</g>
<path d="M73.1611 109.513C66.3652 109.513 60.0862 105.153 60.0073 105.096L60.1953 104.804C60.2927 104.873 69.957 111.58 78.1695 108.22C81.1638 106.988 83.2954 105.089 85.3582 103.246C87.5116 101.321 89.5442 99.5038 92.317 98.7149C95.4959 97.8116 98.9702 98.6286 101.61 100.905C103.868 102.851 108.363 105.975 113.111 105.042C115.531 104.565 117.571 102.71 119.731 100.747C123.871 96.9822 128.155 93.0889 135.563 98.6744L135.367 98.9597C128.173 93.5361 123.994 97.3379 119.951 101.013C117.755 103.008 115.682 104.887 113.173 105.387C108.289 106.348 103.7 103.161 101.397 101.177C98.841 98.9737 95.4808 98.1831 92.4042 99.0547C89.7053 99.8225 87.7047 101.615 85.5747 103.513C83.4918 105.376 81.3384 107.301 78.2921 108.548C76.6541 109.202 74.9138 109.53 73.1611 109.513Z" fill="#EF8F8C"/>
<path d="M96.0806 100.424C97.1787 100.424 98.0689 99.6608 98.0689 98.7196C98.0689 97.7783 97.1787 97.0153 96.0806 97.0153C94.9825 97.0153 94.0923 97.7783 94.0923 98.7196C94.0923 99.6608 94.9825 100.424 96.0806 100.424Z" fill="#EF8F8C"/>
<g opacity="0.2">
<path opacity="0.2" d="M120.834 73.7402H97.1301C97.028 73.7402 96.9301 73.7808 96.8579 73.853C96.7857 73.9253 96.7451 74.0232 96.7451 74.1254V90.1644C96.7452 90.2416 96.7685 90.3169 96.8118 90.3806C96.8552 90.4444 96.9167 90.4936 96.9883 90.522C97.06 90.5504 97.1385 90.5566 97.2138 90.5399C97.289 90.5231 97.3575 90.4841 97.4103 90.428L101.518 86.0445C101.554 86.006 101.597 85.9754 101.645 85.9545C101.694 85.9336 101.746 85.9228 101.798 85.9228H120.834C120.936 85.9228 121.034 85.8823 121.106 85.81C121.178 85.7378 121.219 85.6398 121.219 85.5377V74.122C121.218 74.0204 121.177 73.9233 121.105 73.8518C121.033 73.7803 120.935 73.7402 120.834 73.7402Z" fill="#4A7EFA"/>
</g>
<path d="M115.68 76.564H102.046V78.2683H115.68V76.564Z" fill="#F6F7F9"/>
<path d="M106.023 80.5402H102.046V82.2445H106.023V80.5402Z" fill="#F6F7F9"/>
<path d="M115.68 80.5402H109.999V82.2445H115.68V80.5402Z" fill="#F6F7F9"/>
<g opacity="0.2">
<path opacity="0.2" d="M69.9524 128.465H66.2466V130.155H69.9524V128.465Z" fill="#4A7EFA"/>
</g>
<g opacity="0.2">
<path opacity="0.2" d="M69.9534 131.731H66.2476V133.42H69.9534V131.731Z" fill="#4A7EFA"/>
</g>
<g opacity="0.2">
<path opacity="0.2" d="M69.9534 134.996H66.2476V136.686H69.9534V134.996Z" fill="#4A7EFA"/>
</g>
<g opacity="0.2">
<path opacity="0.2" d="M69.9534 138.263H66.2476V139.952H69.9534V138.263Z" fill="#4A7EFA"/>
</g>
<g opacity="0.2">
<path opacity="0.2" d="M69.9534 141.528H66.2476V143.218H69.9534V141.528Z" fill="#4A7EFA"/>
</g>
<g opacity="0.2">
<path opacity="0.2" d="M69.9534 144.794H66.2476V146.483H69.9534V144.794Z" fill="#4A7EFA"/>
</g>
<g opacity="0.2">
<path opacity="0.2" d="M69.9534 148.06H66.2476V149.749H69.9534V148.06Z" fill="#4A7EFA"/>
</g>
<g opacity="0.2">
<path opacity="0.2" d="M69.9534 151.326H66.2476V153.015H69.9534V151.326Z" fill="#4A7EFA"/>
</g>
<g opacity="0.2">
<path opacity="0.2" d="M76.9319 153.014H73.2261V154.704H76.9319V153.014Z" fill="#4A7EFA"/>
</g>
<g opacity="0.2">
<path opacity="0.2" d="M83.4602 153.014H79.7544V154.704H83.4602V153.014Z" fill="#4A7EFA"/>
</g>
<g opacity="0.2">
<path opacity="0.2" d="M89.989 153.014H86.2832V154.704H89.989V153.014Z" fill="#4A7EFA"/>
</g>
<g opacity="0.2">
<path opacity="0.2" d="M96.5159 153.014H92.8101V154.704H96.5159V153.014Z" fill="#4A7EFA"/>
</g>
<g opacity="0.2">
<path opacity="0.2" d="M103.044 153.014H99.3384V154.704H103.044V153.014Z" fill="#4A7EFA"/>
</g>
<g opacity="0.2">
<path opacity="0.2" d="M109.573 153.014H105.867V154.704H109.573V153.014Z" fill="#4A7EFA"/>
</g>
<g opacity="0.2">
<path opacity="0.2" d="M116.101 153.014H112.396V154.704H116.101V153.014Z" fill="#4A7EFA"/>
</g>
<g opacity="0.2">
<path opacity="0.2" d="M122.63 153.014H118.924V154.704H122.63V153.014Z" fill="#4A7EFA"/>
</g>
<g opacity="0.2">
<path opacity="0.2" d="M129.157 153.014H125.452V154.704H129.157V153.014Z" fill="#4A7EFA"/>
</g>
<path d="M77.0499 140.758H73.0732V150.984H77.0499V140.758Z" fill="#EF8F8C"/>
<path d="M83.2989 136.214H79.3223V150.984H83.2989V136.214Z" fill="#EF8F8C"/>
<path d="M90.1156 131.669H86.707V150.984H90.1156V131.669Z" fill="#EF8F8C"/>
<path d="M96.3651 133.941H92.9565V150.984H96.3651V133.941Z" fill="#EF8F8C"/>
<path d="M103.182 129.964H99.2051V150.984H103.182V129.964Z" fill="#EF8F8C"/>
<g opacity="0.2">
<path opacity="0.2" d="M109.573 138.263H105.867V151.325H109.573V138.263Z" fill="#4A7EFA"/>
</g>
<g opacity="0.2">
<path opacity="0.2" d="M116.101 138.263H112.396V151.325H116.101V138.263Z" fill="#4A7EFA"/>
</g>
<g opacity="0.2">
<path opacity="0.2" d="M122.63 138.263H118.924V151.325H122.63V138.263Z" fill="#4A7EFA"/>
</g>
<g opacity="0.2">
<path opacity="0.2" d="M129.157 138.263H125.452V151.325H129.157V138.263Z" fill="#4A7EFA"/>
</g>
<path d="M45.1019 171.439C44.8803 171.839 44.6866 172.08 44.6696 171.981C44.6527 171.882 44.8194 171.472 45.041 171.072C45.2626 170.671 45.1748 170.962 45.1918 171.072C45.2087 171.181 45.3235 171.039 45.1019 171.439Z" fill="#FFD037"/>
<defs>
<linearGradient id="paint0_linear" x1="97984.2" y1="204103" x2="97984.2" y2="65194.9" gradientUnits="userSpaceOnUse">
<stop stop-color="#808080" stop-opacity="0.25"/>
<stop offset="0.54" stop-color="#808080" stop-opacity="0.12"/>
<stop offset="1" stop-color="#808080" stop-opacity="0.1"/>
</linearGradient>
<linearGradient id="paint1_linear" x1="98.3501" y1="174.28" x2="98.3501" y2="51" gradientUnits="userSpaceOnUse">
<stop stop-color="#808080" stop-opacity="0.25"/>
<stop offset="0.54" stop-color="#808080" stop-opacity="0.12"/>
<stop offset="1" stop-color="#808080" stop-opacity="0.1"/>
</linearGradient>
</defs>
</svg>
