<svg width="324" height="297" viewBox="0 0 324 297" fill="none" xmlns="http://www.w3.org/2000/svg">
<path d="M205.008 246.823C178.259 250.603 155.641 247.846 131.029 245.162C106.575 242.534 80.0202 239.782 55.8892 226.267C31.8081 212.613 9.99248 188.139 14.3504 168.481C18.5498 148.766 48.8728 134.006 68.8459 110.195C88.9276 86.5808 98.8178 53.9723 121.639 42.1839C144.618 30.4523 180.686 39.5977 208.416 57.545C236.096 75.6315 255.546 102.716 268.418 131.689C281.449 160.718 287.902 191.635 275.481 212.335C263.11 232.896 231.915 243.099 205.008 246.823Z" fill="#7BBBBB"/>
<path d="M209.939 241.328L209.938 241.328C184.32 244.948 162.501 242.558 139.004 239.984C138.033 239.878 137.06 239.771 136.083 239.665L136.082 239.665L135.449 239.597C111.157 236.987 84.955 234.172 61.1348 220.832C49.1436 214.032 37.7238 204.542 29.8513 194.32C21.9665 184.083 17.7072 173.203 19.8386 163.589L19.8395 163.585C20.8664 158.764 23.4968 154.217 27.2135 149.724C30.9308 145.229 35.7123 140.815 41.0093 136.253C43.1715 134.391 45.4196 132.504 47.7138 130.58C56.6368 123.092 66.2562 115.021 74.2275 105.519C81.89 96.5078 88.0805 86.1821 94.0429 76.2369C95.9181 73.1091 97.7707 70.019 99.6395 67.0192C107.473 54.4439 115.59 43.4543 126.867 37.6285C138.22 31.8334 152.854 31.1742 168.148 34.2252C183.435 37.2747 199.325 44.021 213.143 52.9641C240.721 70.984 260.116 97.9806 272.961 126.892L272.962 126.893C279.465 141.38 284.316 156.316 285.997 170.196C287.679 184.077 286.185 196.857 280.052 207.078C273.941 217.234 263.155 224.87 250.494 230.435C237.84 235.998 223.362 239.47 209.939 241.328Z" stroke="#7BBBBB"/>
<path d="M158.468 157.069C157.599 157.922 157.101 159.085 157.083 160.304C157.066 161.524 157.53 162.701 158.374 163.579L187.587 193.852C188.012 194.292 188.52 194.643 189.082 194.885C189.644 195.127 190.248 195.254 190.859 195.26C191.47 195.266 192.077 195.15 192.643 194.919C193.209 194.689 193.724 194.347 194.157 193.915L283.301 105.05C283.788 104.565 284.16 103.976 284.391 103.328C284.621 102.68 284.704 101.988 284.634 101.304C284.563 100.62 284.341 99.9597 283.982 99.3725C283.624 98.7853 283.14 98.2856 282.564 97.9101L247.511 75.0512C246.634 74.4736 245.586 74.2146 244.541 74.3176C243.497 74.4205 242.52 74.8791 241.772 75.6167L158.468 157.069Z" fill="#3F3D56"/>
<path d="M283.91 99.4139C283.732 99.6854 283.527 99.9376 283.297 100.166L194.092 190.565C193.658 190.997 193.141 191.337 192.573 191.568C192.005 191.798 191.397 191.914 190.784 191.908C190.171 191.902 189.565 191.775 189.002 191.533C188.438 191.292 187.929 190.941 187.503 190.502L157.569 159.021C157.365 158.81 157.182 158.579 157.022 158.333C155.875 160.093 156.468 162.061 157.99 163.63L187.292 193.854C187.718 194.294 188.228 194.644 188.791 194.886C189.355 195.127 189.961 195.254 190.574 195.26C191.187 195.266 191.795 195.151 192.363 194.92C192.931 194.69 193.447 194.349 193.882 193.918L283.297 105.195C284.049 104.448 284.521 103.465 284.632 102.413C284.744 101.36 284.489 100.301 283.91 99.4139Z" fill="#EF8F8C"/>
<path d="M275.484 100.434L271.862 98.1135C272.243 98.7965 272.383 99.5892 272.259 100.362C272.135 101.136 271.754 101.844 271.178 102.372C270.602 102.9 269.865 103.216 269.087 103.269C268.309 103.323 267.536 103.11 266.894 102.666L243.453 86.4764C242.92 86.109 242.501 85.5986 242.243 85.0034C241.985 84.4082 241.898 83.7521 241.993 83.1099C242.088 82.4677 242.361 81.8653 242.78 81.3713C243.2 80.8772 243.749 80.5115 244.365 80.3158L242.499 79.1204C242.257 78.9653 241.969 78.8983 241.684 78.9305C241.398 78.9627 241.132 79.0922 240.93 79.2974L162.072 157.147C161.955 157.267 161.862 157.409 161.8 157.565C161.738 157.721 161.707 157.888 161.71 158.056C161.713 158.224 161.75 158.39 161.817 158.544C161.885 158.698 161.982 158.836 162.104 158.952L190.744 186.985C190.981 187.21 191.296 187.333 191.622 187.328C191.949 187.324 192.26 187.192 192.492 186.96L275.696 102.391C275.829 102.257 275.931 102.096 275.993 101.917C276.056 101.739 276.078 101.549 276.058 101.361C276.037 101.173 275.975 100.992 275.876 100.832C275.777 100.671 275.643 100.535 275.484 100.434Z" fill="white"/>
<path d="M184.185 140.014L208.445 162.871L266.15 105.902L236.864 86.8548L184.185 140.014Z" fill="#E6E6E6"/>
<path d="M263.771 119.671C263.944 119.821 264.174 119.905 264.413 119.905C264.652 119.905 264.882 119.821 265.055 119.671L270.512 114.699C270.682 114.544 270.777 114.334 270.777 114.114C270.777 113.895 270.682 113.685 270.512 113.53C270.339 113.379 270.109 113.295 269.87 113.295C269.631 113.295 269.401 113.379 269.228 113.53L263.771 118.501C263.601 118.657 263.506 118.867 263.506 119.086C263.506 119.305 263.601 119.516 263.771 119.671Z" fill="#3F3D56"/>
<path d="M255.815 128.257C255.97 128.412 256.18 128.498 256.399 128.498C256.617 128.498 256.827 128.412 256.982 128.257L261.943 123.297C262.097 123.142 262.184 122.932 262.184 122.713C262.184 122.494 262.097 122.285 261.942 122.13C261.787 121.975 261.578 121.889 261.359 121.888C261.14 121.888 260.931 121.975 260.776 122.129L255.815 127.09C255.66 127.245 255.574 127.455 255.574 127.674C255.574 127.892 255.66 128.102 255.815 128.257Z" fill="#3F3D56"/>
<path d="M184.846 165.515C188.131 165.515 190.795 162.852 190.795 159.566C190.795 156.28 188.131 153.617 184.846 153.617C181.56 153.617 178.896 156.28 178.896 159.566C178.896 162.852 181.56 165.515 184.846 165.515Z" fill="#EF8F8C"/>
<path d="M226.489 110.651H166.337V122.549H226.489V110.651Z" fill="#E6E6E6"/>
<path d="M226.489 91.4818H166.337V103.38H226.489V91.4818Z" fill="#E6E6E6"/>
<path d="M226.489 72.9735H166.337V84.8717H226.489V72.9735Z" fill="#E6E6E6"/>
<path d="M167.659 83.5496H225.167V74.2955H167.659V83.5496Z" fill="white"/>
<path d="M167.659 102.058H225.167V92.8039H167.659V102.058Z" fill="white"/>
<path d="M167.659 121.227H225.167V111.973H167.659V121.227Z" fill="white"/>
<path d="M172.617 82.2277C174.624 82.2277 176.252 80.6 176.252 78.5922C176.252 76.5843 174.624 74.9566 172.617 74.9566C170.609 74.9566 168.981 76.5843 168.981 78.5922C168.981 80.6 170.609 82.2277 172.617 82.2277Z" fill="#EF8F8C"/>
<path d="M215.913 77.6006H180.879V78.2617H215.913V77.6006Z" fill="#EF8F8C"/>
<path d="M215.913 79.5836H180.879V80.2446H215.913V79.5836Z" fill="#EF8F8C"/>
<path d="M172.617 101.397C174.624 101.397 176.252 99.7693 176.252 97.7614C176.252 95.7536 174.624 94.1259 172.617 94.1259C170.609 94.1259 168.981 95.7536 168.981 97.7614C168.981 99.7693 170.609 101.397 172.617 101.397Z" fill="#CCCCCC"/>
<path d="M215.913 96.1089H180.879V97.431H215.913V96.1089Z" fill="#CCCCCC"/>
<path d="M215.913 98.092H180.879V99.414H215.913V98.092Z" fill="#CCCCCC"/>
<path d="M172.617 119.905C174.624 119.905 176.252 118.426 176.252 116.6C176.252 114.775 174.624 113.295 172.617 113.295C170.609 113.295 168.981 114.775 168.981 116.6C168.981 118.426 170.609 119.905 172.617 119.905Z" fill="#CCCCCC"/>
<path d="M215.913 115.278H180.879V115.939H215.913V115.278Z" fill="#CCCCCC"/>
<path d="M215.913 117.261H180.879V117.922H215.913V117.261Z" fill="#CCCCCC"/>
<path d="M68.2732 261.323L71.8812 261.747C74.7311 263.468 78.0762 264.115 81.7809 263.983C82.298 263.968 82.8021 263.817 83.2432 263.547C83.6843 263.276 84.0471 262.895 84.2957 262.44C84.5114 262.042 84.6323 261.599 84.649 261.146C84.6657 260.693 84.5778 260.242 84.392 259.828C84.2063 259.415 83.9278 259.05 83.5781 258.762C83.2285 258.474 82.8172 258.271 82.3763 258.168L79.6348 257.528L73.0194 251.05L69.0285 243.818L63.2314 244.484L62.0246 253.67C61.8715 255.508 62.4376 257.333 63.6035 258.761C64.7694 260.189 66.4437 261.108 68.2732 261.323Z" fill="#2F2E41"/>
<path d="M124.466 256.675L128.002 257.508C130.638 259.543 133.887 260.568 137.583 260.859C138.098 260.903 138.616 260.811 139.085 260.592C139.554 260.374 139.958 260.036 140.257 259.613C140.516 259.242 140.687 258.816 140.755 258.367C140.823 257.919 140.787 257.461 140.65 257.029C140.512 256.598 140.277 256.203 139.962 255.877C139.648 255.551 139.262 255.302 138.836 255.15L136.185 254.202L130.35 247.011L127.208 239.371H121.373L119.129 248.359C118.767 250.168 119.122 252.046 120.118 253.598C121.114 255.149 122.673 256.253 124.466 256.675Z" fill="#2F2E41"/>
<path d="M127.368 239.879L120.769 240.895L110.364 188.293L92.3443 157.544L70.5181 246.994L62.3967 248.519C63.3074 198.146 58.8625 134.73 68.9953 127.05L113.155 132.133L132.444 183.973L127.368 239.879Z" fill="white"/>
<path d="M95.3882 48.782C103.798 48.782 110.616 41.9557 110.616 33.5349C110.616 25.1142 103.798 18.2878 95.3882 18.2878C86.9783 18.2878 80.1606 25.1142 80.1606 33.5349C80.1606 41.9557 86.9783 48.782 95.3882 48.782Z" fill="#FFB8B8"/>
<path d="M74.0688 56.9138L92.342 59.9632L96.9106 43.6994L83.7131 39.6339L74.0688 56.9138Z" fill="#FFB8B8"/>
<path d="M66.4565 129.083L115.185 133.658C111.278 120.056 107.699 106.503 110.617 92.9986C114.321 80.9424 110.746 73.773 100.972 68.095L94.3738 53.3562L76.6083 51.3232C71.9037 58.8972 69.9792 67.8748 71.1653 76.7147C73.6967 95.9378 73.0131 113.776 66.4565 129.083Z" fill="#170A56"/>
<path d="M89.399 16.231C94.5996 15.8713 100.612 15.772 101.365 17.1436C106.751 16.8914 111.441 18.7724 113.604 23.1496C113.789 23.5286 113.889 23.9436 113.896 24.3652C113.903 24.7869 113.818 25.2051 113.646 25.5902C113.475 25.9754 113.221 26.3182 112.903 26.5944C112.584 26.8707 112.21 27.0738 111.804 27.1893C109.073 27.978 104.908 28.9537 101.87 28.6421C95.5601 36.0701 98.215 49.618 104.34 57.5328L98.8052 58.6688L88.3028 44.0243L91.6167 60.1441L78.836 62.2372L74.3784 41.7518C73.4412 36.8892 73.6757 31.8729 75.0626 27.1193C75.2108 26.6392 75.3895 26.1691 75.5977 25.712C76.8288 23.0311 78.762 20.7341 81.1919 19.0648C83.6219 17.3955 86.4579 16.4163 89.399 16.231Z" fill="#2F2E41"/>
<path d="M97.926 144.33L97.5893 156.13C97.5429 157.756 98.1137 159.34 99.1868 160.562C100.26 161.783 101.756 162.553 103.373 162.715C104.408 162.818 105.453 162.669 106.419 162.278C107.384 161.888 108.239 161.269 108.913 160.474C109.586 159.679 110.056 158.732 110.283 157.715C110.509 156.698 110.486 155.641 110.214 154.635L107.57 144.839L99.9564 103.163L100.464 78.7678L84.2212 78.2595L87.2667 105.704L97.926 144.33Z" fill="#FFB8B8"/>
<path d="M83.2051 80.8008C89.0899 78.5564 95.5934 78.5564 101.478 80.8008L100.463 60.4713C100.463 58.3146 99.6074 56.2463 98.0843 54.7213C96.5613 53.1963 94.4956 52.3395 92.3416 52.3395C90.1877 52.3395 88.122 53.1963 86.599 54.7213C85.0759 56.2463 84.2203 58.3146 84.2203 60.4713L83.2051 80.8008Z" fill="#170A56"/>
</svg>
